<svg xmlns="http://www.w3.org/2000/svg" viewBox="-3.42 -52.32 397.50 72.32" width="231" height="42"><path d="M13.95 7.30Q11.58 7.30 9.79 6.91Q8 6.53 6.69 5.06Q5.38 3.58 5.38 0.51L5.38 0.51Q5.38-3.78 7.97-11.01Q10.56-18.24 14.78-25.54L14.78-25.54Q11.58-25.34 9.73-24.58Q7.87-23.81 7.30-22.21L7.30-22.21Q7.55-22.21 7.84-21.57Q8.13-20.93 8.13-20.22L8.13-20.22Q8.13-19.07 7.10-18.40Q6.08-17.73 4.54-17.73L4.54-17.73Q2.75-17.73 1.66-18.69Q0.58-19.65 0.58-21.44L0.58-21.44Q0.58-23.62 2.27-25.41Q3.97-27.20 6.98-28.26Q9.98-29.31 13.63-29.31L13.63-29.31Q14.98-29.31 16.96-29.12L16.96-29.12Q22.21-37.44 28.06-42.72Q33.92-48 39.23-48L39.23-48Q42.30-48 44.29-47.10L44.29-47.10L34.24 0L25.02 0L29.95-23.23Q27.58-24.32 25.60-24.83Q23.62-25.34 21.38-25.54L21.38-25.54Q17.73-17.66 15.39-9.44Q13.06-1.22 13.06 3.71L13.06 3.71Q13.06 6.14 13.95 7.30L13.95 7.30ZM30.53-26.05L34.24-43.46Q31.49-41.98 28.51-37.98Q25.54-33.98 22.72-28.29L22.72-28.29Q27.33-27.39 30.53-26.05L30.53-26.05ZM44.10 0L52.54-39.94L46.46-39.94L47.23-42.88Q50.75-42.88 54.53-43.84Q58.30-44.80 63.49-47.87L63.49-47.87L53.31 0L44.10 0ZM77.63 0.64Q70.59 0.64 67.65-3.65Q64.70-7.94 64.70-15.36L64.70-15.36Q64.70-24.19 67.46-31.74Q70.21-39.30 75.17-43.81Q80.13-48.32 86.46-48.32L86.46-48.32Q92.61-48.32 95.71-44.22Q98.82-40.13 98.82-32.96L98.82-32.96Q98.82-25.86 96.64-18.08Q94.46-10.30 89.70-4.83Q84.93 0.64 77.63 0.64L77.63 0.64ZM78.46-4.16Q81.47-4.16 84.16-8.77Q86.85-13.38 88.48-20.61Q90.11-27.84 90.11-35.20L90.11-35.20Q90.11-39.23 89.15-41.89Q88.19-44.54 86.40-44.54L86.40-44.54Q83.46-44.54 80.64-39.87Q77.82-35.20 76.03-27.97Q74.24-20.74 74.24-13.76L74.24-13.76Q74.24-4.16 78.46-4.16L78.46-4.16ZM116.48 0L132.74-43.97Q127.87-42.37 125.22-38.69Q122.56-35.01 122.56-29.57L122.56-29.57Q122.56-27.14 123.01-26.24Q123.46-25.34 123.46-25.15L123.46-25.15Q116.61-25.15 116.61-30.98L116.61-30.98Q116.61-34.94 119.65-38.94Q122.69-42.94 127.46-45.47Q132.22-48 136.96-48L136.96-48Q139.33-48 141.82-47.10L141.82-47.10L140.35-13.38L154.43-47.10L163.65-47.10L156.93 0L147.71 0L151.81-28.74L139.78 0L131.01 0L132.29-28.86L121.60 0L116.48 0ZM171.71 0.38Q166.98 0.38 164.35-2.08Q161.73-4.54 161.73-9.79L161.73-9.79Q161.73-14.21 163.46-19.52Q165.18-24.83 169.09-28.70Q172.99-32.58 179.01-32.58L179.01-32.58Q186.05-32.58 186.05-26.43L186.05-26.43Q186.05-22.85 184-19.84Q181.95-16.83 178.56-15.01Q175.17-13.18 171.33-12.93L171.33-12.93Q171.20-11.01 171.20-10.37L171.20-10.37Q171.20-7.23 172.29-6.11Q173.38-4.99 175.81-4.99L175.81-4.99Q179.26-4.99 181.73-6.59Q184.19-8.19 187.14-11.46L187.14-11.46L189.31-11.46Q182.21 0.38 171.71 0.38L171.71 0.38ZM171.84-16Q174.21-16.13 176.35-17.66Q178.50-19.20 179.81-21.57Q181.12-23.94 181.12-26.56L181.12-26.56Q181.12-29.18 179.52-29.18L179.52-29.18Q177.22-29.18 175.01-25.15Q172.80-21.12 171.84-16L171.84-16ZM198.46 16Q195.39 16 193.34 14.40Q191.30 12.80 191.30 9.79L191.30 9.79Q191.30 6.14 194.24 3.94Q197.18 1.73 201.73 0.26L201.73 0.26L202.50-3.14Q199.23 0.38 194.82 0.38L194.82 0.38Q191.17 0.38 188.74-2.11Q186.30-4.61 186.30-9.92L186.30-9.92Q186.30-14.66 188.19-19.87Q190.08-25.09 193.82-28.70Q197.57-32.32 202.75-32.32L202.75-32.32Q205.38-32.32 206.66-31.42Q207.94-30.53 207.94-29.06L207.94-29.06L207.94-28.67L208.64-32L217.86-32L211.52-2.30Q214.59-3.33 216.45-5.38Q218.30-7.42 219.58-11.46L219.58-11.46L222.27-11.46Q220.54-5.76 217.60-3.10Q214.66-0.45 210.94 0.51L210.94 0.51L209.98 5.12Q208.70 11.33 205.57 13.66Q202.43 16 198.46 16L198.46 16ZM198.98-5.82Q200.45-5.82 201.98-7.17Q203.52-8.51 204.10-10.82L204.10-10.82L207.36-25.98Q207.36-26.75 206.72-27.55Q206.08-28.35 204.74-28.35L204.74-28.35Q202.18-28.35 200.13-25.38Q198.08-22.40 196.93-18.21Q195.78-14.02 195.78-10.82L195.78-10.82Q195.78-7.62 196.70-6.72Q197.63-5.82 198.98-5.82L198.98-5.82ZM196.99 11.01Q198.08 11.01 199.10 9.54Q200.13 8.06 200.70 5.31L200.70 5.31L201.09 3.46Q194.82 5.76 194.82 8.90L194.82 8.90Q194.82 9.73 195.39 10.37Q195.97 11.01 196.99 11.01L196.99 11.01ZM227.26 0.38Q223.62 0.38 221.18-2.11Q218.75-4.61 218.75-9.92L218.75-9.92Q218.75-14.66 220.64-19.87Q222.53-25.09 226.27-28.70Q230.02-32.32 235.20-32.32L235.20-32.32Q237.82-32.32 239.10-31.42Q240.38-30.53 240.38-29.06L240.38-29.06L240.38-28.61L241.09-32L250.30-32L245.70-10.24Q245.44-9.28 245.44-8.19L245.44-8.19Q245.44-5.44 248.06-5.44L248.06-5.44Q249.86-5.44 251.17-7.10Q252.48-8.77 253.25-11.46L253.25-11.46L255.94-11.46Q253.57-4.54 250.08-2.08Q246.59 0.38 243.07 0.38L243.07 0.38Q240.38 0.38 238.75-1.12Q237.12-2.62 236.80-5.50L236.80-5.50Q234.94-2.88 232.67-1.25Q230.40 0.38 227.26 0.38L227.26 0.38ZM231.42-5.82Q233.02-5.82 234.59-7.33Q236.16-8.83 236.74-11.46L236.74-11.46L239.81-25.92Q239.81-26.75 239.17-27.55Q238.53-28.35 237.18-28.35L237.18-28.35Q234.62-28.35 232.58-25.38Q230.53-22.40 229.38-18.21Q228.22-14.02 228.22-10.82L228.22-10.82Q228.22-7.62 229.15-6.72Q230.08-5.82 231.42-5.82L231.42-5.82ZM276.80 0.83Q272.96 0.83 268.99-2.56L268.99-2.56L268.48 0L259.26 0L267.97-40.70L277.44-41.98L269.76-6.08Q271.55-4.80 273.41-4.80L273.41-4.80Q277.06-4.80 279.84-9.02Q282.62-13.25 284.16-19.78Q285.70-26.30 285.70-32.96L285.70-32.96Q285.70-39.23 283.23-42.14Q280.77-45.06 276.35-45.06L276.35-45.06Q271.55-45.06 267.74-43.17Q263.94-41.28 261.76-37.76Q259.58-34.24 259.58-29.50L259.58-29.50Q259.58-27.14 260.03-26.21Q260.48-25.28 260.48-25.15L260.48-25.15Q257.15-25.15 255.39-26.56Q253.63-27.97 253.63-31.10L253.63-31.10Q253.63-35.46 256.90-39.36Q260.16-43.26 265.63-45.63Q271.10-48 277.44-48L277.44-48Q286.21-48 290.37-42.82Q294.53-37.63 294.53-29.57L294.53-29.57Q294.53-22.27 292.06-15.20Q289.60-8.13 285.50-3.65Q281.41 0.83 276.80 0.83L276.80 0.83ZM293.25 0L300.03-32L309.25-32L308.42-28.03Q310.59-29.95 312.35-30.98Q314.11-32 316.16-32L316.16-32Q318.21-32 319.39-30.59Q320.58-29.18 320.58-27.20L320.58-27.20Q320.58-25.34 319.36-23.94Q318.14-22.53 315.97-22.53L315.97-22.53Q314.56-22.53 314.08-23.20Q313.60-23.87 313.34-25.15L313.34-25.15Q313.15-25.98 312.96-26.37Q312.77-26.75 312.26-26.75L312.26-26.75Q310.91-26.75 309.98-26.21Q309.06-25.66 307.58-24.32L307.58-24.32L302.46 0L293.25 0ZM330.43-35.46Q328.32-35.46 326.85-36.93Q325.38-38.40 325.38-40.51L325.38-40.51Q325.38-42.62 326.85-44.13Q328.32-45.63 330.43-45.63L330.43-45.63Q332.54-45.63 334.05-44.13Q335.55-42.62 335.55-40.51L335.55-40.51Q335.55-38.40 334.05-36.93Q332.54-35.46 330.43-35.46L330.43-35.46ZM326.08 0.38Q323.01 0.38 321.12-1.54Q319.23-3.46 319.23-7.30L319.23-7.30Q319.23-8.90 319.74-11.46L319.74-11.46L324.10-32L333.31-32L328.70-10.24Q328.45-9.28 328.45-8.19L328.45-8.19Q328.45-6.91 329.06-6.37Q329.66-5.82 331.07-5.82L331.07-5.82Q332.93-5.82 334.53-7.39Q336.13-8.96 336.83-11.46L336.83-11.46L339.52-11.46Q337.15-4.54 333.44-2.08Q329.73 0.38 326.08 0.38L326.08 0.38ZM344.13 0.38Q340.42 0.38 338.34-1.50Q336.26-3.39 336.26-7.17L336.26-7.17Q336.26-8.70 336.58-10.24L336.58-10.24L341.18-32L350.40-32L345.79-10.24Q345.47-8.64 345.47-7.94L345.47-7.94Q345.47-5.82 347.65-5.82L347.65-5.82Q350.59-5.82 353.12-9.54Q355.65-13.25 357.18-18.37Q358.72-23.49 358.72-27.20L358.72-27.20Q358.59-26.88 357.89-26.72Q357.18-26.56 356.67-26.56L356.67-26.56Q355.58-26.56 354.98-27.58Q354.37-28.61 354.37-29.82L354.37-29.82Q354.37-31.36 355.36-32.32Q356.35-33.28 358.34-33.28L358.34-33.28Q360.45-33.28 361.41-31.71Q362.37-30.14 362.37-27.71L362.37-27.71Q362.37-21.95 360.38-15.39Q358.40-8.83 354.30-4.22Q350.21 0.38 344.13 0.38L344.13 0.38ZM372.48 0.38Q367.74 0.38 365.12-2.08Q362.50-4.54 362.50-9.79L362.50-9.79Q362.50-14.21 364.22-19.52Q365.95-24.83 369.86-28.70Q373.76-32.58 379.78-32.58L379.78-32.58Q386.82-32.58 386.82-26.43L386.82-26.43Q386.82-22.85 384.77-19.84Q382.72-16.83 379.33-15.01Q375.94-13.18 372.10-12.93L372.10-12.93Q371.97-11.01 371.97-10.37L371.97-10.37Q371.97-7.23 373.06-6.11Q374.14-4.99 376.58-4.99L376.58-4.99Q380.03-4.99 382.50-6.59Q384.96-8.19 387.90-11.46L387.90-11.46L390.08-11.46Q382.98 0.38 372.48 0.38L372.48 0.38ZM372.61-16Q374.98-16.13 377.12-17.66Q379.26-19.20 380.58-21.57Q381.89-23.94 381.89-26.56L381.89-26.56Q381.89-29.18 380.29-29.18L380.29-29.18Q377.98-29.18 375.78-25.15Q373.57-21.12 372.61-16L372.61-16Z" fill="#636e72"/></svg>
