<svg xmlns="http://www.w3.org/2000/svg" viewBox="-3.42 -52.00 296.64 63.30" width="197" height="42"><path d="M13.95 7.30Q11.58 7.30 9.79 6.91Q8 6.53 6.69 5.06Q5.38 3.58 5.38 0.51L5.38 0.51Q5.38-3.78 7.97-11.01Q10.56-18.24 14.78-25.54L14.78-25.54Q11.58-25.34 9.73-24.58Q7.87-23.81 7.30-22.21L7.30-22.21Q7.55-22.21 7.84-21.57Q8.13-20.93 8.13-20.22L8.13-20.22Q8.13-19.07 7.10-18.40Q6.08-17.73 4.54-17.73L4.54-17.73Q2.75-17.73 1.66-18.69Q0.58-19.65 0.58-21.44L0.58-21.44Q0.58-23.62 2.27-25.41Q3.97-27.20 6.98-28.26Q9.98-29.31 13.63-29.31L13.63-29.31Q14.98-29.31 16.96-29.12L16.96-29.12Q22.21-37.44 28.06-42.72Q33.92-48 39.23-48L39.23-48Q42.30-48 44.29-47.10L44.29-47.10L34.24 0L25.02 0L29.95-23.23Q27.58-24.32 25.60-24.83Q23.62-25.34 21.38-25.54L21.38-25.54Q17.73-17.66 15.39-9.44Q13.06-1.22 13.06 3.71L13.06 3.71Q13.06 6.14 13.95 7.30L13.95 7.30ZM30.53-26.05L34.24-43.46Q31.49-41.98 28.51-37.98Q25.54-33.98 22.72-28.29L22.72-28.29Q27.33-27.39 30.53-26.05L30.53-26.05ZM50.43 0.38Q46.78 0.38 44.35-2.11Q41.92-4.61 41.92-9.92L41.92-9.92Q41.92-14.66 43.81-19.87Q45.70-25.09 49.44-28.70Q53.18-32.32 58.37-32.32L58.37-32.32Q60.99-32.32 62.27-31.42Q63.55-30.53 63.55-29.06L63.55-29.06L63.55-28.80L66.69-43.52L76.16-44.80L68.80-10.24Q68.54-9.28 68.54-8.19L68.54-8.19Q68.54-6.91 69.15-6.37Q69.76-5.82 71.17-5.82L71.17-5.82Q72.96-5.82 74.27-7.36Q75.58-8.90 76.35-11.46L76.35-11.46L79.04-11.46Q75.14 0 66.18 0L66.18 0Q63.55 0 61.92-1.41Q60.29-2.82 59.90-5.50L59.90-5.50Q58.24-2.94 55.90-1.28Q53.57 0.38 50.43 0.38L50.43 0.38ZM54.59-5.82Q56.13-5.82 57.70-7.23Q59.26-8.64 59.84-11.14L59.84-11.14L59.84-11.46L62.98-26.11Q62.40-28.35 60.35-28.35L60.35-28.35Q57.79-28.35 55.74-25.38Q53.70-22.40 52.54-18.21Q51.39-14.02 51.39-10.82L51.39-10.82Q51.39-7.62 52.32-6.72Q53.25-5.82 54.59-5.82L54.59-5.82ZM115.01 1.09Q112.45 1.09 110.56 0.03Q108.67-1.02 108.67-3.65L108.67-3.65Q108.67-5.31 109.50-7.36L109.50-7.36Q110.66-6.08 111.65-5.57Q112.64-5.06 113.79-5.06L113.79-5.06Q116.99-5.06 118.56-8.64Q120.13-12.22 120.13-16.58L120.13-16.58Q120.13-24.70 114.05-24.70L114.05-24.70Q112.32-24.70 111.10-24.51L111.10-24.51L105.86 0L96.64 0L105.34-40.70L114.82-41.98L111.81-27.78L112.19-27.78Q114.62-27.78 116.74-29.34Q118.85-30.91 120.13-33.31Q121.41-35.71 121.41-38.14L121.41-38.14Q121.41-41.09 119.33-43.07Q117.25-45.06 112.96-45.06L112.96-45.06Q109.06-45.06 105.34-43.30Q101.63-41.54 99.30-38.02Q96.96-34.50 96.96-29.50L96.96-29.50Q96.96-27.14 97.41-26.21Q97.86-25.28 97.86-25.15L97.86-25.15Q94.46-25.15 92.74-26.53Q91.01-27.90 91.01-31.04L91.01-31.04Q91.01-35.39 94.27-39.30Q97.54-43.20 102.91-45.60Q108.29-48 114.24-48L114.24-48Q118.72-48 121.79-46.59Q124.86-45.18 126.37-42.88Q127.87-40.58 127.87-37.82L127.87-37.82Q127.87-34.88 126.21-32.13Q124.54-29.38 121.47-27.65L121.47-27.65Q125.31-26.94 127.17-24.10Q129.02-21.25 129.02-17.34L129.02-17.34Q129.02-13.70 127.65-9.41Q126.27-5.12 123.10-2.02Q119.94 1.09 115.01 1.09L115.01 1.09ZM137.60 0.38Q134.53 0.38 132.64-1.54Q130.75-3.46 130.75-7.30L130.75-7.30Q130.75-8.90 131.26-11.46L131.26-11.46L138.11-43.52L147.58-44.80L140.22-10.24Q139.97-9.28 139.97-8.19L139.97-8.19Q139.97-6.91 140.58-6.37Q141.18-5.82 142.59-5.82L142.59-5.82Q144.45-5.82 146.05-7.39Q147.65-8.96 148.35-11.46L148.35-11.46L151.04-11.46Q148.67-4.54 144.96-2.08Q141.25 0.38 137.60 0.38L137.60 0.38ZM156.03 0.38Q152.38 0.38 149.95-2.11Q147.52-4.61 147.52-9.92L147.52-9.92Q147.52-14.66 149.41-19.87Q151.30-25.09 155.04-28.70Q158.78-32.32 163.97-32.32L163.97-32.32Q166.59-32.32 167.87-31.42Q169.15-30.53 169.15-29.06L169.15-29.06L169.15-28.61L169.86-32L179.07-32L174.46-10.24Q174.21-9.28 174.21-8.19L174.21-8.19Q174.21-5.44 176.83-5.44L176.83-5.44Q178.62-5.44 179.94-7.10Q181.25-8.77 182.02-11.46L182.02-11.46L184.70-11.46Q182.34-4.54 178.85-2.08Q175.36 0.38 171.84 0.38L171.84 0.38Q169.15 0.38 167.52-1.12Q165.89-2.62 165.57-5.50L165.57-5.50Q163.71-2.88 161.44-1.25Q159.17 0.38 156.03 0.38L156.03 0.38ZM160.19-5.82Q161.79-5.82 163.36-7.33Q164.93-8.83 165.50-11.46L165.50-11.46L168.58-25.92Q168.58-26.75 167.94-27.55Q167.30-28.35 165.95-28.35L165.95-28.35Q163.39-28.35 161.34-25.38Q159.30-22.40 158.14-18.21Q156.99-14.02 156.99-10.82L156.99-10.82Q156.99-7.62 157.92-6.72Q158.85-5.82 160.19-5.82L160.19-5.82ZM191.17 0.38Q186.43 0.38 183.81-2.08Q181.18-4.54 181.18-9.79L181.18-9.79Q181.18-14.21 182.94-19.52Q184.70-24.83 188.58-28.70Q192.45-32.58 198.40-32.58L198.40-32.58Q202.24-32.58 203.87-30.91Q205.50-29.25 205.50-26.69L205.50-26.69Q205.50-24.45 204.54-23.23Q203.58-22.02 202.11-22.02L202.11-22.02Q201.02-22.02 199.87-22.78L199.87-22.78Q200.64-24.90 200.64-26.56L200.64-26.56Q200.64-27.78 200.19-28.48Q199.74-29.18 198.85-29.18L198.85-29.18Q196.93-29.18 195.01-26.05Q193.09-22.91 191.87-18.43Q190.66-13.95 190.66-10.37L190.66-10.37Q190.66-7.23 191.74-6.11Q192.83-4.99 195.26-4.99L195.26-4.99Q198.72-4.99 201.18-6.59Q203.65-8.19 206.59-11.46L206.59-11.46L208.77-11.46Q201.66 0.38 191.17 0.38L191.17 0.38ZM230.66 0.38Q226.69 0.38 224.64-1.50Q222.59-3.39 222.59-6.91L222.59-6.91Q222.59-8.45 222.98-10.24L222.98-10.24L223.49-12.74Q223.74-13.82 223.74-15.10L223.74-15.10Q223.74-18.18 221.44-18.18L221.44-18.18Q220.42-18.18 219.30-17.60Q218.18-17.02 216.70-15.81L216.70-15.81L213.38 0L204.16 0L213.44-43.52L222.91-44.80L218.11-22.27L230.46-32L236.80-32L224-23.10Q224.96-23.36 226.11-23.36L226.11-23.36Q229.57-23.36 231.36-21.25Q233.15-19.14 233.15-15.87L233.15-15.87Q233.15-14.53 232.90-13.44L232.90-13.44L232.19-10.24Q231.87-9.09 231.87-8.19L231.87-8.19Q231.87-5.82 234.37-5.82L234.37-5.82Q236.29-5.82 237.44-7.20Q238.59-8.58 239.74-11.46L239.74-11.46L242.43-11.46Q238.46 0.38 230.66 0.38L230.66 0.38ZM248.90 0.38Q244.16 0.38 241.54-2.08Q238.91-4.54 238.91-9.79L238.91-9.79Q238.91-14.21 240.64-19.52Q242.37-24.83 246.27-28.70Q250.18-32.58 256.19-32.58L256.19-32.58Q263.23-32.58 263.23-26.43L263.23-26.43Q263.23-22.85 261.18-19.84Q259.14-16.83 255.74-15.01Q252.35-13.18 248.51-12.93L248.51-12.93Q248.38-11.01 248.38-10.37L248.38-10.37Q248.38-7.23 249.47-6.11Q250.56-4.99 252.99-4.99L252.99-4.99Q256.45-4.99 258.91-6.59Q261.38-8.19 264.32-11.46L264.32-11.46L266.50-11.46Q259.39 0.38 248.90 0.38L248.90 0.38ZM249.02-16Q251.39-16.13 253.54-17.66Q255.68-19.20 256.99-21.57Q258.30-23.94 258.30-26.56L258.30-26.56Q258.30-29.18 256.70-29.18L256.70-29.18Q254.40-29.18 252.19-25.15Q249.98-21.12 249.02-16L249.02-16ZM261.89 0L268.67-32L277.89-32L277.06-28.03Q279.23-29.95 280.99-30.98Q282.75-32 284.80-32L284.80-32Q286.85-32 288.03-30.59Q289.22-29.18 289.22-27.20L289.22-27.20Q289.22-25.34 288.00-23.94Q286.78-22.53 284.61-22.53L284.61-22.53Q283.20-22.53 282.72-23.20Q282.24-23.87 281.98-25.15L281.98-25.15Q281.79-25.98 281.60-26.37Q281.41-26.75 280.90-26.75L280.90-26.75Q279.55-26.75 278.62-26.21Q277.70-25.66 276.22-24.32L276.22-24.32L271.10 0L261.89 0Z" fill="#2d3436"/></svg>
