<svg xmlns="http://www.w3.org/2000/svg" viewBox="-3.42 -52.83 670.53 72.83" width="387" height="42"><path d="M13.95 7.30Q11.58 7.30 9.79 6.91Q8 6.53 6.69 5.06Q5.38 3.58 5.38 0.51L5.38 0.51Q5.38-3.78 7.97-11.01Q10.56-18.24 14.78-25.54L14.78-25.54Q11.58-25.34 9.73-24.58Q7.87-23.81 7.30-22.21L7.30-22.21Q7.55-22.21 7.84-21.57Q8.13-20.93 8.13-20.22L8.13-20.22Q8.13-19.07 7.10-18.40Q6.08-17.73 4.54-17.73L4.54-17.73Q2.75-17.73 1.66-18.69Q0.58-19.65 0.58-21.44L0.58-21.44Q0.58-23.62 2.27-25.41Q3.97-27.20 6.98-28.26Q9.98-29.31 13.63-29.31L13.63-29.31Q14.98-29.31 16.96-29.12L16.96-29.12Q22.21-37.44 28.06-42.72Q33.92-48 39.23-48L39.23-48Q42.30-48 44.29-47.10L44.29-47.10L34.24 0L25.02 0L29.95-23.23Q27.58-24.32 25.60-24.83Q23.62-25.34 21.38-25.54L21.38-25.54Q17.73-17.66 15.39-9.44Q13.06-1.22 13.06 3.71L13.06 3.71Q13.06 6.14 13.95 7.30L13.95 7.30ZM30.53-26.05L34.24-43.46Q31.49-41.98 28.51-37.98Q25.54-33.98 22.72-28.29L22.72-28.29Q27.33-27.39 30.53-26.05L30.53-26.05ZM40.32 0L47.10-32L56.32-32L55.49-28.03Q57.66-29.95 59.42-30.98Q61.18-32 63.23-32L63.23-32Q65.28-32 66.46-30.59Q67.65-29.18 67.65-27.20L67.65-27.20Q67.65-25.34 66.43-23.94Q65.22-22.53 63.04-22.53L63.04-22.53Q61.63-22.53 61.15-23.20Q60.67-23.87 60.42-25.15L60.42-25.15Q60.22-25.98 60.03-26.37Q59.84-26.75 59.33-26.75L59.33-26.75Q57.98-26.75 57.06-26.21Q56.13-25.66 54.66-24.32L54.66-24.32L49.54 0L40.32 0ZM75.97 0.38Q71.23 0.38 68.61-2.08Q65.98-4.54 65.98-9.79L65.98-9.79Q65.98-14.21 67.71-19.52Q69.44-24.83 73.34-28.70Q77.25-32.58 83.26-32.58L83.26-32.58Q90.30-32.58 90.30-26.43L90.30-26.43Q90.30-22.85 88.26-19.84Q86.21-16.83 82.82-15.01Q79.42-13.18 75.58-12.93L75.58-12.93Q75.46-11.01 75.46-10.37L75.46-10.37Q75.46-7.23 76.54-6.11Q77.63-4.99 80.06-4.99L80.06-4.99Q83.52-4.99 85.98-6.59Q88.45-8.19 91.39-11.46L91.39-11.46L93.57-11.46Q86.46 0.38 75.97 0.38L75.97 0.38ZM76.10-16Q78.46-16.13 80.61-17.66Q82.75-19.20 84.06-21.57Q85.38-23.94 85.38-26.56L85.38-26.56Q85.38-29.18 83.78-29.18L83.78-29.18Q81.47-29.18 79.26-25.15Q77.06-21.12 76.10-16L76.10-16ZM123.07 0L127.30-19.71L121.15-43.71Q116.61-41.98 114.11-38.37Q111.62-34.75 111.62-29.50L111.62-29.50Q111.62-27.14 112.06-26.21Q112.51-25.28 112.51-25.15L112.51-25.15Q109.06-25.15 107.36-26.59Q105.66-28.03 105.66-31.36L105.66-31.36Q105.66-35.46 109.02-39.33Q112.38-43.20 117.63-45.60Q122.88-48 128.13-48L128.13-48Q129.02-48 130.69-47.87L130.69-47.87L136.26-24.96L145.73-47.68L149.95-47.68L137.54-19.71L133.31 0L123.07 0ZM154.30 0.26Q149.57 0.26 146.82-2.18Q144.06-4.61 144.06-9.86L144.06-9.86Q144.06-14.21 145.86-19.52Q147.65-24.83 151.62-28.70Q155.58-32.58 161.60-32.58L161.60-32.58Q169.79-32.58 169.79-22.34L169.79-22.34L169.79-22.27Q169.98-22.21 170.50-22.21L170.50-22.21Q172.61-22.21 175.36-23.33Q178.11-24.45 180.35-26.05L180.35-26.05L180.93-24.32Q179.07-22.34 176.10-20.96Q173.12-19.58 169.60-19.01L169.60-19.01Q169.09-13.18 166.98-8.83Q164.86-4.48 161.54-2.11Q158.21 0.26 154.30 0.26L154.30 0.26ZM156.86-5.50Q158.40-5.50 159.94-7.26Q161.47-9.02 162.62-12.06Q163.78-15.10 164.29-18.82L164.29-18.82Q162.56-19.20 162.56-21.50L162.56-21.50Q162.56-24.13 164.54-24.96L164.54-24.96Q164.42-27.07 163.90-27.87Q163.39-28.67 162.11-28.67L162.11-28.67Q160-28.67 158.02-25.60Q156.03-22.53 154.82-18.24Q153.60-13.95 153.60-10.69L153.60-10.69Q153.60-7.62 154.30-6.56Q155.01-5.50 156.86-5.50L156.86-5.50ZM179.39 0.38Q176.32 0.38 174.43-1.54Q172.54-3.46 172.54-7.30L172.54-7.30Q172.54-8.90 173.06-11.46L173.06-11.46L177.41-32L186.62-32L182.02-10.24Q181.82-9.28 181.82-8.45L181.82-8.45Q181.82-5.82 183.74-5.82L183.74-5.82Q185.54-5.82 186.82-7.33Q188.10-8.83 188.86-11.46L188.86-11.46L193.22-32L202.43-32L197.82-10.24Q197.57-9.28 197.57-8.19L197.57-8.19Q197.57-6.91 198.18-6.37Q198.78-5.82 200.19-5.82L200.19-5.82Q201.98-5.82 203.30-7.36Q204.61-8.90 205.38-11.46L205.38-11.46L208.06-11.46Q205.70-4.54 202.21-2.08Q198.72 0.38 195.20 0.38L195.20 0.38Q192.45 0.38 190.82-1.15Q189.18-2.69 188.86-5.70L188.86-5.70Q186.69-2.18 184.29-0.90Q181.89 0.38 179.39 0.38L179.39 0.38ZM247.17 1.09Q242.18 1.09 242.18-3.20L242.18-3.20Q242.18-4.61 242.59-6.43Q243.01-8.26 243.78-11.14L243.78-11.14Q244.67-14.14 245.12-16.26Q245.57-18.37 245.57-20.03L245.57-20.03Q245.57-24.38 241.73-24.38L241.73-24.38Q240.70-24.38 239.62-24.13L239.62-24.13L234.50 0L225.28 0L233.98-40.70L243.46-41.98L240.32-27.20L240.83-27.20Q243.33-27.20 245.44-28.93Q247.55-30.66 248.74-33.25Q249.92-35.84 249.92-38.34L249.92-38.34Q249.92-41.28 248.16-43.17Q246.40-45.06 242.88-45.06L242.88-45.06Q237.70-45.06 233.79-43.20Q229.89-41.34 227.74-37.82Q225.60-34.30 225.60-29.50L225.60-29.50Q225.60-27.14 226.05-26.21Q226.50-25.28 226.50-25.15L226.50-25.15Q223.04-25.15 221.34-26.59Q219.65-28.03 219.65-31.36L219.65-31.36Q219.65-35.46 223.01-39.33Q226.37-43.20 231.62-45.60Q236.86-48 242.11-48L242.11-48Q246.91-48 250.18-46.59Q253.44-45.18 255.04-42.85Q256.64-40.51 256.64-37.76L256.64-37.76Q256.64-34.75 254.78-31.74Q252.93-28.74 249.73-26.82L249.73-26.82Q252.16-26.11 253.15-24.48Q254.14-22.85 254.14-20.42L254.14-20.42Q254.14-18.56 253.70-16.48Q253.25-14.40 252.42-11.33L252.42-11.33Q251.90-9.34 251.46-7.42Q251.01-5.50 251.01-4.22L251.01-4.22Q251.01-2.75 251.68-1.60Q252.35-0.45 253.50 0L253.50 0Q249.60 1.09 247.17 1.09L247.17 1.09ZM266.88 0.38Q262.14 0.38 259.52-2.08Q256.90-4.54 256.90-9.79L256.90-9.79Q256.90-14.21 258.62-19.52Q260.35-24.83 264.26-28.70Q268.16-32.58 274.18-32.58L274.18-32.58Q281.22-32.58 281.22-26.43L281.22-26.43Q281.22-22.85 279.17-19.84Q277.12-16.83 273.73-15.01Q270.34-13.18 266.50-12.93L266.50-12.93Q266.37-11.01 266.37-10.37L266.37-10.37Q266.37-7.23 267.46-6.11Q268.54-4.99 270.98-4.99L270.98-4.99Q274.43-4.99 276.90-6.59Q279.36-8.19 282.30-11.46L282.30-11.46L284.48-11.46Q277.38 0.38 266.88 0.38L266.88 0.38ZM267.01-16Q269.38-16.13 271.52-17.66Q273.66-19.20 274.98-21.57Q276.29-23.94 276.29-26.56L276.29-26.56Q276.29-29.18 274.69-29.18L274.69-29.18Q272.38-29.18 270.18-25.15Q267.97-21.12 267.01-16L267.01-16ZM289.98 0.38Q286.34 0.38 283.90-2.11Q281.47-4.61 281.47-9.92L281.47-9.92Q281.47-14.66 283.36-19.87Q285.25-25.09 288.99-28.70Q292.74-32.32 297.92-32.32L297.92-32.32Q300.54-32.32 301.82-31.42Q303.10-30.53 303.10-29.06L303.10-29.06L303.10-28.61L303.81-32L313.02-32L308.42-10.24Q308.16-9.28 308.16-8.19L308.16-8.19Q308.16-5.44 310.78-5.44L310.78-5.44Q312.58-5.44 313.89-7.10Q315.20-8.77 315.97-11.46L315.97-11.46L318.66-11.46Q316.29-4.54 312.80-2.08Q309.31 0.38 305.79 0.38L305.79 0.38Q303.10 0.38 301.47-1.12Q299.84-2.62 299.52-5.50L299.52-5.50Q297.66-2.88 295.39-1.25Q293.12 0.38 289.98 0.38L289.98 0.38ZM294.14-5.82Q295.74-5.82 297.31-7.33Q298.88-8.83 299.46-11.46L299.46-11.46L302.53-25.92Q302.53-26.75 301.89-27.55Q301.25-28.35 299.90-28.35L299.90-28.35Q297.34-28.35 295.30-25.38Q293.25-22.40 292.10-18.21Q290.94-14.02 290.94-10.82L290.94-10.82Q290.94-7.62 291.87-6.72Q292.80-5.82 294.14-5.82L294.14-5.82ZM322.30 0.38Q319.23 0.38 317.34-1.54Q315.46-3.46 315.46-7.30L315.46-7.30Q315.46-8.90 315.97-11.46L315.97-11.46L322.82-43.52L332.29-44.80L324.93-10.24Q324.67-9.28 324.67-8.19L324.67-8.19Q324.67-6.91 325.28-6.37Q325.89-5.82 327.30-5.82L327.30-5.82Q329.15-5.82 330.75-7.39Q332.35-8.96 333.06-11.46L333.06-11.46L335.74-11.46Q333.38-4.54 329.66-2.08Q325.95 0.38 322.30 0.38L322.30 0.38ZM339.39 0.38Q336.32 0.38 334.43-1.54Q332.54-3.46 332.54-7.30L332.54-7.30Q332.54-8.90 333.06-11.46L333.06-11.46L339.90-43.52L349.38-44.80L342.02-10.24Q341.76-9.28 341.76-8.19L341.76-8.19Q341.76-6.91 342.37-6.37Q342.98-5.82 344.38-5.82L344.38-5.82Q346.24-5.82 347.84-7.39Q349.44-8.96 350.14-11.46L350.14-11.46L352.83-11.46Q350.46-4.54 346.75-2.08Q343.04 0.38 339.39 0.38L339.39 0.38ZM360.13 16Q357.06 16 355.01 14.40Q352.96 12.80 352.96 9.79L352.96 9.79Q352.96 6.14 355.90 3.94Q358.85 1.73 363.39 0.26L363.39 0.26L364.16-3.20Q362.30-1.15 360.38-0.38Q358.46 0.38 356.48 0.38L356.48 0.38Q353.41 0.38 351.52-1.54Q349.63-3.46 349.63-7.30L349.63-7.30Q349.63-8.90 350.14-11.46L350.14-11.46L354.50-32L363.71-32L359.10-10.24Q358.91-9.47 358.91-8.64L358.91-8.64Q358.91-5.82 360.83-5.82L360.83-5.82Q362.50-5.82 363.78-7.26Q365.06-8.70 365.82-11.07L365.82-11.07L370.30-32L379.52-32L373.18-2.30Q376.26-3.33 378.11-5.38Q379.97-7.42 381.25-11.46L381.25-11.46L383.94-11.46Q382.21-5.76 379.26-3.10Q376.32-0.45 372.61 0.51L372.61 0.51L371.65 5.12Q370.37 11.33 367.23 13.66Q364.10 16 360.13 16L360.13 16ZM358.66 11.01Q359.74 11.01 360.77 9.54Q361.79 8.06 362.37 5.31L362.37 5.31L362.75 3.46Q356.48 5.76 356.48 8.90L356.48 8.90Q356.48 9.73 357.06 10.37Q357.63 11.01 358.66 11.01L358.66 11.01ZM430.91 16Q428.03 16 425.25 14.37Q422.46 12.74 418.18 9.34L418.18 9.34Q414.98 6.78 412.70 5.22Q410.43 3.65 407.78 2.56Q405.12 1.47 402.37 1.47L402.37 1.47Q401.41 1.47 400.90 1.54L400.90 1.54L410.43-42.82Q406.14-41.09 403.81-37.54Q401.47-33.98 401.47-28.86L401.47-28.86Q401.47-26.50 401.92-25.57Q402.37-24.64 402.37-24.51L402.37-24.51Q398.91-24.51 397.22-25.95Q395.52-27.39 395.52-30.72L395.52-30.72Q395.52-34.82 398.88-38.69Q402.24-42.56 407.49-44.96Q412.74-47.36 417.98-47.36L417.98-47.36Q418.88-47.36 420.54-47.23L420.54-47.23L410.69-1.28Q412.48-0.83 414.37 0.03Q416.26 0.90 418.94 2.37L418.94 2.37Q423.10 4.61 426.05 5.79Q428.99 6.98 432.19 6.98L432.19 6.98Q435.07 6.98 437.57 5.95L437.57 5.95Q437.06 10.62 435.30 13.31Q433.54 16 430.91 16L430.91 16ZM428.54 0.38Q423.81 0.38 421.18-2.08Q418.56-4.54 418.56-9.79L418.56-9.79Q418.56-14.21 420.29-19.52Q422.02-24.83 425.92-28.70Q429.82-32.58 435.84-32.58L435.84-32.58Q442.88-32.58 442.88-26.43L442.88-26.43Q442.88-22.85 440.83-19.84Q438.78-16.83 435.39-15.01Q432.00-13.18 428.16-12.93L428.16-12.93Q428.03-11.01 428.03-10.37L428.03-10.37Q428.03-7.23 429.12-6.11Q430.21-4.99 432.64-4.99L432.64-4.99Q436.10-4.99 438.56-6.59Q441.02-8.19 443.97-11.46L443.97-11.46L446.14-11.46Q439.04 0.38 428.54 0.38L428.54 0.38ZM428.67-16Q431.04-16.13 433.18-17.66Q435.33-19.20 436.64-21.57Q437.95-23.94 437.95-26.56L437.95-26.56Q437.95-29.18 436.35-29.18L436.35-29.18Q434.05-29.18 431.84-25.15Q429.63-21.12 428.67-16L428.67-16ZM438.21 16Q435.20 16 432.93 14.05Q430.66 12.10 430.66 9.09L430.66 9.09Q430.66 6.34 432.06 4.54Q433.47 2.75 435.71 1.70Q437.95 0.64 441.66-0.51L441.66-0.51L449.41-37.06Q450.69-43.20 453.92-45.57Q457.15-47.94 461.06-47.94L461.06-47.94Q464.06-47.94 466.34-45.98Q468.61-44.03 468.61-41.02L468.61-41.02Q468.61-39.55 468.42-38.40L468.42-38.40L465.41-38.40Q465.54-39.81 465.54-40.13L465.54-40.13Q465.54-41.15 464.83-41.73Q464.13-42.30 463.10-42.30L463.10-42.30Q461.76-42.30 460.48-41.12Q459.20-39.94 458.62-37.06L458.62-37.06L457.54-32L462.21-32L461.76-29.44L457.02-29.44L449.66 5.12Q448.38 11.33 445.25 13.66Q442.11 16 438.21 16L438.21 16ZM436.74 10.30Q439.30 10.30 440.38 5.31L440.38 5.31L441.22 1.60Q437.82 2.75 436.00 4.26Q434.18 5.76 434.18 8.19L434.18 8.19Q434.18 8.96 434.94 9.63Q435.71 10.30 436.74 10.30L436.74 10.30ZM467.39 0.38Q464.32 0.38 462.43-1.54Q460.54-3.46 460.54-7.30L460.54-7.30Q460.54-8.90 461.06-11.46L461.06-11.46L464.90-29.44L462.78-29.44L463.30-32L465.41-32L467.33-40.83L476.80-42.11L474.62-32L478.46-32L477.95-29.44L474.11-29.44L470.02-10.24Q469.76-9.28 469.76-8.19L469.76-8.19Q469.76-6.91 470.37-6.37Q470.98-5.82 472.38-5.82L472.38-5.82Q474.24-5.82 475.84-7.39Q477.44-8.96 478.14-11.46L478.14-11.46L480.83-11.46Q478.46-4.54 474.75-2.08Q471.04 0.38 467.39 0.38L467.39 0.38ZM508.93 0L507.90-43.71Q503.36-41.98 500.86-38.37Q498.37-34.75 498.37-29.50L498.37-29.50Q498.37-27.14 498.82-26.21Q499.26-25.28 499.26-25.15L499.26-25.15Q495.81-25.15 494.11-26.59Q492.42-28.03 492.42-31.36L492.42-31.36Q492.42-35.46 495.78-39.33Q499.14-43.20 504.38-45.60Q509.63-48 514.88-48L514.88-48Q515.78-48 517.44-47.87L517.44-47.87L518.02-8.51L531.46-47.68L539.58-47.68L540.16-8.51L553.60-47.68L558.08-47.68L540.29 0L531.07 0L530.30-32.58L518.14 0L508.93 0ZM564.29-35.46Q562.18-35.46 560.70-36.93Q559.23-38.40 559.23-40.51L559.23-40.51Q559.23-42.62 560.70-44.13Q562.18-45.63 564.29-45.63L564.29-45.63Q566.40-45.63 567.90-44.13Q569.41-42.62 569.41-40.51L569.41-40.51Q569.41-38.40 567.90-36.93Q566.40-35.46 564.29-35.46L564.29-35.46ZM559.94 0.38Q556.86 0.38 554.98-1.54Q553.09-3.46 553.09-7.30L553.09-7.30Q553.09-8.90 553.60-11.46L553.60-11.46L557.95-32L567.17-32L562.56-10.24Q562.30-9.28 562.30-8.19L562.30-8.19Q562.30-6.91 562.91-6.37Q563.52-5.82 564.93-5.82L564.93-5.82Q566.78-5.82 568.38-7.39Q569.98-8.96 570.69-11.46L570.69-11.46L573.38-11.46Q571.01-4.54 567.30-2.08Q563.58 0.38 559.94 0.38L559.94 0.38ZM593.79 0.38Q589.89 0.38 588.06-1.70Q586.24-3.78 586.24-6.85L586.24-6.85Q586.24-8.19 586.56-9.89Q586.88-11.58 587.23-13.18Q587.58-14.78 587.71-15.23L587.71-15.23Q588.22-17.47 588.67-19.65Q589.12-21.82 589.12-23.17L589.12-23.17Q589.12-26.43 586.82-26.43L586.82-26.43Q585.15-26.43 583.87-24.80Q582.59-23.17 581.82-20.54L581.82-20.54L577.47 0L568.26 0L575.04-32L584.26-32L583.55-28.67Q586.75-32.26 591.04-32.26L591.04-32.26Q594.30-32.26 596.22-30.46Q598.14-28.67 598.14-25.02L598.14-25.02Q598.14-23.17 597.70-20.90Q597.25-18.62 596.42-15.36L596.42-15.36Q595.90-13.38 595.49-11.49Q595.07-9.60 595.07-8.51L595.07-8.51Q595.07-7.23 595.65-6.53Q596.22-5.82 597.63-5.82L597.63-5.82Q599.55-5.82 600.70-7.20Q601.86-8.58 603.01-11.46L603.01-11.46L605.70-11.46Q603.33-4.42 600.22-2.02Q597.12 0.38 593.79 0.38L593.79 0.38ZM614.34 16Q611.26 16 609.22 14.40Q607.17 12.80 607.17 9.79L607.17 9.79Q607.17 6.14 610.11 3.94Q613.06 1.73 617.60 0.26L617.60 0.26L618.37-3.14Q615.10 0.38 610.69 0.38L610.69 0.38Q607.04 0.38 604.61-2.11Q602.18-4.61 602.18-9.92L602.18-9.92Q602.18-14.66 604.06-19.87Q605.95-25.09 609.70-28.70Q613.44-32.32 618.62-32.32L618.62-32.32Q621.25-32.32 622.53-31.42Q623.81-30.53 623.81-29.06L623.81-29.06L623.81-28.67L624.51-32L633.73-32L627.39-2.30Q630.46-3.33 632.32-5.38Q634.18-7.42 635.46-11.46L635.46-11.46L638.14-11.46Q636.42-5.76 633.47-3.10Q630.53-0.45 626.82 0.51L626.82 0.51L625.86 5.12Q624.58 11.33 621.44 13.66Q618.30 16 614.34 16L614.34 16ZM614.85-5.82Q616.32-5.82 617.86-7.17Q619.39-8.51 619.97-10.82L619.97-10.82L623.23-25.98Q623.23-26.75 622.59-27.55Q621.95-28.35 620.61-28.35L620.61-28.35Q618.05-28.35 616.00-25.38Q613.95-22.40 612.80-18.21Q611.65-14.02 611.65-10.82L611.65-10.82Q611.65-7.62 612.58-6.72Q613.50-5.82 614.85-5.82L614.85-5.82ZM612.86 11.01Q613.95 11.01 614.98 9.54Q616.00 8.06 616.58 5.31L616.58 5.31L616.96 3.46Q610.69 5.76 610.69 8.90L610.69 8.90Q610.69 9.73 611.26 10.37Q611.84 11.01 612.86 11.01L612.86 11.01ZM642.18-14.85Q642.18-17.92 643.10-20.38Q644.03-22.85 645.34-24.64Q646.66-26.43 648.77-28.80L648.77-28.80Q651.52-31.87 652.90-34.21Q654.27-36.54 654.27-39.68L654.27-39.68Q654.27-42.43 653.18-43.97Q652.10-45.50 650.05-45.50L650.05-45.50Q647.94-45.50 646.50-44Q645.06-42.50 645.06-40.26L645.06-40.26Q645.06-38.59 645.89-37.22Q646.72-35.84 648.13-35.20L648.13-35.20L648.13-34.94Q646.98-33.92 645.73-33.34Q644.48-32.77 643.33-32.77L643.33-32.77Q641.28-32.77 639.97-34.27Q638.66-35.78 638.66-38.14L638.66-38.14Q638.66-41.15 640.42-43.58Q642.18-46.02 645.18-47.42Q648.19-48.83 651.90-48.83L651.90-48.83Q657.09-48.83 660.10-46.46Q663.10-44.10 663.10-40L663.10-40Q663.10-37.50 662.02-35.42Q660.93-33.34 659.30-31.74Q657.66-30.14 654.98-27.97L654.98-27.97Q652.10-25.54 650.43-23.87Q648.77-22.21 647.58-19.94Q646.40-17.66 646.40-14.85L646.40-14.85L642.18-14.85ZM643.52 0Q641.47 0 639.94-1.50Q638.40-3.01 638.40-5.12L638.40-5.12Q638.40-7.23 639.90-8.70Q641.41-10.18 643.52-10.18L643.52-10.18Q645.63-10.18 647.14-8.70Q648.64-7.23 648.64-5.12L648.64-5.12Q648.64-3.01 647.14-1.50Q645.63 0 643.52 0L643.52 0Z" fill="#c0392b"/></svg>
