<svg xmlns="http://www.w3.org/2000/svg" viewBox="-3.42 -52.00 506.11 63.30" width="336" height="42"><path d="M13.95 7.30Q11.58 7.30 9.79 6.91Q8 6.53 6.69 5.06Q5.38 3.58 5.38 0.51L5.38 0.51Q5.38-3.78 7.97-11.01Q10.56-18.24 14.78-25.54L14.78-25.54Q11.58-25.34 9.73-24.58Q7.87-23.81 7.30-22.21L7.30-22.21Q7.55-22.21 7.84-21.57Q8.13-20.93 8.13-20.22L8.13-20.22Q8.13-19.07 7.10-18.40Q6.08-17.73 4.54-17.73L4.54-17.73Q2.75-17.73 1.66-18.69Q0.58-19.65 0.58-21.44L0.58-21.44Q0.58-23.62 2.27-25.41Q3.97-27.20 6.98-28.26Q9.98-29.31 13.63-29.31L13.63-29.31Q14.98-29.31 16.96-29.12L16.96-29.12Q22.21-37.44 28.06-42.72Q33.92-48 39.23-48L39.23-48Q42.30-48 44.29-47.10L44.29-47.10L34.24 0L25.02 0L29.95-23.23Q27.58-24.32 25.60-24.83Q23.62-25.34 21.38-25.54L21.38-25.54Q17.73-17.66 15.39-9.44Q13.06-1.22 13.06 3.71L13.06 3.71Q13.06 6.14 13.95 7.30L13.95 7.30ZM30.53-26.05L34.24-43.46Q31.49-41.98 28.51-37.98Q25.54-33.98 22.72-28.29L22.72-28.29Q27.33-27.39 30.53-26.05L30.53-26.05ZM50.05 0.38Q46.34 0.38 44.26-1.50Q42.18-3.39 42.18-7.17L42.18-7.17Q42.18-8.70 42.50-10.24L42.50-10.24L47.10-32L56.32-32L51.71-10.24Q51.39-8.64 51.39-7.94L51.39-7.94Q51.39-5.82 53.57-5.82L53.57-5.82Q56.51-5.82 59.04-9.54Q61.57-13.25 63.10-18.37Q64.64-23.49 64.64-27.20L64.64-27.20Q64.51-26.88 63.81-26.72Q63.10-26.56 62.59-26.56L62.59-26.56Q61.50-26.56 60.90-27.58Q60.29-28.61 60.29-29.82L60.29-29.82Q60.29-31.36 61.28-32.32Q62.27-33.28 64.26-33.28L64.26-33.28Q66.37-33.28 67.33-31.71Q68.29-30.14 68.29-27.71L68.29-27.71Q68.29-21.95 66.30-15.39Q64.32-8.83 60.22-4.22Q56.13 0.38 50.05 0.38L50.05 0.38ZM76.93 0.38Q73.28 0.38 70.85-2.11Q68.42-4.61 68.42-9.92L68.42-9.92Q68.42-14.66 70.30-19.87Q72.19-25.09 75.94-28.70Q79.68-32.32 84.86-32.32L84.86-32.32Q87.49-32.32 88.77-31.42Q90.05-30.53 90.05-29.06L90.05-29.06L90.05-28.61L90.75-32L99.97-32L95.36-10.24Q95.10-9.28 95.10-8.19L95.10-8.19Q95.10-5.44 97.73-5.44L97.73-5.44Q99.52-5.44 100.83-7.10Q102.14-8.77 102.91-11.46L102.91-11.46L105.60-11.46Q103.23-4.54 99.74-2.08Q96.26 0.38 92.74 0.38L92.74 0.38Q90.05 0.38 88.42-1.12Q86.78-2.62 86.46-5.50L86.46-5.50Q84.61-2.88 82.34-1.25Q80.06 0.38 76.93 0.38L76.93 0.38ZM81.09-5.82Q82.69-5.82 84.26-7.33Q85.82-8.83 86.40-11.46L86.40-11.46L89.47-25.92Q89.47-26.75 88.83-27.55Q88.19-28.35 86.85-28.35L86.85-28.35Q84.29-28.35 82.24-25.38Q80.19-22.40 79.04-18.21Q77.89-14.02 77.89-10.82L77.89-10.82Q77.89-7.62 78.82-6.72Q79.74-5.82 81.09-5.82L81.09-5.82ZM109.25 0.38Q106.18 0.38 104.29-1.54Q102.40-3.46 102.40-7.30L102.40-7.30Q102.40-8.90 102.91-11.46L102.91-11.46L106.75-29.44L104.64-29.44L105.15-32L107.26-32L109.18-40.83L118.66-42.11L116.48-32L120.32-32L119.81-29.44L115.97-29.44L111.87-10.24Q111.62-9.28 111.62-8.19L111.62-8.19Q111.62-6.91 112.22-6.37Q112.83-5.82 114.24-5.82L114.24-5.82Q116.10-5.82 117.70-7.39Q119.30-8.96 120-11.46L120-11.46L122.69-11.46Q120.32-4.54 116.61-2.08Q112.90 0.38 109.25 0.38L109.25 0.38ZM127.68 0.38Q124.03 0.38 121.60-2.11Q119.17-4.61 119.17-9.92L119.17-9.92Q119.17-14.66 121.06-19.87Q122.94-25.09 126.69-28.70Q130.43-32.32 135.62-32.32L135.62-32.32Q138.24-32.32 139.52-31.42Q140.80-30.53 140.80-29.06L140.80-29.06L140.80-28.61L141.50-32L150.72-32L146.11-10.24Q145.86-9.28 145.86-8.19L145.86-8.19Q145.86-5.44 148.48-5.44L148.48-5.44Q150.27-5.44 151.58-7.10Q152.90-8.77 153.66-11.46L153.66-11.46L156.35-11.46Q153.98-4.54 150.50-2.08Q147.01 0.38 143.49 0.38L143.49 0.38Q140.80 0.38 139.17-1.12Q137.54-2.62 137.22-5.50L137.22-5.50Q135.36-2.88 133.09-1.25Q130.82 0.38 127.68 0.38L127.68 0.38ZM131.84-5.82Q133.44-5.82 135.01-7.33Q136.58-8.83 137.15-11.46L137.15-11.46L140.22-25.92Q140.22-26.75 139.58-27.55Q138.94-28.35 137.60-28.35L137.60-28.35Q135.04-28.35 132.99-25.38Q130.94-22.40 129.79-18.21Q128.64-14.02 128.64-10.82L128.64-10.82Q128.64-7.62 129.57-6.72Q130.50-5.82 131.84-5.82L131.84-5.82ZM151.23 0L158.02-32L167.23-32L166.40-28.03Q168.58-29.95 170.34-30.98Q172.10-32 174.14-32L174.14-32Q176.19-32 177.38-30.59Q178.56-29.18 178.56-27.20L178.56-27.20Q178.56-25.34 177.34-23.94Q176.13-22.53 173.95-22.53L173.95-22.53Q172.54-22.53 172.06-23.20Q171.58-23.87 171.33-25.15L171.33-25.15Q171.14-25.98 170.94-26.37Q170.75-26.75 170.24-26.75L170.24-26.75Q168.90-26.75 167.97-26.21Q167.04-25.66 165.57-24.32L165.57-24.32L160.45 0L151.23 0ZM215.17 0.83Q211.33 0.83 207.36-2.56L207.36-2.56L206.85 0L197.63 0L206.34-40.70L215.81-41.98L208.13-6.08Q209.92-4.80 211.78-4.80L211.78-4.80Q215.42-4.80 218.21-9.02Q220.99-13.25 222.53-19.78Q224.06-26.30 224.06-32.96L224.06-32.96Q224.06-39.23 221.60-42.14Q219.14-45.06 214.72-45.06L214.72-45.06Q209.92-45.06 206.11-43.17Q202.30-41.28 200.13-37.76Q197.95-34.24 197.95-29.50L197.95-29.50Q197.95-27.14 198.40-26.21Q198.85-25.28 198.85-25.15L198.85-25.15Q195.52-25.15 193.76-26.56Q192.00-27.97 192.00-31.10L192.00-31.10Q192.00-35.46 195.26-39.36Q198.53-43.26 204-45.63Q209.47-48 215.81-48L215.81-48Q224.58-48 228.74-42.82Q232.90-37.63 232.90-29.57L232.90-29.57Q232.90-22.27 230.43-15.20Q227.97-8.13 223.87-3.65Q219.78 0.83 215.17 0.83L215.17 0.83ZM243.39 0.26Q238.66 0.26 235.90-2.18Q233.15-4.61 233.15-9.86L233.15-9.86Q233.15-14.21 234.94-19.52Q236.74-24.83 240.70-28.70Q244.67-32.58 250.69-32.58L250.69-32.58Q258.88-32.58 258.88-22.34L258.88-22.34L258.88-22.27Q259.07-22.21 259.58-22.21L259.58-22.21Q261.70-22.21 264.45-23.33Q267.20-24.45 269.44-26.05L269.44-26.05L270.02-24.32Q268.16-22.34 265.18-20.96Q262.21-19.58 258.69-19.01L258.69-19.01Q258.18-13.18 256.06-8.83Q253.95-4.48 250.62-2.11Q247.30 0.26 243.39 0.26L243.39 0.26ZM245.95-5.50Q247.49-5.50 249.02-7.26Q250.56-9.02 251.71-12.06Q252.86-15.10 253.38-18.82L253.38-18.82Q251.65-19.20 251.65-21.50L251.65-21.50Q251.65-24.13 253.63-24.96L253.63-24.96Q253.50-27.07 252.99-27.87Q252.48-28.67 251.20-28.67L251.20-28.67Q249.09-28.67 247.10-25.60Q245.12-22.53 243.90-18.24Q242.69-13.95 242.69-10.69L242.69-10.69Q242.69-7.62 243.39-6.56Q244.10-5.50 245.95-5.50L245.95-5.50ZM268.48 0.38Q265.41 0.38 263.52-1.54Q261.63-3.46 261.63-7.30L261.63-7.30Q261.63-8.90 262.14-11.46L262.14-11.46L266.50-32L275.71-32L271.10-10.24Q270.91-9.47 270.91-8.64L270.91-8.64Q270.91-5.82 272.83-5.82L272.83-5.82Q274.62-5.82 275.90-7.33Q277.18-8.83 277.95-11.46L277.95-11.46L282.30-32L291.52-32L286.91-10.24Q286.59-8.64 286.59-7.94L286.59-7.94Q286.59-5.82 288.77-5.82L288.77-5.82Q291.71-5.82 294.24-9.54Q296.77-13.25 298.30-18.37Q299.84-23.49 299.84-27.20L299.84-27.20Q299.71-26.88 299.01-26.72Q298.30-26.56 297.79-26.56L297.79-26.56Q296.70-26.56 296.10-27.58Q295.49-28.61 295.49-29.82L295.49-29.82Q295.49-31.36 296.48-32.32Q297.47-33.28 299.46-33.28L299.46-33.28Q301.57-33.28 302.53-31.71Q303.49-30.14 303.49-27.71L303.49-27.71Q303.49-21.95 301.50-15.39Q299.52-8.83 295.42-4.22Q291.33 0.38 285.25 0.38L285.25 0.38Q282.11 0.38 280.13-0.96Q278.14-2.30 277.57-4.99L277.57-4.99Q273.98 0.38 268.48 0.38L268.48 0.38ZM327.55 0.38Q323.65 0.38 321.82-1.70Q320-3.78 320-6.85L320-6.85Q320-8.19 320.32-9.89Q320.64-11.58 320.99-13.18Q321.34-14.78 321.47-15.23L321.47-15.23Q321.98-17.47 322.43-19.65Q322.88-21.82 322.88-23.17L322.88-23.17Q322.88-26.43 320.58-26.43L320.58-26.43Q318.91-26.43 317.63-24.80Q316.35-23.17 315.58-20.54L315.58-20.54L311.23 0L302.02 0L308.80-32L318.02-32L317.31-28.67Q320.51-32.26 324.80-32.26L324.80-32.26Q328.06-32.26 329.98-30.46Q331.90-28.67 331.90-25.02L331.90-25.02Q331.90-23.17 331.46-20.90Q331.01-18.62 330.18-15.36L330.18-15.36Q329.66-13.38 329.25-11.49Q328.83-9.60 328.83-8.51L328.83-8.51Q328.83-7.23 329.41-6.53Q329.98-5.82 331.39-5.82L331.39-5.82Q333.31-5.82 334.46-7.20Q335.62-8.58 336.77-11.46L336.77-11.46L339.46-11.46Q337.09-4.42 333.98-2.02Q330.88 0.38 327.55 0.38L327.55 0.38ZM343.10 0.38Q340.03 0.38 338.14-1.54Q336.26-3.46 336.26-7.30L336.26-7.30Q336.26-8.90 336.77-11.46L336.77-11.46L343.62-43.52L353.09-44.80L345.73-10.24Q345.47-9.28 345.47-8.19L345.47-8.19Q345.47-6.91 346.08-6.37Q346.69-5.82 348.10-5.82L348.10-5.82Q349.95-5.82 351.55-7.39Q353.15-8.96 353.86-11.46L353.86-11.46L356.54-11.46Q354.18-4.54 350.46-2.08Q346.75 0.38 343.10 0.38L343.10 0.38ZM363.20 0.26Q358.46 0.26 355.71-2.18Q352.96-4.61 352.96-9.86L352.96-9.86Q352.96-14.21 354.75-19.52Q356.54-24.83 360.51-28.70Q364.48-32.58 370.50-32.58L370.50-32.58Q378.69-32.58 378.69-22.34L378.69-22.34L378.69-22.27Q378.88-22.21 379.39-22.21L379.39-22.21Q381.50-22.21 384.26-23.33Q387.01-24.45 389.25-26.05L389.25-26.05L389.82-24.32Q387.97-22.34 384.99-20.96Q382.02-19.58 378.50-19.01L378.50-19.01Q377.98-13.18 375.87-8.83Q373.76-4.48 370.43-2.11Q367.10 0.26 363.20 0.26L363.20 0.26ZM365.76-5.50Q367.30-5.50 368.83-7.26Q370.37-9.02 371.52-12.06Q372.67-15.10 373.18-18.82L373.18-18.82Q371.46-19.20 371.46-21.50L371.46-21.50Q371.46-24.13 373.44-24.96L373.44-24.96Q373.31-27.07 372.80-27.87Q372.29-28.67 371.01-28.67L371.01-28.67Q368.90-28.67 366.91-25.60Q364.93-22.53 363.71-18.24Q362.50-13.95 362.50-10.69L362.50-10.69Q362.50-7.62 363.20-6.56Q363.90-5.50 365.76-5.50L365.76-5.50ZM389.63 0.38Q385.98 0.38 383.55-2.11Q381.12-4.61 381.12-9.92L381.12-9.92Q381.12-14.66 383.01-19.87Q384.90-25.09 388.64-28.70Q392.38-32.32 397.57-32.32L397.57-32.32Q400.19-32.32 401.47-31.42Q402.75-30.53 402.75-29.06L402.75-29.06L402.75-28.61L403.46-32L412.67-32L408.06-10.24Q407.81-9.28 407.81-8.19L407.81-8.19Q407.81-5.44 410.43-5.44L410.43-5.44Q412.22-5.44 413.54-7.10Q414.85-8.77 415.62-11.46L415.62-11.46L418.30-11.46Q415.94-4.54 412.45-2.08Q408.96 0.38 405.44 0.38L405.44 0.38Q402.75 0.38 401.12-1.12Q399.49-2.62 399.17-5.50L399.17-5.50Q397.31-2.88 395.04-1.25Q392.77 0.38 389.63 0.38L389.63 0.38ZM393.79-5.82Q395.39-5.82 396.96-7.33Q398.53-8.83 399.10-11.46L399.10-11.46L402.18-25.92Q402.18-26.75 401.54-27.55Q400.90-28.35 399.55-28.35L399.55-28.35Q396.99-28.35 394.94-25.38Q392.90-22.40 391.74-18.21Q390.59-14.02 390.59-10.82L390.59-10.82Q390.59-7.62 391.52-6.72Q392.45-5.82 393.79-5.82L393.79-5.82ZM423.30 0.38Q419.65 0.38 417.22-2.11Q414.78-4.61 414.78-9.92L414.78-9.92Q414.78-14.66 416.67-19.87Q418.56-25.09 422.30-28.70Q426.05-32.32 431.23-32.32L431.23-32.32Q433.86-32.32 435.14-31.42Q436.42-30.53 436.42-29.06L436.42-29.06L436.42-28.80L439.55-43.52L449.02-44.80L441.66-10.24Q441.41-9.28 441.41-8.19L441.41-8.19Q441.41-6.91 442.02-6.37Q442.62-5.82 444.03-5.82L444.03-5.82Q445.82-5.82 447.14-7.36Q448.45-8.90 449.22-11.46L449.22-11.46L451.90-11.46Q448 0 439.04 0L439.04 0Q436.42 0 434.78-1.41Q433.15-2.82 432.77-5.50L432.77-5.50Q431.10-2.94 428.77-1.28Q426.43 0.38 423.30 0.38L423.30 0.38ZM427.46-5.82Q428.99-5.82 430.56-7.23Q432.13-8.64 432.70-11.14L432.70-11.14L432.70-11.46L435.84-26.11Q435.26-28.35 433.22-28.35L433.22-28.35Q430.66-28.35 428.61-25.38Q426.56-22.40 425.41-18.21Q424.26-14.02 424.26-10.82L424.26-10.82Q424.26-7.62 425.18-6.72Q426.11-5.82 427.46-5.82L427.46-5.82ZM458.37 0.38Q453.63 0.38 451.01-2.08Q448.38-4.54 448.38-9.79L448.38-9.79Q448.38-14.21 450.11-19.52Q451.84-24.83 455.74-28.70Q459.65-32.58 465.66-32.58L465.66-32.58Q472.70-32.58 472.70-26.43L472.70-26.43Q472.70-22.85 470.66-19.84Q468.61-16.83 465.22-15.01Q461.82-13.18 457.98-12.93L457.98-12.93Q457.86-11.01 457.86-10.37L457.86-10.37Q457.86-7.23 458.94-6.11Q460.03-4.99 462.46-4.99L462.46-4.99Q465.92-4.99 468.38-6.59Q470.85-8.19 473.79-11.46L473.79-11.46L475.97-11.46Q468.86 0.38 458.37 0.38L458.37 0.38ZM458.50-16Q460.86-16.13 463.01-17.66Q465.15-19.20 466.46-21.57Q467.78-23.94 467.78-26.56L467.78-26.56Q467.78-29.18 466.18-29.18L466.18-29.18Q463.87-29.18 461.66-25.15Q459.46-21.12 458.50-16L458.50-16ZM471.36 0L478.14-32L487.36-32L486.53-28.03Q488.70-29.95 490.46-30.98Q492.22-32 494.27-32L494.27-32Q496.32-32 497.50-30.59Q498.69-29.18 498.69-27.20L498.69-27.20Q498.69-25.34 497.47-23.94Q496.26-22.53 494.08-22.53L494.08-22.53Q492.67-22.53 492.19-23.20Q491.71-23.87 491.46-25.15L491.46-25.15Q491.26-25.98 491.07-26.37Q490.88-26.75 490.37-26.75L490.37-26.75Q489.02-26.75 488.10-26.21Q487.17-25.66 485.70-24.32L485.70-24.32L480.58 0L471.36 0Z" fill="#6c5ce7"/></svg>
