<svg xmlns="http://www.w3.org/2000/svg" viewBox="-2.78 -52.00 334.46 72.00" width="195" height="42"><path d="M15.23 1.02Q8 1.02 4.61-2.62Q1.22-6.27 1.22-14.72L1.22-14.72Q1.22-21.44 3.49-29.18Q5.76-36.93 10.78-42.46Q15.81-48 23.55-48L23.55-48Q28.35-48 31.30-45.89Q34.24-43.78 34.24-39.42L34.24-39.42Q34.24-36.67 33.15-35.10Q32.06-33.54 29.76-33.54L29.76-33.54Q27.46-33.54 26.11-35.20L26.11-35.20Q27.26-35.78 28.16-37.50Q29.06-39.23 29.06-41.09L29.06-41.09Q29.06-42.82 28.13-43.90Q27.20-44.99 25.15-44.99L25.15-44.99Q21.76-44.99 18.69-40.35Q15.62-35.71 13.73-28.67Q11.84-21.63 11.84-15.10L11.84-15.10Q11.84-10.24 13.50-7.68Q15.17-5.12 19.52-5.12L19.52-5.12Q23.30-5.12 26.50-6.78Q29.70-8.45 32-11.52L32-11.52L33.47-10.88Q31.87-6.85 28.74-4.16Q25.60-1.47 22.02-0.22Q18.43 1.02 15.23 1.02L15.23 1.02ZM39.49 0.38Q35.84 0.38 33.41-2.11Q30.98-4.61 30.98-9.92L30.98-9.92Q30.98-14.66 32.86-19.87Q34.75-25.09 38.50-28.70Q42.24-32.32 47.42-32.32L47.42-32.32Q50.05-32.32 51.33-31.42Q52.61-30.53 52.61-29.06L52.61-29.06L52.61-28.61L53.31-32L62.53-32L57.92-10.24Q57.66-9.28 57.66-8.19L57.66-8.19Q57.66-5.44 60.29-5.44L60.29-5.44Q62.08-5.44 63.39-7.10Q64.70-8.77 65.47-11.46L65.47-11.46L68.16-11.46Q65.79-4.54 62.30-2.08Q58.82 0.38 55.30 0.38L55.30 0.38Q52.61 0.38 50.98-1.12Q49.34-2.62 49.02-5.50L49.02-5.50Q47.17-2.88 44.90-1.25Q42.62 0.38 39.49 0.38L39.49 0.38ZM43.65-5.82Q45.25-5.82 46.82-7.33Q48.38-8.83 48.96-11.46L48.96-11.46L52.03-25.92Q52.03-26.75 51.39-27.55Q50.75-28.35 49.41-28.35L49.41-28.35Q46.85-28.35 44.80-25.38Q42.75-22.40 41.60-18.21Q40.45-14.02 40.45-10.82L40.45-10.82Q40.45-7.62 41.38-6.72Q42.30-5.82 43.65-5.82L43.65-5.82ZM63.04 0L69.82-32L79.04-32L78.21-28.03Q80.38-29.95 82.14-30.98Q83.90-32 85.95-32L85.95-32Q88-32 89.18-30.59Q90.37-29.18 90.37-27.20L90.37-27.20Q90.37-25.34 89.15-23.94Q87.94-22.53 85.76-22.53L85.76-22.53Q84.35-22.53 83.87-23.20Q83.39-23.87 83.14-25.15L83.14-25.15Q82.94-25.98 82.75-26.37Q82.56-26.75 82.05-26.75L82.05-26.75Q80.70-26.75 79.78-26.21Q78.85-25.66 77.38-24.32L77.38-24.32L72.26 0L63.04 0ZM97.22 0.38Q93.57 0.38 91.14-2.11Q88.70-4.61 88.70-9.92L88.70-9.92Q88.70-14.66 90.59-19.87Q92.48-25.09 96.22-28.70Q99.97-32.32 105.15-32.32L105.15-32.32Q107.78-32.32 109.06-31.42Q110.34-30.53 110.34-29.06L110.34-29.06L110.34-28.80L113.47-43.52L122.94-44.80L115.58-10.24Q115.33-9.28 115.33-8.19L115.33-8.19Q115.33-6.91 115.94-6.37Q116.54-5.82 117.95-5.82L117.95-5.82Q119.74-5.82 121.06-7.36Q122.37-8.90 123.14-11.46L123.14-11.46L125.82-11.46Q121.92 0 112.96 0L112.96 0Q110.34 0 108.70-1.41Q107.07-2.82 106.69-5.50L106.69-5.50Q105.02-2.94 102.69-1.28Q100.35 0.38 97.22 0.38L97.22 0.38ZM101.38-5.82Q102.91-5.82 104.48-7.23Q106.05-8.64 106.62-11.14L106.62-11.14L106.62-11.46L109.76-26.11Q109.18-28.35 107.14-28.35L107.14-28.35Q104.58-28.35 102.53-25.38Q100.48-22.40 99.33-18.21Q98.18-14.02 98.18-10.82L98.18-10.82Q98.18-7.62 99.10-6.72Q100.03-5.82 101.38-5.82L101.38-5.82ZM142.66 0L151.87-42.75Q147.84-42.62 145.70-39.68Q143.55-36.74 143.55-29.50L143.55-29.50Q143.55-27.14 144-26.21Q144.45-25.28 144.45-25.15L144.45-25.15Q140.99-25.15 139.30-26.59Q137.60-28.03 137.60-31.36L137.60-31.36Q137.60-35.90 139.84-39.65Q142.08-43.39 146.98-45.70Q151.87-48 159.42-48L159.42-48Q160.96-48 163.52-47.68L163.52-47.68Q168.13-47.23 170.05-47.23L170.05-47.23Q173.44-47.23 175.81-48L175.81-48Q175.62-47.42 175.10-45.47Q174.59-43.52 173.28-42.14Q171.97-40.77 169.73-40.32L169.73-40.32Q165.95-40.32 160.77-41.54L160.77-41.54L158.08-28.80L167.42-28.80L166.40-24.06L157.06-24.06L151.87 0L142.66 0ZM174.08 0.38Q170.43 0.38 168-2.11Q165.57-4.61 165.57-9.92L165.57-9.92Q165.57-14.66 167.46-19.87Q169.34-25.09 173.09-28.70Q176.83-32.32 182.02-32.32L182.02-32.32Q184.64-32.32 185.92-31.42Q187.20-30.53 187.20-29.06L187.20-29.06L187.20-28.61L187.90-32L197.12-32L192.51-10.24Q192.26-9.28 192.26-8.19L192.26-8.19Q192.26-5.44 194.88-5.44L194.88-5.44Q196.67-5.44 197.98-7.10Q199.30-8.77 200.06-11.46L200.06-11.46L202.75-11.46Q200.38-4.54 196.90-2.08Q193.41 0.38 189.89 0.38L189.89 0.38Q187.20 0.38 185.57-1.12Q183.94-2.62 183.62-5.50L183.62-5.50Q181.76-2.88 179.49-1.25Q177.22 0.38 174.08 0.38L174.08 0.38ZM178.24-5.82Q179.84-5.82 181.41-7.33Q182.98-8.83 183.55-11.46L183.55-11.46L186.62-25.92Q186.62-26.75 185.98-27.55Q185.34-28.35 184-28.35L184-28.35Q181.44-28.35 179.39-25.38Q177.34-22.40 176.19-18.21Q175.04-14.02 175.04-10.82L175.04-10.82Q175.04-7.62 175.97-6.72Q176.90-5.82 178.24-5.82L178.24-5.82ZM209.22 0.38Q204.48 0.38 201.86-2.08Q199.23-4.54 199.23-9.79L199.23-9.79Q199.23-14.21 200.99-19.52Q202.75-24.83 206.62-28.70Q210.50-32.58 216.45-32.58L216.45-32.58Q220.29-32.58 221.92-30.91Q223.55-29.25 223.55-26.69L223.55-26.69Q223.55-24.45 222.59-23.23Q221.63-22.02 220.16-22.02L220.16-22.02Q219.07-22.02 217.92-22.78L217.92-22.78Q218.69-24.90 218.69-26.56L218.69-26.56Q218.69-27.78 218.24-28.48Q217.79-29.18 216.90-29.18L216.90-29.18Q214.98-29.18 213.06-26.05Q211.14-22.91 209.92-18.43Q208.70-13.95 208.70-10.37L208.70-10.37Q208.70-7.23 209.79-6.11Q210.88-4.99 213.31-4.99L213.31-4.99Q216.77-4.99 219.23-6.59Q221.70-8.19 224.64-11.46L224.64-11.46L226.82-11.46Q219.71 0.38 209.22 0.38L209.22 0.38ZM230.98 0.38Q227.90 0.38 226.02-1.54Q224.13-3.46 224.13-7.30L224.13-7.30Q224.13-8.90 224.64-11.46L224.64-11.46L228.48-29.44L226.37-29.44L226.88-32L228.99-32L230.91-40.83L240.38-42.11L238.21-32L242.05-32L241.54-29.44L237.70-29.44L233.60-10.24Q233.34-9.28 233.34-8.19L233.34-8.19Q233.34-6.91 233.95-6.37Q234.56-5.82 235.97-5.82L235.97-5.82Q237.82-5.82 239.42-7.39Q241.02-8.96 241.73-11.46L241.73-11.46L244.42-11.46Q242.05-4.54 238.34-2.08Q234.62 0.38 230.98 0.38L230.98 0.38ZM251.07 0.26Q246.34 0.26 243.58-2.18Q240.83-4.61 240.83-9.86L240.83-9.86Q240.83-14.21 242.62-19.52Q244.42-24.83 248.38-28.70Q252.35-32.58 258.37-32.58L258.37-32.58Q266.56-32.58 266.56-22.34L266.56-22.34L266.56-22.27Q266.75-22.21 267.26-22.21L267.26-22.21Q269.38-22.21 272.13-23.33Q274.88-24.45 277.12-26.05L277.12-26.05L277.70-24.32Q275.84-22.34 272.86-20.96Q269.89-19.58 266.37-19.01L266.37-19.01Q265.86-13.18 263.74-8.83Q261.63-4.48 258.30-2.11Q254.98 0.26 251.07 0.26L251.07 0.26ZM253.63-5.50Q255.17-5.50 256.70-7.26Q258.24-9.02 259.39-12.06Q260.54-15.10 261.06-18.82L261.06-18.82Q259.33-19.20 259.33-21.50L259.33-21.50Q259.33-24.13 261.31-24.96L261.31-24.96Q261.18-27.07 260.67-27.87Q260.16-28.67 258.88-28.67L258.88-28.67Q256.77-28.67 254.78-25.60Q252.80-22.53 251.58-18.24Q250.37-13.95 250.37-10.69L250.37-10.69Q250.37-7.62 251.07-6.56Q251.78-5.50 253.63-5.50L253.63-5.50ZM267.39 0L274.18-32L283.39-32L282.56-28.03Q284.74-29.95 286.50-30.98Q288.26-32 290.30-32L290.30-32Q292.35-32 293.54-30.59Q294.72-29.18 294.72-27.20L294.72-27.20Q294.72-25.34 293.50-23.94Q292.29-22.53 290.11-22.53L290.11-22.53Q288.70-22.53 288.22-23.20Q287.74-23.87 287.49-25.15L287.49-25.15Q287.30-25.98 287.10-26.37Q286.91-26.75 286.40-26.75L286.40-26.75Q285.06-26.75 284.13-26.21Q283.20-25.66 281.73-24.32L281.73-24.32L276.61 0L267.39 0ZM303.87 16Q300.80 16 298.75 14.40Q296.70 12.80 296.70 9.79L296.70 9.79Q296.70 6.14 299.65 3.94Q302.59 1.73 307.14 0.26L307.14 0.26L307.90-3.20Q306.05-1.15 304.13-0.38Q302.21 0.38 300.22 0.38L300.22 0.38Q297.15 0.38 295.26-1.54Q293.38-3.46 293.38-7.30L293.38-7.30Q293.38-8.90 293.89-11.46L293.89-11.46L298.24-32L307.46-32L302.85-10.24Q302.66-9.47 302.66-8.64L302.66-8.64Q302.66-5.82 304.58-5.82L304.58-5.82Q306.24-5.82 307.52-7.26Q308.80-8.70 309.57-11.07L309.57-11.07L314.05-32L323.26-32L316.93-2.30Q320.00-3.33 321.86-5.38Q323.71-7.42 324.99-11.46L324.99-11.46L327.68-11.46Q325.95-5.76 323.01-3.10Q320.06-0.45 316.35 0.51L316.35 0.51L315.39 5.12Q314.11 11.33 310.98 13.66Q307.84 16 303.87 16L303.87 16ZM302.40 11.01Q303.49 11.01 304.51 9.54Q305.54 8.06 306.11 5.31L306.11 5.31L306.50 3.46Q300.22 5.76 300.22 8.90L300.22 8.90Q300.22 9.73 300.80 10.37Q301.38 11.01 302.40 11.01L302.40 11.01Z" fill="#0079bf"/></svg>
