<svg xmlns="http://www.w3.org/2000/svg" viewBox="-2.78 -52.00 431.23 57.09" width="317" height="42"><path d="M15.23 1.02Q8 1.02 4.61-2.62Q1.22-6.27 1.22-14.72L1.22-14.72Q1.22-21.44 3.49-29.18Q5.76-36.93 10.78-42.46Q15.81-48 23.55-48L23.55-48Q28.35-48 31.30-45.89Q34.24-43.78 34.24-39.42L34.24-39.42Q34.24-36.67 33.15-35.10Q32.06-33.54 29.76-33.54L29.76-33.54Q27.46-33.54 26.11-35.20L26.11-35.20Q27.26-35.78 28.16-37.50Q29.06-39.23 29.06-41.09L29.06-41.09Q29.06-42.82 28.13-43.90Q27.20-44.99 25.15-44.99L25.15-44.99Q21.76-44.99 18.69-40.35Q15.62-35.71 13.73-28.67Q11.84-21.63 11.84-15.10L11.84-15.10Q11.84-10.24 13.50-7.68Q15.17-5.12 19.52-5.12L19.52-5.12Q23.30-5.12 26.50-6.78Q29.70-8.45 32-11.52L32-11.52L33.47-10.88Q31.87-6.85 28.74-4.16Q25.60-1.47 22.02-0.22Q18.43 1.02 15.23 1.02L15.23 1.02ZM29.38 0L36.16-32L45.38-32L44.54-28.03Q46.72-29.95 48.48-30.98Q50.24-32 52.29-32L52.29-32Q54.34-32 55.52-30.59Q56.70-29.18 56.70-27.20L56.70-27.20Q56.70-25.34 55.49-23.94Q54.27-22.53 52.10-22.53L52.10-22.53Q50.69-22.53 50.21-23.20Q49.73-23.87 49.47-25.15L49.47-25.15Q49.28-25.98 49.09-26.37Q48.90-26.75 48.38-26.75L48.38-26.75Q47.04-26.75 46.11-26.21Q45.18-25.66 43.71-24.32L43.71-24.32L38.59 0L29.38 0ZM66.56-35.46Q64.45-35.46 62.98-36.93Q61.50-38.40 61.50-40.51L61.50-40.51Q61.50-42.62 62.98-44.13Q64.45-45.63 66.56-45.63L66.56-45.63Q68.67-45.63 70.18-44.13Q71.68-42.62 71.68-40.51L71.68-40.51Q71.68-38.40 70.18-36.93Q68.67-35.46 66.56-35.46L66.56-35.46ZM62.21 0.38Q59.14 0.38 57.25-1.54Q55.36-3.46 55.36-7.30L55.36-7.30Q55.36-8.90 55.87-11.46L55.87-11.46L60.22-32L69.44-32L64.83-10.24Q64.58-9.28 64.58-8.19L64.58-8.19Q64.58-6.91 65.18-6.37Q65.79-5.82 67.20-5.82L67.20-5.82Q69.06-5.82 70.66-7.39Q72.26-8.96 72.96-11.46L72.96-11.46L75.65-11.46Q73.28-4.54 69.57-2.08Q65.86 0.38 62.21 0.38L62.21 0.38ZM111.87 0.38Q107.97 0.38 106.14-1.70Q104.32-3.78 104.32-6.85L104.32-6.85Q104.32-8.19 104.64-9.89Q104.96-11.58 105.31-13.18Q105.66-14.78 105.79-15.23L105.79-15.23Q106.30-17.47 106.75-19.65Q107.20-21.82 107.20-23.17L107.20-23.17Q107.20-26.43 104.90-26.43L104.90-26.43Q103.23-26.43 101.95-24.80Q100.67-23.17 99.90-20.54L99.90-20.54L95.55 0L86.34 0L91.01-22.08Q91.20-22.85 91.20-23.68L91.20-23.68Q91.20-26.50 89.28-26.50L89.28-26.50Q87.49-26.50 86.18-24.86Q84.86-23.23 84.10-20.54L84.10-20.54L79.74 0L70.53 0L77.31-32L86.53-32L85.82-28.67Q89.09-32.32 93.63-32.32L93.63-32.32Q99.26-32.32 100.22-26.82L100.22-26.82Q103.74-32.26 109.12-32.26L109.12-32.26Q112.38-32.26 114.30-30.46Q116.22-28.67 116.22-25.02L116.22-25.02Q116.22-23.17 115.78-20.90Q115.33-18.62 114.50-15.36L114.50-15.36Q113.98-13.38 113.57-11.49Q113.15-9.60 113.15-8.51L113.15-8.51Q113.15-7.23 113.73-6.53Q114.30-5.82 115.71-5.82L115.71-5.82Q117.63-5.82 118.78-7.20Q119.94-8.58 121.09-11.46L121.09-11.46L123.78-11.46Q121.41-4.42 118.30-2.02Q115.20 0.38 111.87 0.38L111.87 0.38ZM128.38 0.38Q125.31 0.38 123.20-0.80Q121.09-1.98 120.06-3.87Q119.04-5.76 119.04-7.81L119.04-7.81Q119.04-9.92 120.03-11.49Q121.02-13.06 122.43-13.76L122.43-13.76Q124.93-18.24 126.78-22.82Q128.64-27.39 130.30-32.70L130.30-32.70L139.78-33.98Q140.10-25.79 140.86-16.26L140.86-16.26Q141.18-12.42 141.18-10.69L141.18-10.69Q141.18-9.22 140.93-8.26L140.93-8.26Q143.94-9.98 145.54-11.46L145.54-11.46L148.22-11.46Q144.13-6.72 138.43-3.46L138.43-3.46Q136.58-1.47 133.86-0.54Q131.14 0.38 128.38 0.38L128.38 0.38ZM126.34-4.67Q128.70-4.67 130.30-6.08Q131.90-7.49 131.90-10.62L131.90-10.62Q131.90-12.54 131.52-16L131.52-16Q130.88-23.30 130.69-25.79L130.69-25.79Q129.15-20.74 125.50-13.70L125.50-13.70Q126.98-12.93 126.98-11.46L126.98-11.46Q126.98-10.24 126.18-9.28Q125.38-8.32 124.16-8.32L124.16-8.32Q122.82-8.32 122.43-9.15L122.43-9.15Q122.43-6.85 123.36-5.76Q124.29-4.67 126.34-4.67L126.34-4.67ZM184.19 1.09Q181.63 1.09 179.74 0.03Q177.86-1.02 177.86-3.65L177.86-3.65Q177.86-5.31 178.69-7.36L178.69-7.36Q179.84-6.08 180.83-5.57Q181.82-5.06 182.98-5.06L182.98-5.06Q186.18-5.06 187.74-8.64Q189.31-12.22 189.31-16.58L189.31-16.58Q189.31-24.70 183.23-24.70L183.23-24.70Q181.50-24.70 180.29-24.51L180.29-24.51L175.04 0L165.82 0L174.53-40.70L184-41.98L180.99-27.78L181.38-27.78Q183.81-27.78 185.92-29.34Q188.03-30.91 189.31-33.31Q190.59-35.71 190.59-38.14L190.59-38.14Q190.59-41.09 188.51-43.07Q186.43-45.06 182.14-45.06L182.14-45.06Q178.24-45.06 174.53-43.30Q170.82-41.54 168.48-38.02Q166.14-34.50 166.14-29.50L166.14-29.50Q166.14-27.14 166.59-26.21Q167.04-25.28 167.04-25.15L167.04-25.15Q163.65-25.15 161.92-26.53Q160.19-27.90 160.19-31.04L160.19-31.04Q160.19-35.39 163.46-39.30Q166.72-43.20 172.10-45.60Q177.47-48 183.42-48L183.42-48Q187.90-48 190.98-46.59Q194.05-45.18 195.55-42.88Q197.06-40.58 197.06-37.82L197.06-37.82Q197.06-34.88 195.39-32.13Q193.73-29.38 190.66-27.65L190.66-27.65Q194.50-26.94 196.35-24.10Q198.21-21.25 198.21-17.34L198.21-17.34Q198.21-13.70 196.83-9.41Q195.46-5.12 192.29-2.02Q189.12 1.09 184.19 1.09L184.19 1.09ZM198.02 0L204.80-32L214.02-32L213.18-28.03Q215.36-29.95 217.12-30.98Q218.88-32 220.93-32L220.93-32Q222.98-32 224.16-30.59Q225.34-29.18 225.34-27.20L225.34-27.20Q225.34-25.34 224.13-23.94Q222.91-22.53 220.74-22.53L220.74-22.53Q219.33-22.53 218.85-23.20Q218.37-23.87 218.11-25.15L218.11-25.15Q217.92-25.98 217.73-26.37Q217.54-26.75 217.02-26.75L217.02-26.75Q215.68-26.75 214.75-26.21Q213.82-25.66 212.35-24.32L212.35-24.32L207.23 0L198.02 0ZM233.66 0.38Q228.93 0.38 226.30-2.08Q223.68-4.54 223.68-9.79L223.68-9.79Q223.68-14.21 225.41-19.52Q227.14-24.83 231.04-28.70Q234.94-32.58 240.96-32.58L240.96-32.58Q248-32.58 248-26.43L248-26.43Q248-22.85 245.95-19.84Q243.90-16.83 240.51-15.01Q237.12-13.18 233.28-12.93L233.28-12.93Q233.15-11.01 233.15-10.37L233.15-10.37Q233.15-7.23 234.24-6.11Q235.33-4.99 237.76-4.99L237.76-4.99Q241.22-4.99 243.68-6.59Q246.14-8.19 249.09-11.46L249.09-11.46L251.26-11.46Q244.16 0.38 233.66 0.38L233.66 0.38ZM233.79-16Q236.16-16.13 238.30-17.66Q240.45-19.20 241.76-21.57Q243.07-23.94 243.07-26.56L243.07-26.56Q243.07-29.18 241.47-29.18L241.47-29.18Q239.17-29.18 236.96-25.15Q234.75-21.12 233.79-16L233.79-16ZM256.77 0.38Q253.12 0.38 250.69-2.11Q248.26-4.61 248.26-9.92L248.26-9.92Q248.26-14.66 250.14-19.87Q252.03-25.09 255.78-28.70Q259.52-32.32 264.70-32.32L264.70-32.32Q267.33-32.32 268.61-31.42Q269.89-30.53 269.89-29.06L269.89-29.06L269.89-28.61L270.59-32L279.81-32L275.20-10.24Q274.94-9.28 274.94-8.19L274.94-8.19Q274.94-5.44 277.57-5.44L277.57-5.44Q279.36-5.44 280.67-7.10Q281.98-8.77 282.75-11.46L282.75-11.46L285.44-11.46Q283.07-4.54 279.58-2.08Q276.10 0.38 272.58 0.38L272.58 0.38Q269.89 0.38 268.26-1.12Q266.62-2.62 266.30-5.50L266.30-5.50Q264.45-2.88 262.18-1.25Q259.90 0.38 256.77 0.38L256.77 0.38ZM260.93-5.82Q262.53-5.82 264.10-7.33Q265.66-8.83 266.24-11.46L266.24-11.46L269.31-25.92Q269.31-26.75 268.67-27.55Q268.03-28.35 266.69-28.35L266.69-28.35Q264.13-28.35 262.08-25.38Q260.03-22.40 258.88-18.21Q257.73-14.02 257.73-10.82L257.73-10.82Q257.73-7.62 258.66-6.72Q259.58-5.82 260.93-5.82L260.93-5.82ZM306.82 0.38Q302.85 0.38 300.80-1.50Q298.75-3.39 298.75-6.91L298.75-6.91Q298.75-8.45 299.14-10.24L299.14-10.24L299.65-12.74Q299.90-13.82 299.90-15.10L299.90-15.10Q299.90-18.18 297.60-18.18L297.60-18.18Q296.58-18.18 295.46-17.60Q294.34-17.02 292.86-15.81L292.86-15.81L289.54 0L280.32 0L289.60-43.52L299.07-44.80L294.27-22.27L306.62-32L312.96-32L300.16-23.10Q301.12-23.36 302.27-23.36L302.27-23.36Q305.73-23.36 307.52-21.25Q309.31-19.14 309.31-15.87L309.31-15.87Q309.31-14.53 309.06-13.44L309.06-13.44L308.35-10.24Q308.03-9.09 308.03-8.19L308.03-8.19Q308.03-5.82 310.53-5.82L310.53-5.82Q312.45-5.82 313.60-7.20Q314.75-8.58 315.90-11.46L315.90-11.46L318.59-11.46Q314.62 0.38 306.82 0.38L306.82 0.38ZM348.16 0.38Q342.78 0.38 339.74-2.69Q336.70-5.76 336.70-12.48L336.70-12.48Q336.70-18.18 338.75-25.28Q340.80-32.38 344.74-37.44Q348.67-42.50 354.05-42.50L354.05-42.50Q355.97-42.50 357.38-41.98L357.38-41.98Q354.56-40.32 351.97-35.14Q349.38-29.95 347.78-23.55Q346.18-17.15 346.18-12.22L346.18-12.22Q346.18-8.77 347.07-6.78Q347.97-4.80 349.89-4.80L349.89-4.80Q353.02-4.80 356.13-9.31Q359.23-13.82 361.25-20.67Q363.26-27.52 363.26-33.86L363.26-33.86Q363.26-37.82 362.59-40.22Q361.92-42.62 360.13-43.84Q358.34-45.06 355.07-45.06L355.07-45.06Q350.14-45.06 345.92-43.04Q341.70-41.02 339.17-37.28Q336.64-33.54 336.64-28.61L336.64-28.61Q336.64-26.88 336.96-26.08Q337.28-25.28 337.28-25.15L337.28-25.15Q334.08-25.15 332.45-26.43Q330.82-27.71 330.82-30.53L330.82-30.53Q330.82-34.94 334.43-38.98Q338.05-43.01 344.03-45.50Q350.02-48 356.61-48L356.61-48Q364.61-48 368.19-43.65Q371.78-39.30 371.78-31.62L371.78-31.62Q371.78-24.77 369.22-17.34Q366.66-9.92 361.31-4.77Q355.97 0.38 348.16 0.38L348.16 0.38ZM378.69 0.38Q375.62 0.38 373.73-1.54Q371.84-3.46 371.84-7.30L371.84-7.30Q371.84-8.90 372.35-11.46L372.35-11.46L376.70-32L385.92-32L381.31-10.24Q381.12-9.28 381.12-8.45L381.12-8.45Q381.12-5.82 383.04-5.82L383.04-5.82Q384.83-5.82 386.11-7.33Q387.39-8.83 388.16-11.46L388.16-11.46L392.51-32L401.73-32L397.12-10.24Q396.86-9.28 396.86-8.19L396.86-8.19Q396.86-6.91 397.47-6.37Q398.08-5.82 399.49-5.82L399.49-5.82Q401.28-5.82 402.59-7.36Q403.90-8.90 404.67-11.46L404.67-11.46L407.36-11.46Q404.99-4.54 401.50-2.08Q398.02 0.38 394.50 0.38L394.50 0.38Q391.74 0.38 390.11-1.15Q388.48-2.69 388.16-5.70L388.16-5.70Q385.98-2.18 383.58-0.90Q381.18 0.38 378.69 0.38L378.69 0.38ZM411.01 0.38Q407.94 0.38 406.05-1.54Q404.16-3.46 404.16-7.30L404.16-7.30Q404.16-8.90 404.67-11.46L404.67-11.46L408.51-29.44L406.40-29.44L406.91-32L409.02-32L410.94-40.83L420.42-42.11L418.24-32L422.08-32L421.57-29.44L417.73-29.44L413.63-10.24Q413.38-9.28 413.38-8.19L413.38-8.19Q413.38-6.91 413.98-6.37Q414.59-5.82 416.00-5.82L416.00-5.82Q417.86-5.82 419.46-7.39Q421.06-8.96 421.76-11.46L421.76-11.46L424.45-11.46Q422.08-4.54 418.37-2.08Q414.66 0.38 411.01 0.38L411.01 0.38Z" fill="#f9ca24"/></svg>
