<svg xmlns="http://www.w3.org/2000/svg" viewBox="-3.55 -52.32 469.76 57.47" width="343" height="42"><path d="M12.22 1.15Q6.40 1.15 3.42-2.05Q0.45-5.25 0.45-10.11L0.45-10.11Q0.45-13.57 1.89-17.06Q3.33-20.54 6.02-23.17Q8.70-25.79 12.29-26.69L12.29-26.69Q10.30-28.10 9.34-30.11Q8.38-32.13 8.38-34.37L8.38-34.37Q8.38-37.70 10.21-40.90Q12.03-44.10 15.26-46.11Q18.50-48.13 22.40-48.13L22.40-48.13Q26.43-48.13 28.99-46.02Q31.55-43.90 31.55-40.13L31.55-40.13Q31.55-37.31 30.14-35.39Q28.74-33.47 26.82-33.47L26.82-33.47Q25.09-33.47 23.81-35.20L23.81-35.20Q24.96-35.58 25.79-37.31Q26.62-39.04 26.62-40.77L26.62-40.77Q26.62-42.62 25.60-43.49Q24.58-44.35 23.10-44.35L23.10-44.35Q21.25-44.35 19.74-43.04Q18.24-41.73 17.41-39.65Q16.58-37.57 16.58-35.33L16.58-35.33Q16.58-32.26 18.18-29.92Q19.78-27.58 23.04-26.75L23.04-26.75Q19.78-26.05 17.15-23.55Q14.53-21.06 13.06-17.76Q11.58-14.46 11.58-11.46L11.58-11.46Q11.58-8.58 13.09-6.78Q14.59-4.99 17.66-4.99L17.66-4.99Q20.86-4.99 24.35-6.75Q27.84-8.51 29.50-11.52L29.50-11.52L30.98-10.88Q28.48-5.38 23.30-2.11Q18.11 1.15 12.22 1.15L12.22 1.15ZM52.42 0.38Q49.47 0.38 47.52-2.30Q45.57-4.99 44.61-10.75L44.61-10.75L35.78 0L31.17 0L44.10-14.59L43.07-21.76Q42.56-24.90 42.02-25.98Q41.47-27.07 40.64-27.07L40.64-27.07Q39.36-27.07 37.76-25.31Q36.16-23.55 34.66-20Q33.15-16.45 32.06-11.46L32.06-11.46L29.38-11.46Q31.23-20.16 34.91-26.24Q38.59-32.32 44.48-32.32L44.48-32.32Q47.94-32.32 49.50-30.05Q51.07-27.78 51.39-24.70L51.39-24.70L51.97-19.84Q54.72-22.91 56.06-25.12Q57.41-27.33 57.54-29.06L57.54-29.06Q56.64-28.93 56.45-28.93L56.45-28.93Q54.85-28.93 54.14-29.92Q53.44-30.91 53.44-32.51L53.44-32.51Q53.44-34.11 54.69-34.88Q55.94-35.65 57.79-35.65L57.79-35.65Q59.46-35.65 60.42-33.89Q61.38-32.13 61.38-29.82L61.38-29.82Q61.38-27.01 59.46-24.16Q57.54-21.31 52.48-15.87L52.48-15.87L53.06-11.39Q53.44-8.32 54.37-7.07Q55.30-5.82 57.02-5.82L57.02-5.82Q58.88-5.82 60.48-7.39Q62.08-8.96 62.78-11.46L62.78-11.46L65.47-11.46Q63.17-4.80 59.58-2.21Q56 0.38 52.42 0.38L52.42 0.38ZM69.12 0.38Q66.05 0.38 64.16-1.54Q62.27-3.46 62.27-7.30L62.27-7.30Q62.27-8.90 62.78-11.46L62.78-11.46L66.62-29.44L64.51-29.44L65.02-32L67.14-32L69.06-40.83L78.53-42.11L76.35-32L80.19-32L79.68-29.44L75.84-29.44L71.74-10.24Q71.49-9.28 71.49-8.19L71.49-8.19Q71.49-6.91 72.10-6.37Q72.70-5.82 74.11-5.82L74.11-5.82Q75.97-5.82 77.57-7.39Q79.17-8.96 79.87-11.46L79.87-11.46L82.56-11.46Q80.19-4.54 76.48-2.08Q72.77 0.38 69.12 0.38L69.12 0.38ZM77.44 0L84.22-32L93.44-32L92.61-28.03Q94.78-29.95 96.54-30.98Q98.30-32 100.35-32L100.35-32Q102.40-32 103.58-30.59Q104.77-29.18 104.77-27.20L104.77-27.20Q104.77-25.34 103.55-23.94Q102.34-22.53 100.16-22.53L100.16-22.53Q98.75-22.53 98.27-23.20Q97.79-23.87 97.54-25.15L97.54-25.15Q97.34-25.98 97.15-26.37Q96.96-26.75 96.45-26.75L96.45-26.75Q95.10-26.75 94.18-26.21Q93.25-25.66 91.78-24.32L91.78-24.32L86.66 0L77.44 0ZM111.62 0.38Q107.97 0.38 105.54-2.11Q103.10-4.61 103.10-9.92L103.10-9.92Q103.10-14.66 104.99-19.87Q106.88-25.09 110.62-28.70Q114.37-32.32 119.55-32.32L119.55-32.32Q122.18-32.32 123.46-31.42Q124.74-30.53 124.74-29.06L124.74-29.06L124.74-28.61L125.44-32L134.66-32L130.05-10.24Q129.79-9.28 129.79-8.19L129.79-8.19Q129.79-5.44 132.42-5.44L132.42-5.44Q134.21-5.44 135.52-7.10Q136.83-8.77 137.60-11.46L137.60-11.46L140.29-11.46Q137.92-4.54 134.43-2.08Q130.94 0.38 127.42 0.38L127.42 0.38Q124.74 0.38 123.10-1.12Q121.47-2.62 121.15-5.50L121.15-5.50Q119.30-2.88 117.02-1.25Q114.75 0.38 111.62 0.38L111.62 0.38ZM115.78-5.82Q117.38-5.82 118.94-7.33Q120.51-8.83 121.09-11.46L121.09-11.46L124.16-25.92Q124.16-26.75 123.52-27.55Q122.88-28.35 121.54-28.35L121.54-28.35Q118.98-28.35 116.93-25.38Q114.88-22.40 113.73-18.21Q112.58-14.02 112.58-10.82L112.58-10.82Q112.58-7.62 113.50-6.72Q114.43-5.82 115.78-5.82L115.78-5.82ZM146.75 0.38Q142.02 0.38 139.39-2.08Q136.77-4.54 136.77-9.79L136.77-9.79Q136.77-14.21 138.53-19.52Q140.29-24.83 144.16-28.70Q148.03-32.58 153.98-32.58L153.98-32.58Q157.82-32.58 159.46-30.91Q161.09-29.25 161.09-26.69L161.09-26.69Q161.09-24.45 160.13-23.23Q159.17-22.02 157.70-22.02L157.70-22.02Q156.61-22.02 155.46-22.78L155.46-22.78Q156.22-24.90 156.22-26.56L156.22-26.56Q156.22-27.78 155.78-28.48Q155.33-29.18 154.43-29.18L154.43-29.18Q152.51-29.18 150.59-26.05Q148.67-22.91 147.46-18.43Q146.24-13.95 146.24-10.37L146.24-10.37Q146.24-7.23 147.33-6.11Q148.42-4.99 150.85-4.99L150.85-4.99Q154.30-4.99 156.77-6.59Q159.23-8.19 162.18-11.46L162.18-11.46L164.35-11.46Q157.25 0.38 146.75 0.38L146.75 0.38ZM168.51 0.38Q165.44 0.38 163.55-1.54Q161.66-3.46 161.66-7.30L161.66-7.30Q161.66-8.90 162.18-11.46L162.18-11.46L166.02-29.44L163.90-29.44L164.42-32L166.53-32L168.45-40.83L177.92-42.11L175.74-32L179.58-32L179.07-29.44L175.23-29.44L171.14-10.24Q170.88-9.28 170.88-8.19L170.88-8.19Q170.88-6.91 171.49-6.37Q172.10-5.82 173.50-5.82L173.50-5.82Q175.36-5.82 176.96-7.39Q178.56-8.96 179.26-11.46L179.26-11.46L181.95-11.46Q179.58-4.54 175.87-2.08Q172.16 0.38 168.51 0.38L168.51 0.38ZM189.95-35.46Q187.84-35.46 186.37-36.93Q184.90-38.40 184.90-40.51L184.90-40.51Q184.90-42.62 186.37-44.13Q187.84-45.63 189.95-45.63L189.95-45.63Q192.06-45.63 193.57-44.13Q195.07-42.62 195.07-40.51L195.07-40.51Q195.07-38.40 193.57-36.93Q192.06-35.46 189.95-35.46L189.95-35.46ZM185.60 0.38Q182.53 0.38 180.64-1.54Q178.75-3.46 178.75-7.30L178.75-7.30Q178.75-8.90 179.26-11.46L179.26-11.46L183.62-32L192.83-32L188.22-10.24Q187.97-9.28 187.97-8.19L187.97-8.19Q187.97-6.91 188.58-6.37Q189.18-5.82 190.59-5.82L190.59-5.82Q192.45-5.82 194.05-7.39Q195.65-8.96 196.35-11.46L196.35-11.46L199.04-11.46Q196.67-4.54 192.96-2.08Q189.25 0.38 185.60 0.38L185.60 0.38ZM205.70 0.26Q200.96 0.26 198.21-2.18Q195.46-4.61 195.46-9.86L195.46-9.86Q195.46-14.21 197.25-19.52Q199.04-24.83 203.01-28.70Q206.98-32.58 212.99-32.58L212.99-32.58Q221.18-32.58 221.18-22.34L221.18-22.34L221.18-22.27Q221.38-22.21 221.89-22.21L221.89-22.21Q224-22.21 226.75-23.33Q229.50-24.45 231.74-26.05L231.74-26.05L232.32-24.32Q230.46-22.34 227.49-20.96Q224.51-19.58 220.99-19.01L220.99-19.01Q220.48-13.18 218.37-8.83Q216.26-4.48 212.93-2.11Q209.60 0.26 205.70 0.26L205.70 0.26ZM208.26-5.50Q209.79-5.50 211.33-7.26Q212.86-9.02 214.02-12.06Q215.17-15.10 215.68-18.82L215.68-18.82Q213.95-19.20 213.95-21.50L213.95-21.50Q213.95-24.13 215.94-24.96L215.94-24.96Q215.81-27.07 215.30-27.87Q214.78-28.67 213.50-28.67L213.50-28.67Q211.39-28.67 209.41-25.60Q207.42-22.53 206.21-18.24Q204.99-13.95 204.99-10.69L204.99-10.69Q204.99-7.62 205.70-6.56Q206.40-5.50 208.26-5.50L208.26-5.50ZM247.55 0.38Q243.65 0.38 241.82-1.70Q240-3.78 240-6.85L240-6.85Q240-8.19 240.32-9.89Q240.64-11.58 240.99-13.18Q241.34-14.78 241.47-15.23L241.47-15.23Q241.98-17.47 242.43-19.65Q242.88-21.82 242.88-23.17L242.88-23.17Q242.88-26.43 240.58-26.43L240.58-26.43Q238.91-26.43 237.63-24.80Q236.35-23.17 235.58-20.54L235.58-20.54L231.23 0L222.02 0L228.80-32L238.02-32L237.31-28.67Q240.51-32.26 244.80-32.26L244.80-32.26Q248.06-32.26 249.98-30.46Q251.90-28.67 251.90-25.02L251.90-25.02Q251.90-23.17 251.46-20.90Q251.01-18.62 250.18-15.36L250.18-15.36Q249.66-13.38 249.25-11.49Q248.83-9.60 248.83-8.51L248.83-8.51Q248.83-7.23 249.41-6.53Q249.98-5.82 251.39-5.82L251.39-5.82Q253.31-5.82 254.46-7.20Q255.62-8.58 256.77-11.46L256.77-11.46L259.46-11.46Q257.09-4.42 253.98-2.02Q250.88 0.38 247.55 0.38L247.55 0.38ZM286.34 1.15Q282.30 1.15 279.23-0.26Q276.16-1.66 274.50-4.19Q272.83-6.72 272.83-10.05L272.83-10.05Q272.83-12.86 274.02-15.17Q275.20-17.47 277.22-18.82Q279.23-20.16 281.66-20.16L281.66-20.16Q283.90-20.16 285.44-19.04Q286.98-17.92 287.36-15.94L287.36-15.94Q284.03-15.94 282.05-14.18Q280.06-12.42 280.06-9.41L280.06-9.41Q280.06-6.66 281.73-4.99Q283.39-3.33 286.14-3.33L286.14-3.33Q289.54-3.33 291.74-5.60Q293.95-7.87 293.95-11.33L293.95-11.33Q293.95-14.34 292.29-17.02Q290.62-19.71 287.30-23.55L287.30-23.55Q283.84-27.52 282.08-30.37Q280.32-33.22 280.32-36.61L280.32-36.61Q280.32-39.94 282.18-42.59Q284.03-45.25 287.30-46.78Q290.56-48.32 294.66-48.32L294.66-48.32Q299.84-48.32 302.94-45.89Q306.05-43.46 306.05-39.36L306.05-39.36Q306.05-36.67 304.70-35.01Q303.36-33.34 301.18-33.34L301.18-33.34Q298.75-33.34 297.28-35.33L297.28-35.33Q298.50-36.22 299.20-37.70Q299.90-39.17 299.90-40.77L299.90-40.77Q299.90-42.82 298.69-44.03Q297.47-45.25 295.36-45.25L295.36-45.25Q292.80-45.25 291.17-43.42Q289.54-41.60 289.54-38.78L289.54-38.78Q289.54-36.22 291.01-34.02Q292.48-31.81 295.62-28.35L295.62-28.35Q298.18-25.60 299.74-23.62Q301.31-21.63 302.43-19.04Q303.55-16.45 303.55-13.44L303.55-13.44Q303.55-9.34 301.28-6.02Q299.01-2.69 295.07-0.77Q291.14 1.15 286.34 1.15L286.34 1.15ZM330.24 0.38Q326.34 0.38 324.51-1.70Q322.69-3.78 322.69-6.85L322.69-6.85Q322.69-8.19 323.01-9.89Q323.33-11.58 323.68-13.18Q324.03-14.78 324.16-15.23L324.16-15.23Q324.67-17.47 325.12-19.65Q325.57-21.82 325.57-23.17L325.57-23.17Q325.57-26.43 323.26-26.43L323.26-26.43Q321.60-26.43 320.32-24.80Q319.04-23.17 318.27-20.54L318.27-20.54L313.92 0L304.70 0L313.98-43.52L323.46-44.80L320-28.67Q323.20-32.26 327.49-32.26L327.49-32.26Q330.75-32.26 332.67-30.46Q334.59-28.67 334.59-25.02L334.59-25.02Q334.59-23.17 334.14-20.90Q333.70-18.62 332.86-15.36L332.86-15.36Q332.35-13.38 331.94-11.49Q331.52-9.60 331.52-8.51L331.52-8.51Q331.52-7.23 332.10-6.53Q332.67-5.82 334.08-5.82L334.08-5.82Q336-5.82 337.15-7.20Q338.30-8.58 339.46-11.46L339.46-11.46L342.14-11.46Q339.78-4.42 336.67-2.02Q333.57 0.38 330.24 0.38L330.24 0.38ZM348.80 0.26Q344.06 0.26 341.31-2.18Q338.56-4.61 338.56-9.86L338.56-9.86Q338.56-14.21 340.35-19.52Q342.14-24.83 346.11-28.70Q350.08-32.58 356.10-32.58L356.10-32.58Q364.29-32.58 364.29-22.34L364.29-22.34L364.29-22.27Q364.48-22.21 364.99-22.21L364.99-22.21Q367.10-22.21 369.86-23.33Q372.61-24.45 374.85-26.05L374.85-26.05L375.42-24.32Q373.57-22.34 370.59-20.96Q367.62-19.58 364.10-19.01L364.10-19.01Q363.58-13.18 361.47-8.83Q359.36-4.48 356.03-2.11Q352.70 0.26 348.80 0.26L348.80 0.26ZM351.36-5.50Q352.90-5.50 354.43-7.26Q355.97-9.02 357.12-12.06Q358.27-15.10 358.78-18.82L358.78-18.82Q357.06-19.20 357.06-21.50L357.06-21.50Q357.06-24.13 359.04-24.96L359.04-24.96Q358.91-27.07 358.40-27.87Q357.89-28.67 356.61-28.67L356.61-28.67Q354.50-28.67 352.51-25.60Q350.53-22.53 349.31-18.24Q348.10-13.95 348.10-10.69L348.10-10.69Q348.10-7.62 348.80-6.56Q349.50-5.50 351.36-5.50L351.36-5.50ZM376.90 0.26Q372.16 0.26 369.41-2.18Q366.66-4.61 366.66-9.86L366.66-9.86Q366.66-14.21 368.45-19.52Q370.24-24.83 374.21-28.70Q378.18-32.58 384.19-32.58L384.19-32.58Q392.38-32.58 392.38-22.34L392.38-22.34L392.38-22.27Q392.58-22.21 393.09-22.21L393.09-22.21Q395.20-22.21 397.95-23.33Q400.70-24.45 402.94-26.05L402.94-26.05L403.52-24.32Q401.66-22.34 398.69-20.96Q395.71-19.58 392.19-19.01L392.19-19.01Q391.68-13.18 389.57-8.83Q387.46-4.48 384.13-2.11Q380.80 0.26 376.90 0.26L376.90 0.26ZM379.46-5.50Q380.99-5.50 382.53-7.26Q384.06-9.02 385.22-12.06Q386.37-15.10 386.88-18.82L386.88-18.82Q385.15-19.20 385.15-21.50L385.15-21.50Q385.15-24.13 387.14-24.96L387.14-24.96Q387.01-27.07 386.50-27.87Q385.98-28.67 384.70-28.67L384.70-28.67Q382.59-28.67 380.61-25.60Q378.62-22.53 377.41-18.24Q376.19-13.95 376.19-10.69L376.19-10.69Q376.19-7.62 376.90-6.56Q377.60-5.50 379.46-5.50L379.46-5.50ZM401.98 0.38Q398.91 0.38 397.02-1.54Q395.14-3.46 395.14-7.30L395.14-7.30Q395.14-8.90 395.65-11.46L395.65-11.46L399.49-29.44L397.38-29.44L397.89-32L400-32L401.92-40.83L411.39-42.11L409.22-32L413.06-32L412.54-29.44L408.70-29.44L404.61-10.24Q404.35-9.28 404.35-8.19L404.35-8.19Q404.35-6.91 404.96-6.37Q405.57-5.82 406.98-5.82L406.98-5.82Q408.83-5.82 410.43-7.39Q412.03-8.96 412.74-11.46L412.74-11.46L415.42-11.46Q413.06-4.54 409.34-2.08Q405.63 0.38 401.98 0.38L401.98 0.38ZM421.89 0.38Q417.15 0.38 414.53-2.08Q411.90-4.54 411.90-9.79L411.90-9.79Q411.90-14.21 413.63-19.52Q415.36-24.83 419.26-28.70Q423.17-32.58 429.18-32.58L429.18-32.58Q436.22-32.58 436.22-26.43L436.22-26.43Q436.22-22.85 434.18-19.84Q432.13-16.83 428.74-15.01Q425.34-13.18 421.50-12.93L421.50-12.93Q421.38-11.01 421.38-10.37L421.38-10.37Q421.38-7.23 422.46-6.11Q423.55-4.99 425.98-4.99L425.98-4.99Q429.44-4.99 431.90-6.59Q434.37-8.19 437.31-11.46L437.31-11.46L439.49-11.46Q432.38 0.38 421.89 0.38L421.89 0.38ZM422.02-16Q424.38-16.13 426.53-17.66Q428.67-19.20 429.98-21.57Q431.30-23.94 431.30-26.56L431.30-26.56Q431.30-29.18 429.70-29.18L429.70-29.18Q427.39-29.18 425.18-25.15Q422.98-21.12 422.02-16L422.02-16ZM434.88 0L441.66-32L450.88-32L450.05-28.03Q452.22-29.95 453.98-30.98Q455.74-32 457.79-32L457.79-32Q459.84-32 461.02-30.59Q462.21-29.18 462.21-27.20L462.21-27.20Q462.21-25.34 460.99-23.94Q459.78-22.53 457.60-22.53L457.60-22.53Q456.19-22.53 455.71-23.20Q455.23-23.87 454.98-25.15L454.98-25.15Q454.78-25.98 454.59-26.37Q454.40-26.75 453.89-26.75L453.89-26.75Q452.54-26.75 451.62-26.21Q450.69-25.66 449.22-24.32L449.22-24.32L444.10 0L434.88 0Z" fill="#e17055"/></svg>
