<svg xmlns="http://www.w3.org/2000/svg" viewBox="-3.55 -52.13 630.98 72.13" width="367" height="42"><path d="M12.22 1.15Q6.40 1.15 3.42-2.05Q0.45-5.25 0.45-10.11L0.45-10.11Q0.45-13.57 1.89-17.06Q3.33-20.54 6.02-23.17Q8.70-25.79 12.29-26.69L12.29-26.69Q10.30-28.10 9.34-30.11Q8.38-32.13 8.38-34.37L8.38-34.37Q8.38-37.70 10.21-40.90Q12.03-44.10 15.26-46.11Q18.50-48.13 22.40-48.13L22.40-48.13Q26.43-48.13 28.99-46.02Q31.55-43.90 31.55-40.13L31.55-40.13Q31.55-37.31 30.14-35.39Q28.74-33.47 26.82-33.47L26.82-33.47Q25.09-33.47 23.81-35.20L23.81-35.20Q24.96-35.58 25.79-37.31Q26.62-39.04 26.62-40.77L26.62-40.77Q26.62-42.62 25.60-43.49Q24.58-44.35 23.10-44.35L23.10-44.35Q21.25-44.35 19.74-43.04Q18.24-41.73 17.41-39.65Q16.58-37.57 16.58-35.33L16.58-35.33Q16.58-32.26 18.18-29.92Q19.78-27.58 23.04-26.75L23.04-26.75Q19.78-26.05 17.15-23.55Q14.53-21.06 13.06-17.76Q11.58-14.46 11.58-11.46L11.58-11.46Q11.58-8.58 13.09-6.78Q14.59-4.99 17.66-4.99L17.66-4.99Q20.86-4.99 24.35-6.75Q27.84-8.51 29.50-11.52L29.50-11.52L30.98-10.88Q28.48-5.38 23.30-2.11Q18.11 1.15 12.22 1.15L12.22 1.15ZM52.42 0.38Q49.47 0.38 47.52-2.30Q45.57-4.99 44.61-10.75L44.61-10.75L35.78 0L31.17 0L44.10-14.59L43.07-21.76Q42.56-24.90 42.02-25.98Q41.47-27.07 40.64-27.07L40.64-27.07Q39.36-27.07 37.76-25.31Q36.16-23.55 34.66-20Q33.15-16.45 32.06-11.46L32.06-11.46L29.38-11.46Q31.23-20.16 34.91-26.24Q38.59-32.32 44.48-32.32L44.48-32.32Q47.94-32.32 49.50-30.05Q51.07-27.78 51.39-24.70L51.39-24.70L51.97-19.84Q54.72-22.91 56.06-25.12Q57.41-27.33 57.54-29.06L57.54-29.06Q56.64-28.93 56.45-28.93L56.45-28.93Q54.85-28.93 54.14-29.92Q53.44-30.91 53.44-32.51L53.44-32.51Q53.44-34.11 54.69-34.88Q55.94-35.65 57.79-35.65L57.79-35.65Q59.46-35.65 60.42-33.89Q61.38-32.13 61.38-29.82L61.38-29.82Q61.38-27.01 59.46-24.16Q57.54-21.31 52.48-15.87L52.48-15.87L53.06-11.39Q53.44-8.32 54.37-7.07Q55.30-5.82 57.02-5.82L57.02-5.82Q58.88-5.82 60.48-7.39Q62.08-8.96 62.78-11.46L62.78-11.46L65.47-11.46Q63.17-4.80 59.58-2.21Q56 0.38 52.42 0.38L52.42 0.38ZM69.12 0.38Q66.05 0.38 64.16-1.54Q62.27-3.46 62.27-7.30L62.27-7.30Q62.27-8.90 62.78-11.46L62.78-11.46L66.62-29.44L64.51-29.44L65.02-32L67.14-32L69.06-40.83L78.53-42.11L76.35-32L80.19-32L79.68-29.44L75.84-29.44L71.74-10.24Q71.49-9.28 71.49-8.19L71.49-8.19Q71.49-6.91 72.10-6.37Q72.70-5.82 74.11-5.82L74.11-5.82Q75.97-5.82 77.57-7.39Q79.17-8.96 79.87-11.46L79.87-11.46L82.56-11.46Q80.19-4.54 76.48-2.08Q72.77 0.38 69.12 0.38L69.12 0.38ZM77.44 0L84.22-32L93.44-32L92.61-28.03Q94.78-29.95 96.54-30.98Q98.30-32 100.35-32L100.35-32Q102.40-32 103.58-30.59Q104.77-29.18 104.77-27.20L104.77-27.20Q104.77-25.34 103.55-23.94Q102.34-22.53 100.16-22.53L100.16-22.53Q98.75-22.53 98.27-23.20Q97.79-23.87 97.54-25.15L97.54-25.15Q97.34-25.98 97.15-26.37Q96.96-26.75 96.45-26.75L96.45-26.75Q95.10-26.75 94.18-26.21Q93.25-25.66 91.78-24.32L91.78-24.32L86.66 0L77.44 0ZM111.62 0.38Q107.97 0.38 105.54-2.11Q103.10-4.61 103.10-9.92L103.10-9.92Q103.10-14.66 104.99-19.87Q106.88-25.09 110.62-28.70Q114.37-32.32 119.55-32.32L119.55-32.32Q122.18-32.32 123.46-31.42Q124.74-30.53 124.74-29.06L124.74-29.06L124.74-28.61L125.44-32L134.66-32L130.05-10.24Q129.79-9.28 129.79-8.19L129.79-8.19Q129.79-5.44 132.42-5.44L132.42-5.44Q134.21-5.44 135.52-7.10Q136.83-8.77 137.60-11.46L137.60-11.46L140.29-11.46Q137.92-4.54 134.43-2.08Q130.94 0.38 127.42 0.38L127.42 0.38Q124.74 0.38 123.10-1.12Q121.47-2.62 121.15-5.50L121.15-5.50Q119.30-2.88 117.02-1.25Q114.75 0.38 111.62 0.38L111.62 0.38ZM115.78-5.82Q117.38-5.82 118.94-7.33Q120.51-8.83 121.09-11.46L121.09-11.46L124.16-25.92Q124.16-26.75 123.52-27.55Q122.88-28.35 121.54-28.35L121.54-28.35Q118.98-28.35 116.93-25.38Q114.88-22.40 113.73-18.21Q112.58-14.02 112.58-10.82L112.58-10.82Q112.58-7.62 113.50-6.72Q114.43-5.82 115.78-5.82L115.78-5.82ZM146.75 0.38Q142.02 0.38 139.39-2.08Q136.77-4.54 136.77-9.79L136.77-9.79Q136.77-14.21 138.53-19.52Q140.29-24.83 144.16-28.70Q148.03-32.58 153.98-32.58L153.98-32.58Q157.82-32.58 159.46-30.91Q161.09-29.25 161.09-26.69L161.09-26.69Q161.09-24.45 160.13-23.23Q159.17-22.02 157.70-22.02L157.70-22.02Q156.61-22.02 155.46-22.78L155.46-22.78Q156.22-24.90 156.22-26.56L156.22-26.56Q156.22-27.78 155.78-28.48Q155.33-29.18 154.43-29.18L154.43-29.18Q152.51-29.18 150.59-26.05Q148.67-22.91 147.46-18.43Q146.24-13.95 146.24-10.37L146.24-10.37Q146.24-7.23 147.33-6.11Q148.42-4.99 150.85-4.99L150.85-4.99Q154.30-4.99 156.77-6.59Q159.23-8.19 162.18-11.46L162.18-11.46L164.35-11.46Q157.25 0.38 146.75 0.38L146.75 0.38ZM168.51 0.38Q165.44 0.38 163.55-1.54Q161.66-3.46 161.66-7.30L161.66-7.30Q161.66-8.90 162.18-11.46L162.18-11.46L166.02-29.44L163.90-29.44L164.42-32L166.53-32L168.45-40.83L177.92-42.11L175.74-32L179.58-32L179.07-29.44L175.23-29.44L171.14-10.24Q170.88-9.28 170.88-8.19L170.88-8.19Q170.88-6.91 171.49-6.37Q172.10-5.82 173.50-5.82L173.50-5.82Q175.36-5.82 176.96-7.39Q178.56-8.96 179.26-11.46L179.26-11.46L181.95-11.46Q179.58-4.54 175.87-2.08Q172.16 0.38 168.51 0.38L168.51 0.38ZM221.06 1.09Q216.06 1.09 216.06-3.20L216.06-3.20Q216.06-4.61 216.48-6.43Q216.90-8.26 217.66-11.14L217.66-11.14Q218.56-14.14 219.01-16.26Q219.46-18.37 219.46-20.03L219.46-20.03Q219.46-24.38 215.62-24.38L215.62-24.38Q214.59-24.38 213.50-24.13L213.50-24.13L208.38 0L199.17 0L207.87-40.70L217.34-41.98L214.21-27.20L214.72-27.20Q217.22-27.20 219.33-28.93Q221.44-30.66 222.62-33.25Q223.81-35.84 223.81-38.34L223.81-38.34Q223.81-41.28 222.05-43.17Q220.29-45.06 216.77-45.06L216.77-45.06Q211.58-45.06 207.68-43.20Q203.78-41.34 201.63-37.82Q199.49-34.30 199.49-29.50L199.49-29.50Q199.49-27.14 199.94-26.21Q200.38-25.28 200.38-25.15L200.38-25.15Q196.93-25.15 195.23-26.59Q193.54-28.03 193.54-31.36L193.54-31.36Q193.54-35.46 196.90-39.33Q200.26-43.20 205.50-45.60Q210.75-48 216-48L216-48Q220.80-48 224.06-46.59Q227.33-45.18 228.93-42.85Q230.53-40.51 230.53-37.76L230.53-37.76Q230.53-34.75 228.67-31.74Q226.82-28.74 223.62-26.82L223.62-26.82Q226.05-26.11 227.04-24.48Q228.03-22.85 228.03-20.42L228.03-20.42Q228.03-18.56 227.58-16.48Q227.14-14.40 226.30-11.33L226.30-11.33Q225.79-9.34 225.34-7.42Q224.90-5.50 224.90-4.22L224.90-4.22Q224.90-2.75 225.57-1.60Q226.24-0.45 227.39 0L227.39 0Q223.49 1.09 221.06 1.09L221.06 1.09ZM240.96 0.26Q236.22 0.26 233.47-2.18Q230.72-4.61 230.72-9.86L230.72-9.86Q230.72-14.21 232.51-19.52Q234.30-24.83 238.27-28.70Q242.24-32.58 248.26-32.58L248.26-32.58Q256.45-32.58 256.45-22.34L256.45-22.34L256.45-22.27Q256.64-22.21 257.15-22.21L257.15-22.21Q259.26-22.21 262.02-23.33Q264.77-24.45 267.01-26.05L267.01-26.05L267.58-24.32Q265.73-22.34 262.75-20.96Q259.78-19.58 256.26-19.01L256.26-19.01Q255.74-13.18 253.63-8.83Q251.52-4.48 248.19-2.11Q244.86 0.26 240.96 0.26L240.96 0.26ZM243.52-5.50Q245.06-5.50 246.59-7.26Q248.13-9.02 249.28-12.06Q250.43-15.10 250.94-18.82L250.94-18.82Q249.22-19.20 249.22-21.50L249.22-21.50Q249.22-24.13 251.20-24.96L251.20-24.96Q251.07-27.07 250.56-27.87Q250.05-28.67 248.77-28.67L248.77-28.67Q246.66-28.67 244.67-25.60Q242.69-22.53 241.47-18.24Q240.26-13.95 240.26-10.69L240.26-10.69Q240.26-7.62 240.96-6.56Q241.66-5.50 243.52-5.50L243.52-5.50ZM268.22 0.38Q263.87 0.38 261.57-1.76Q259.26-3.90 259.26-7.81L259.26-7.81Q259.26-9.73 259.71-11.46L259.71-11.46L266.56-43.52L276.03-44.80L272.96-30.40Q274.75-31.49 275.90-31.84Q277.06-32.19 278.21-32.19L278.21-32.19Q285.76-32.19 285.76-21.25L285.76-21.25Q285.76-16.83 284.06-11.81Q282.37-6.78 278.43-3.20Q274.50 0.38 268.22 0.38L268.22 0.38ZM271.81-5.82Q273.79-5.82 275.52-8.29Q277.25-10.75 278.27-14.43Q279.30-18.11 279.30-21.50L279.30-21.50Q279.30-24.06 278.40-25.86Q277.50-27.65 275.90-27.65L275.90-27.65Q274.94-27.65 273.76-27.36Q272.58-27.07 272.13-26.50L272.13-26.50L268.61-10.24Q268.42-9.47 268.42-8.77L268.42-8.77Q268.42-5.82 271.81-5.82L271.81-5.82ZM294.46 0.38Q291.39 0.38 289.50-1.54Q287.62-3.46 287.62-7.30L287.62-7.30Q287.62-8.90 288.13-11.46L288.13-11.46L294.98-43.52L304.45-44.80L297.09-10.24Q296.83-9.28 296.83-8.19L296.83-8.19Q296.83-6.91 297.44-6.37Q298.05-5.82 299.46-5.82L299.46-5.82Q301.31-5.82 302.91-7.39Q304.51-8.96 305.22-11.46L305.22-11.46L307.90-11.46Q305.54-4.54 301.82-2.08Q298.11 0.38 294.46 0.38L294.46 0.38ZM314.56 0.26Q309.82 0.26 307.07-2.18Q304.32-4.61 304.32-9.86L304.32-9.86Q304.32-14.21 306.11-19.52Q307.90-24.83 311.87-28.70Q315.84-32.58 321.86-32.58L321.86-32.58Q330.05-32.58 330.05-22.34L330.05-22.34L330.05-22.27Q330.24-22.21 330.75-22.21L330.75-22.21Q332.86-22.21 335.62-23.33Q338.37-24.45 340.61-26.05L340.61-26.05L341.18-24.32Q339.33-22.34 336.35-20.96Q333.38-19.58 329.86-19.01L329.86-19.01Q329.34-13.18 327.23-8.83Q325.12-4.48 321.79-2.11Q318.46 0.26 314.56 0.26L314.56 0.26ZM317.12-5.50Q318.66-5.50 320.19-7.26Q321.73-9.02 322.88-12.06Q324.03-15.10 324.54-18.82L324.54-18.82Q322.82-19.20 322.82-21.50L322.82-21.50Q322.82-24.13 324.80-24.96L324.80-24.96Q324.67-27.07 324.16-27.87Q323.65-28.67 322.37-28.67L322.37-28.67Q320.26-28.67 318.27-25.60Q316.29-22.53 315.07-18.24Q313.86-13.95 313.86-10.69L313.86-10.69Q313.86-7.62 314.56-6.56Q315.26-5.50 317.12-5.50L317.12-5.50ZM356.35 0.38Q353.41 0.38 351.46-2.30Q349.50-4.99 348.54-10.75L348.54-10.75L339.71 0L335.10 0L348.03-14.59L347.01-21.76Q346.50-24.90 345.95-25.98Q345.41-27.07 344.58-27.07L344.58-27.07Q343.30-27.07 341.70-25.31Q340.10-23.55 338.59-20Q337.09-16.45 336-11.46L336-11.46L333.31-11.46Q335.17-20.16 338.85-26.24Q342.53-32.32 348.42-32.32L348.42-32.32Q351.87-32.32 353.44-30.05Q355.01-27.78 355.33-24.70L355.33-24.70L355.90-19.84Q358.66-22.91 360-25.12Q361.34-27.33 361.47-29.06L361.47-29.06Q360.58-28.93 360.38-28.93L360.38-28.93Q358.78-28.93 358.08-29.92Q357.38-30.91 357.38-32.51L357.38-32.51Q357.38-34.11 358.62-34.88Q359.87-35.65 361.73-35.65L361.73-35.65Q363.39-35.65 364.35-33.89Q365.31-32.13 365.31-29.82L365.31-29.82Q365.31-27.01 363.39-24.16Q361.47-21.31 356.42-15.87L356.42-15.87L356.99-11.39Q357.38-8.32 358.30-7.07Q359.23-5.82 360.96-5.82L360.96-5.82Q362.82-5.82 364.42-7.39Q366.02-8.96 366.72-11.46L366.72-11.46L369.41-11.46Q367.10-4.80 363.52-2.21Q359.94 0.38 356.35 0.38L356.35 0.38ZM394.56 7.30Q392.19 7.30 390.40 6.91Q388.61 6.53 387.30 5.06Q385.98 3.58 385.98 0.51L385.98 0.51Q385.98-3.78 388.58-11.01Q391.17-18.24 395.39-25.54L395.39-25.54Q392.19-25.34 390.34-24.58Q388.48-23.81 387.90-22.21L387.90-22.21Q388.16-22.21 388.45-21.57Q388.74-20.93 388.74-20.22L388.74-20.22Q388.74-19.07 387.71-18.40Q386.69-17.73 385.15-17.73L385.15-17.73Q383.36-17.73 382.27-18.69Q381.18-19.65 381.18-21.44L381.18-21.44Q381.18-23.62 382.88-25.41Q384.58-27.20 387.58-28.26Q390.59-29.31 394.24-29.31L394.24-29.31Q395.58-29.31 397.57-29.12L397.57-29.12Q402.82-37.44 408.67-42.72Q414.53-48 419.84-48L419.84-48Q422.91-48 424.90-47.10L424.90-47.10L414.85 0L405.63 0L410.56-23.23Q408.19-24.32 406.21-24.83Q404.22-25.34 401.98-25.54L401.98-25.54Q398.34-17.66 396-9.44Q393.66-1.22 393.66 3.71L393.66 3.71Q393.66 6.14 394.56 7.30L394.56 7.30ZM411.14-26.05L414.85-43.46Q412.10-41.98 409.12-37.98Q406.14-33.98 403.33-28.29L403.33-28.29Q407.94-27.39 411.14-26.05L411.14-26.05ZM446.46 0.38Q442.56 0.38 440.74-1.70Q438.91-3.78 438.91-6.85L438.91-6.85Q438.91-8.19 439.23-9.89Q439.55-11.58 439.90-13.18Q440.26-14.78 440.38-15.23L440.38-15.23Q440.90-17.47 441.34-19.65Q441.79-21.82 441.79-23.17L441.79-23.17Q441.79-26.43 439.49-26.43L439.49-26.43Q437.82-26.43 436.54-24.80Q435.26-23.17 434.50-20.54L434.50-20.54L430.14 0L420.93 0L427.71-32L436.93-32L436.22-28.67Q439.42-32.26 443.71-32.26L443.71-32.26Q446.98-32.26 448.90-30.46Q450.82-28.67 450.82-25.02L450.82-25.02Q450.82-23.17 450.37-20.90Q449.92-18.62 449.09-15.36L449.09-15.36Q448.58-13.38 448.16-11.49Q447.74-9.60 447.74-8.51L447.74-8.51Q447.74-7.23 448.32-6.53Q448.90-5.82 450.30-5.82L450.30-5.82Q452.22-5.82 453.38-7.20Q454.53-8.58 455.68-11.46L455.68-11.46L458.37-11.46Q456-4.42 452.90-2.02Q449.79 0.38 446.46 0.38L446.46 0.38ZM463.36 0.38Q459.71 0.38 457.28-2.11Q454.85-4.61 454.85-9.92L454.85-9.92Q454.85-14.66 456.74-19.87Q458.62-25.09 462.37-28.70Q466.11-32.32 471.30-32.32L471.30-32.32Q473.92-32.32 475.20-31.42Q476.48-30.53 476.48-29.06L476.48-29.06L476.48-28.61L477.18-32L486.40-32L481.79-10.24Q481.54-9.28 481.54-8.19L481.54-8.19Q481.54-5.44 484.16-5.44L484.16-5.44Q485.95-5.44 487.26-7.10Q488.58-8.77 489.34-11.46L489.34-11.46L492.03-11.46Q489.66-4.54 486.18-2.08Q482.69 0.38 479.17 0.38L479.17 0.38Q476.48 0.38 474.85-1.12Q473.22-2.62 472.90-5.50L472.90-5.50Q471.04-2.88 468.77-1.25Q466.50 0.38 463.36 0.38L463.36 0.38ZM467.52-5.82Q469.12-5.82 470.69-7.33Q472.26-8.83 472.83-11.46L472.83-11.46L475.90-25.92Q475.90-26.75 475.26-27.55Q474.62-28.35 473.28-28.35L473.28-28.35Q470.72-28.35 468.67-25.38Q466.62-22.40 465.47-18.21Q464.32-14.02 464.32-10.82L464.32-10.82Q464.32-7.62 465.25-6.72Q466.18-5.82 467.52-5.82L467.52-5.82ZM495.68 0.38Q492.61 0.38 490.72-1.54Q488.83-3.46 488.83-7.30L488.83-7.30Q488.83-8.90 489.34-11.46L489.34-11.46L496.19-43.52L505.66-44.80L498.30-10.24Q498.05-9.28 498.05-8.19L498.05-8.19Q498.05-6.91 498.66-6.37Q499.26-5.82 500.67-5.82L500.67-5.82Q502.53-5.82 504.13-7.39Q505.73-8.96 506.43-11.46L506.43-11.46L509.12-11.46Q506.75-4.54 503.04-2.08Q499.33 0.38 495.68 0.38L495.68 0.38ZM516.42 16Q513.34 16 511.30 14.40Q509.25 12.80 509.25 9.79L509.25 9.79Q509.25 6.14 512.19 3.94Q515.14 1.73 519.68 0.26L519.68 0.26L520.45-3.20Q518.59-1.15 516.67-0.38Q514.75 0.38 512.77 0.38L512.77 0.38Q509.70 0.38 507.81-1.54Q505.92-3.46 505.92-7.30L505.92-7.30Q505.92-8.90 506.43-11.46L506.43-11.46L510.78-32L520-32L515.39-10.24Q515.20-9.47 515.20-8.64L515.20-8.64Q515.20-5.82 517.12-5.82L517.12-5.82Q518.78-5.82 520.06-7.26Q521.34-8.70 522.11-11.07L522.11-11.07L526.59-32L535.81-32L529.47-2.30Q532.54-3.33 534.40-5.38Q536.26-7.42 537.54-11.46L537.54-11.46L540.22-11.46Q538.50-5.76 535.55-3.10Q532.61-0.45 528.90 0.51L528.90 0.51L527.94 5.12Q526.66 11.33 523.52 13.66Q520.38 16 516.42 16L516.42 16ZM514.94 11.01Q516.03 11.01 517.06 9.54Q518.08 8.06 518.66 5.31L518.66 5.31L519.04 3.46Q512.77 5.76 512.77 8.90L512.77 8.90Q512.77 9.73 513.34 10.37Q513.92 11.01 514.94 11.01L514.94 11.01ZM543.87 0.38Q540.80 0.38 538.91-1.54Q537.02-3.46 537.02-7.30L537.02-7.30Q537.02-8.90 537.54-11.46L537.54-11.46L541.38-29.44L539.26-29.44L539.78-32L541.89-32L543.81-40.83L553.28-42.11L551.10-32L554.94-32L554.43-29.44L550.59-29.44L546.50-10.24Q546.24-9.28 546.24-8.19L546.24-8.19Q546.24-6.91 546.85-6.37Q547.46-5.82 548.86-5.82L548.86-5.82Q550.72-5.82 552.32-7.39Q553.92-8.96 554.62-11.46L554.62-11.46L557.31-11.46Q554.94-4.54 551.23-2.08Q547.52 0.38 543.87 0.38L543.87 0.38ZM565.31-35.46Q563.20-35.46 561.73-36.93Q560.26-38.40 560.26-40.51L560.26-40.51Q560.26-42.62 561.73-44.13Q563.20-45.63 565.31-45.63L565.31-45.63Q567.42-45.63 568.93-44.13Q570.43-42.62 570.43-40.51L570.43-40.51Q570.43-38.40 568.93-36.93Q567.42-35.46 565.31-35.46L565.31-35.46ZM560.96 0.38Q557.89 0.38 556-1.54Q554.11-3.46 554.11-7.30L554.11-7.30Q554.11-8.90 554.62-11.46L554.62-11.46L558.98-32L568.19-32L563.58-10.24Q563.33-9.28 563.33-8.19L563.33-8.19Q563.33-6.91 563.94-6.37Q564.54-5.82 565.95-5.82L565.95-5.82Q567.81-5.82 569.41-7.39Q571.01-8.96 571.71-11.46L571.71-11.46L574.40-11.46Q572.03-4.54 568.32-2.08Q564.61 0.38 560.96 0.38L560.96 0.38ZM580.86 0.38Q576.13 0.38 573.50-2.08Q570.88-4.54 570.88-9.79L570.88-9.79Q570.88-14.21 572.64-19.52Q574.40-24.83 578.27-28.70Q582.14-32.58 588.10-32.58L588.10-32.58Q591.94-32.58 593.57-30.91Q595.20-29.25 595.20-26.69L595.20-26.69Q595.20-24.45 594.24-23.23Q593.28-22.02 591.81-22.02L591.81-22.02Q590.72-22.02 589.57-22.78L589.57-22.78Q590.34-24.90 590.34-26.56L590.34-26.56Q590.34-27.78 589.89-28.48Q589.44-29.18 588.54-29.18L588.54-29.18Q586.62-29.18 584.70-26.05Q582.78-22.91 581.57-18.43Q580.35-13.95 580.35-10.37L580.35-10.37Q580.35-7.23 581.44-6.11Q582.53-4.99 584.96-4.99L584.96-4.99Q588.42-4.99 590.88-6.59Q593.34-8.19 596.29-11.46L596.29-11.46L598.46-11.46Q591.36 0.38 580.86 0.38L580.86 0.38ZM603.58 0.38Q600.51 0.38 598.40-0.80Q596.29-1.98 595.26-3.87Q594.24-5.76 594.24-7.81L594.24-7.81Q594.24-9.92 595.23-11.49Q596.22-13.06 597.63-13.76L597.63-13.76Q600.13-18.24 601.98-22.82Q603.84-27.39 605.50-32.70L605.50-32.70L614.98-33.98Q615.30-25.79 616.06-16.26L616.06-16.26Q616.38-12.42 616.38-10.69L616.38-10.69Q616.38-9.22 616.13-8.26L616.13-8.26Q619.14-9.98 620.74-11.46L620.74-11.46L623.42-11.46Q619.33-6.72 613.63-3.46L613.63-3.46Q611.78-1.47 609.06-0.54Q606.34 0.38 603.58 0.38L603.58 0.38ZM601.54-4.67Q603.90-4.67 605.50-6.08Q607.10-7.49 607.10-10.62L607.10-10.62Q607.10-12.54 606.72-16L606.72-16Q606.08-23.30 605.89-25.79L605.89-25.79Q604.35-20.74 600.70-13.70L600.70-13.70Q602.18-12.93 602.18-11.46L602.18-11.46Q602.18-10.24 601.38-9.28Q600.58-8.32 599.36-8.32L599.36-8.32Q598.02-8.32 597.63-9.15L597.63-9.15Q597.63-6.85 598.56-5.76Q599.49-4.67 601.54-4.67L601.54-4.67Z" fill="#00cec9"/></svg>
