<svg xmlns="http://www.w3.org/2000/svg" viewBox="-3.23 -52.32 431.04 72.32" width="250" height="42"><path d="M6.40 0L15.68-43.52Q11.39-41.73 9.06-38.14Q6.72-34.56 6.72-29.50L6.72-29.50Q6.72-27.14 7.17-26.21Q7.62-25.28 7.62-25.15L7.62-25.15Q4.16-25.15 2.46-26.59Q0.77-28.03 0.77-31.36L0.77-31.36Q0.77-35.46 4.13-39.33Q7.49-43.20 12.74-45.60Q17.98-48 23.23-48L23.23-48Q24.13-48 25.79-47.87L25.79-47.87L21.70-28.80L31.10-28.80L35.20-47.87L44.42-47.87L34.24 0L25.02 0L30.14-24.06L20.74-24.06L15.62 0L6.40 0ZM51.90 0.26Q47.17 0.26 44.42-2.18Q41.66-4.61 41.66-9.86L41.66-9.86Q41.66-14.21 43.46-19.52Q45.25-24.83 49.22-28.70Q53.18-32.58 59.20-32.58L59.20-32.58Q67.39-32.58 67.39-22.34L67.39-22.34L67.39-22.27Q67.58-22.21 68.10-22.21L68.10-22.21Q70.21-22.21 72.96-23.33Q75.71-24.45 77.95-26.05L77.95-26.05L78.53-24.32Q76.67-22.34 73.70-20.96Q70.72-19.58 67.20-19.01L67.20-19.01Q66.69-13.18 64.58-8.83Q62.46-4.48 59.14-2.11Q55.81 0.26 51.90 0.26L51.90 0.26ZM54.46-5.50Q56-5.50 57.54-7.26Q59.07-9.02 60.22-12.06Q61.38-15.10 61.89-18.82L61.89-18.82Q60.16-19.20 60.16-21.50L60.16-21.50Q60.16-24.13 62.14-24.96L62.14-24.96Q62.02-27.07 61.50-27.87Q60.99-28.67 59.71-28.67L59.71-28.67Q57.60-28.67 55.62-25.60Q53.63-22.53 52.42-18.24Q51.20-13.95 51.20-10.69L51.20-10.69Q51.20-7.62 51.90-6.56Q52.61-5.50 54.46-5.50L54.46-5.50ZM68.22 0L75.01-32L84.22-32L83.39-28.03Q85.57-29.95 87.33-30.98Q89.09-32 91.14-32L91.14-32Q93.18-32 94.37-30.59Q95.55-29.18 95.55-27.20L95.55-27.20Q95.55-25.34 94.34-23.94Q93.12-22.53 90.94-22.53L90.94-22.53Q89.54-22.53 89.06-23.20Q88.58-23.87 88.32-25.15L88.32-25.15Q88.13-25.98 87.94-26.37Q87.74-26.75 87.23-26.75L87.23-26.75Q85.89-26.75 84.96-26.21Q84.03-25.66 82.56-24.32L82.56-24.32L77.44 0L68.22 0ZM133.63 0.38Q129.73 0.38 127.90-1.70Q126.08-3.78 126.08-6.85L126.08-6.85Q126.08-8.19 126.40-9.89Q126.72-11.58 127.07-13.18Q127.42-14.78 127.55-15.23L127.55-15.23Q128.06-17.47 128.51-19.65Q128.96-21.82 128.96-23.17L128.96-23.17Q128.96-26.43 126.66-26.43L126.66-26.43Q124.99-26.43 123.71-24.80Q122.43-23.17 121.66-20.54L121.66-20.54L117.31 0L108.10 0L112.77-22.08Q112.96-22.85 112.96-23.68L112.96-23.68Q112.96-26.50 111.04-26.50L111.04-26.50Q109.25-26.50 107.94-24.86Q106.62-23.23 105.86-20.54L105.86-20.54L101.50 0L92.29 0L99.07-32L108.29-32L107.58-28.67Q110.85-32.32 115.39-32.32L115.39-32.32Q121.02-32.32 121.98-26.82L121.98-26.82Q125.50-32.26 130.88-32.26L130.88-32.26Q134.14-32.26 136.06-30.46Q137.98-28.67 137.98-25.02L137.98-25.02Q137.98-23.17 137.54-20.90Q137.09-18.62 136.26-15.36L136.26-15.36Q135.74-13.38 135.33-11.49Q134.91-9.60 134.91-8.51L134.91-8.51Q134.91-7.23 135.49-6.53Q136.06-5.82 137.47-5.82L137.47-5.82Q139.39-5.82 140.54-7.20Q141.70-8.58 142.85-11.46L142.85-11.46L145.54-11.46Q143.17-4.42 140.06-2.02Q136.96 0.38 133.63 0.38L133.63 0.38ZM149.18 0.38Q146.11 0.38 144.22-1.54Q142.34-3.46 142.34-7.30L142.34-7.30Q142.34-8.90 142.85-11.46L142.85-11.46L147.20-32L156.42-32L151.81-10.24Q151.62-9.28 151.62-8.45L151.62-8.45Q151.62-5.82 153.54-5.82L153.54-5.82Q155.33-5.82 156.61-7.33Q157.89-8.83 158.66-11.46L158.66-11.46L163.01-32L172.22-32L167.62-10.24Q167.36-9.28 167.36-8.19L167.36-8.19Q167.36-6.91 167.97-6.37Q168.58-5.82 169.98-5.82L169.98-5.82Q171.78-5.82 173.09-7.36Q174.40-8.90 175.17-11.46L175.17-11.46L177.86-11.46Q175.49-4.54 172-2.08Q168.51 0.38 164.99 0.38L164.99 0.38Q162.24 0.38 160.61-1.15Q158.98-2.69 158.66-5.70L158.66-5.70Q156.48-2.18 154.08-0.90Q151.68 0.38 149.18 0.38L149.18 0.38ZM175.17 0L191.49-28.54L187.90-28.54Q186.11-28.54 185.25-28.35Q184.38-28.16 184.38-27.52L184.38-27.52Q184.38-27.39 184.74-27.23Q185.09-27.07 185.09-26.11L185.09-26.11Q185.09-24.45 184.06-23.58Q183.04-22.72 181.63-22.72L181.63-22.72Q180.42-22.72 179.55-23.46Q178.69-24.19 178.69-25.54L178.69-25.54Q178.69-26.88 179.62-28.42Q180.54-29.95 182.24-30.98Q183.94-32 186.11-32L186.11-32L202.56-32L186.88-4.93Q187.26-4.93 188.29-4.80L188.29-4.80Q190.46-4.54 191.74-4.54L191.74-4.54Q194.50-4.54 194.75-5.82L194.75-5.82Q194.18-5.89 193.86-6.24Q193.54-6.59 193.54-7.17L193.54-7.17Q193.54-8.19 194.50-9.06Q195.46-9.92 197.12-9.92L197.12-9.92Q198.53-9.92 199.23-9.09Q199.94-8.26 199.94-6.85L199.94-6.85Q199.94-5.31 198.98-3.71Q198.02-2.11 196.22-1.06Q194.43 0 192.13 0L192.13 0L175.17 0ZM232.13 1.15Q228.10 1.15 225.02-0.26Q221.95-1.66 220.29-4.19Q218.62-6.72 218.62-10.05L218.62-10.05Q218.62-12.86 219.81-15.17Q220.99-17.47 223.01-18.82Q225.02-20.16 227.46-20.16L227.46-20.16Q229.70-20.16 231.23-19.04Q232.77-17.92 233.15-15.94L233.15-15.94Q229.82-15.94 227.84-14.18Q225.86-12.42 225.86-9.41L225.86-9.41Q225.86-6.66 227.52-4.99Q229.18-3.33 231.94-3.33L231.94-3.33Q235.33-3.33 237.54-5.60Q239.74-7.87 239.74-11.33L239.74-11.33Q239.74-14.34 238.08-17.02Q236.42-19.71 233.09-23.55L233.09-23.55Q229.63-27.52 227.87-30.37Q226.11-33.22 226.11-36.61L226.11-36.61Q226.11-39.94 227.97-42.59Q229.82-45.25 233.09-46.78Q236.35-48.32 240.45-48.32L240.45-48.32Q245.63-48.32 248.74-45.89Q251.84-43.46 251.84-39.36L251.84-39.36Q251.84-36.67 250.50-35.01Q249.15-33.34 246.98-33.34L246.98-33.34Q244.54-33.34 243.07-35.33L243.07-35.33Q244.29-36.22 244.99-37.70Q245.70-39.17 245.70-40.77L245.70-40.77Q245.70-42.82 244.48-44.03Q243.26-45.25 241.15-45.25L241.15-45.25Q238.59-45.25 236.96-43.42Q235.33-41.60 235.33-38.78L235.33-38.78Q235.33-36.22 236.80-34.02Q238.27-31.81 241.41-28.35L241.41-28.35Q243.97-25.60 245.54-23.62Q247.10-21.63 248.22-19.04Q249.34-16.45 249.34-13.44L249.34-13.44Q249.34-9.34 247.07-6.02Q244.80-2.69 240.86-0.77Q236.93 1.15 232.13 1.15L232.13 1.15ZM259.26 0.38Q256.19 0.38 254.30-1.54Q252.42-3.46 252.42-7.30L252.42-7.30Q252.42-8.90 252.93-11.46L252.93-11.46L257.28-32L266.50-32L261.89-10.24Q261.70-9.47 261.70-8.64L261.70-8.64Q261.70-5.82 263.62-5.82L263.62-5.82Q265.41-5.82 266.69-7.33Q267.97-8.83 268.74-11.46L268.74-11.46L273.09-32L282.30-32L277.70-10.24Q277.38-8.64 277.38-7.94L277.38-7.94Q277.38-5.82 279.55-5.82L279.55-5.82Q282.50-5.82 285.02-9.54Q287.55-13.25 289.09-18.37Q290.62-23.49 290.62-27.20L290.62-27.20Q290.50-26.88 289.79-26.72Q289.09-26.56 288.58-26.56L288.58-26.56Q287.49-26.56 286.88-27.58Q286.27-28.61 286.27-29.82L286.27-29.82Q286.27-31.36 287.26-32.32Q288.26-33.28 290.24-33.28L290.24-33.28Q292.35-33.28 293.31-31.71Q294.27-30.14 294.27-27.71L294.27-27.71Q294.27-21.95 292.29-15.39Q290.30-8.83 286.21-4.22Q282.11 0.38 276.03 0.38L276.03 0.38Q272.90 0.38 270.91-0.96Q268.93-2.30 268.35-4.99L268.35-4.99Q264.77 0.38 259.26 0.38L259.26 0.38ZM304.38 0.38Q299.65 0.38 297.02-2.08Q294.40-4.54 294.40-9.79L294.40-9.79Q294.40-14.21 296.13-19.52Q297.86-24.83 301.76-28.70Q305.66-32.58 311.68-32.58L311.68-32.58Q318.72-32.58 318.72-26.43L318.72-26.43Q318.72-22.85 316.67-19.84Q314.62-16.83 311.23-15.01Q307.84-13.18 304-12.93L304-12.93Q303.87-11.01 303.87-10.37L303.87-10.37Q303.87-7.23 304.96-6.11Q306.05-4.99 308.48-4.99L308.48-4.99Q311.94-4.99 314.40-6.59Q316.86-8.19 319.81-11.46L319.81-11.46L321.98-11.46Q314.88 0.38 304.38 0.38L304.38 0.38ZM304.51-16Q306.88-16.13 309.02-17.66Q311.17-19.20 312.48-21.57Q313.79-23.94 313.79-26.56L313.79-26.56Q313.79-29.18 312.19-29.18L312.19-29.18Q309.89-29.18 307.68-25.15Q305.47-21.12 304.51-16L304.51-16ZM328.96 0.38Q324.22 0.38 321.60-2.08Q318.98-4.54 318.98-9.79L318.98-9.79Q318.98-14.21 320.70-19.52Q322.43-24.83 326.34-28.70Q330.24-32.58 336.26-32.58L336.26-32.58Q343.30-32.58 343.30-26.43L343.30-26.43Q343.30-22.85 341.25-19.84Q339.20-16.83 335.81-15.01Q332.42-13.18 328.58-12.93L328.58-12.93Q328.45-11.01 328.45-10.37L328.45-10.37Q328.45-7.23 329.54-6.11Q330.62-4.99 333.06-4.99L333.06-4.99Q336.51-4.99 338.98-6.59Q341.44-8.19 344.38-11.46L344.38-11.46L346.56-11.46Q339.46 0.38 328.96 0.38L328.96 0.38ZM329.09-16Q331.46-16.13 333.60-17.66Q335.74-19.20 337.06-21.57Q338.37-23.94 338.37-26.56L338.37-26.56Q338.37-29.18 336.77-29.18L336.77-29.18Q334.46-29.18 332.26-25.15Q330.05-21.12 329.09-16L329.09-16ZM338.56 16L349.25-34.37L358.46-34.37L357.44-29.57Q360.64-32.32 364.93-32.32L364.93-32.32Q368.51-32.32 370.62-29.95Q372.74-27.58 372.74-22.21L372.74-22.21Q372.74-17.15 371.26-12Q369.79-6.85 366.27-3.23Q362.75 0.38 356.99 0.38L356.99 0.38Q352.90 0.38 351.55-1.92L351.55-1.92L348.22 13.70L338.56 16ZM355.01-5.18Q358.08-5.18 360.10-8.06Q362.11-10.94 363.04-14.94Q363.97-18.94 363.97-22.40L363.97-22.40Q363.97-27.71 360.77-27.71L360.77-27.71Q359.62-27.71 358.43-26.88Q357.25-26.05 356.35-24.58L356.35-24.58L352.58-6.66Q353.09-5.18 355.01-5.18L355.01-5.18ZM383.49 0.38Q378.75 0.38 376.13-2.08Q373.50-4.54 373.50-9.79L373.50-9.79Q373.50-14.21 375.23-19.52Q376.96-24.83 380.86-28.70Q384.77-32.58 390.78-32.58L390.78-32.58Q397.82-32.58 397.82-26.43L397.82-26.43Q397.82-22.85 395.78-19.84Q393.73-16.83 390.34-15.01Q386.94-13.18 383.10-12.93L383.10-12.93Q382.98-11.01 382.98-10.37L382.98-10.37Q382.98-7.23 384.06-6.11Q385.15-4.99 387.58-4.99L387.58-4.99Q391.04-4.99 393.50-6.59Q395.97-8.19 398.91-11.46L398.91-11.46L401.09-11.46Q393.98 0.38 383.49 0.38L383.49 0.38ZM383.62-16Q385.98-16.13 388.13-17.66Q390.27-19.20 391.58-21.57Q392.90-23.94 392.90-26.56L392.90-26.56Q392.90-29.18 391.30-29.18L391.30-29.18Q388.99-29.18 386.78-25.15Q384.58-21.12 383.62-16L383.62-16ZM396.48 0L403.26-32L412.48-32L411.65-28.03Q413.82-29.95 415.58-30.98Q417.34-32 419.39-32L419.39-32Q421.44-32 422.62-30.59Q423.81-29.18 423.81-27.20L423.81-27.20Q423.81-25.34 422.59-23.94Q421.38-22.53 419.20-22.53L419.20-22.53Q417.79-22.53 417.31-23.20Q416.83-23.87 416.58-25.15L416.58-25.15Q416.38-25.98 416.19-26.37Q416.00-26.75 415.49-26.75L415.49-26.75Q414.14-26.75 413.22-26.21Q412.29-25.66 410.82-24.32L410.82-24.32L405.70 0L396.48 0Z" fill="#0984e3"/></svg>
