<svg xmlns="http://www.w3.org/2000/svg" viewBox="-2.91 -52.32 388.67 72.32" width="226" height="42"><path d="M10.56 13.25Q6.02 13.25 3.55 10.78Q1.09 8.32 1.09 4.22L1.09 4.22Q1.09 0.77 3.20-1.79Q5.31-4.35 8.90-4.35L8.90-4.35Q11.65-4.35 13.41-3.55Q15.17-2.75 15.17-0.06L15.17-0.06Q15.17 1.09 14.78 2.50L14.78 2.50Q13.63 1.54 12.80 1.18Q11.97 0.83 10.94 0.83L10.94 0.83Q8.83 0.83 7.65 2.24Q6.46 3.65 6.46 5.57L6.46 5.57Q6.46 7.81 7.81 8.93Q9.15 10.05 10.82 10.05L10.82 10.05Q12.35 10.05 13.41 9.44Q14.46 8.83 15.30 7.14Q16.13 5.44 16.90 2.18L16.90 2.18L26.94-43.52Q22.66-41.79 20.29-38.21Q17.92-34.62 17.92-29.50L17.92-29.50Q17.92-27.14 18.37-26.21Q18.82-25.28 18.82-25.15L18.82-25.15Q15.36-25.15 13.66-26.59Q11.97-28.03 11.97-31.36L11.97-31.36Q11.97-35.46 15.33-39.33Q18.69-43.20 23.94-45.60Q29.18-48 34.43-48L34.43-48L36.99-48L27.39-2.56Q25.73 5.31 21.89 9.28Q18.05 13.25 10.56 13.25L10.56 13.25ZM40.64 0.38Q37.57 0.38 35.68-1.54Q33.79-3.46 33.79-7.30L33.79-7.30Q33.79-8.90 34.30-11.46L34.30-11.46L38.66-32L47.87-32L43.26-10.24Q43.07-9.28 43.07-8.45L43.07-8.45Q43.07-5.82 44.99-5.82L44.99-5.82Q46.78-5.82 48.06-7.33Q49.34-8.83 50.11-11.46L50.11-11.46L54.46-32L63.68-32L59.07-10.24Q58.82-9.28 58.82-8.19L58.82-8.19Q58.82-6.91 59.42-6.37Q60.03-5.82 61.44-5.82L61.44-5.82Q63.23-5.82 64.54-7.36Q65.86-8.90 66.62-11.46L66.62-11.46L69.31-11.46Q66.94-4.54 63.46-2.08Q59.97 0.38 56.45 0.38L56.45 0.38Q53.70 0.38 52.06-1.15Q50.43-2.69 50.11-5.70L50.11-5.70Q47.94-2.18 45.54-0.90Q43.14 0.38 40.64 0.38L40.64 0.38ZM77.31-35.46Q75.20-35.46 73.73-36.93Q72.26-38.40 72.26-40.51L72.26-40.51Q72.26-42.62 73.73-44.13Q75.20-45.63 77.31-45.63L77.31-45.63Q79.42-45.63 80.93-44.13Q82.43-42.62 82.43-40.51L82.43-40.51Q82.43-38.40 80.93-36.93Q79.42-35.46 77.31-35.46L77.31-35.46ZM72.96 0.38Q69.89 0.38 68-1.54Q66.11-3.46 66.11-7.30L66.11-7.30Q66.11-8.90 66.62-11.46L66.62-11.46L70.98-32L80.19-32L75.58-10.24Q75.33-9.28 75.33-8.19L75.33-8.19Q75.33-6.91 75.94-6.37Q76.54-5.82 77.95-5.82L77.95-5.82Q79.81-5.82 81.41-7.39Q83.01-8.96 83.71-11.46L83.71-11.46L86.40-11.46Q84.03-4.54 80.32-2.08Q76.61 0.38 72.96 0.38L72.96 0.38ZM92.86 0.38Q88.13 0.38 85.50-2.08Q82.88-4.54 82.88-9.79L82.88-9.79Q82.88-14.21 84.64-19.52Q86.40-24.83 90.27-28.70Q94.14-32.58 100.10-32.58L100.10-32.58Q103.94-32.58 105.57-30.91Q107.20-29.25 107.20-26.69L107.20-26.69Q107.20-24.45 106.24-23.23Q105.28-22.02 103.81-22.02L103.81-22.02Q102.72-22.02 101.57-22.78L101.57-22.78Q102.34-24.90 102.34-26.56L102.34-26.56Q102.34-27.78 101.89-28.48Q101.44-29.18 100.54-29.18L100.54-29.18Q98.62-29.18 96.70-26.05Q94.78-22.91 93.57-18.43Q92.35-13.95 92.35-10.37L92.35-10.37Q92.35-7.23 93.44-6.11Q94.53-4.99 96.96-4.99L96.96-4.99Q100.42-4.99 102.88-6.59Q105.34-8.19 108.29-11.46L108.29-11.46L110.46-11.46Q103.36 0.38 92.86 0.38L92.86 0.38ZM118.27 16Q115.20 16 113.15 14.40Q111.10 12.80 111.10 9.79L111.10 9.79Q111.10 6.14 114.05 3.94Q116.99 1.73 121.54 0.26L121.54 0.26L122.30-3.20Q120.45-1.15 118.53-0.38Q116.61 0.38 114.62 0.38L114.62 0.38Q111.55 0.38 109.66-1.54Q107.78-3.46 107.78-7.30L107.78-7.30Q107.78-8.90 108.29-11.46L108.29-11.46L112.64-32L121.86-32L117.25-10.24Q117.06-9.47 117.06-8.64L117.06-8.64Q117.06-5.82 118.98-5.82L118.98-5.82Q120.64-5.82 121.92-7.26Q123.20-8.70 123.97-11.07L123.97-11.07L128.45-32L137.66-32L131.33-2.30Q134.40-3.33 136.26-5.38Q138.11-7.42 139.39-11.46L139.39-11.46L142.08-11.46Q140.35-5.76 137.41-3.10Q134.46-0.45 130.75 0.51L130.75 0.51L129.79 5.12Q128.51 11.33 125.38 13.66Q122.24 16 118.27 16L118.27 16ZM116.80 11.01Q117.89 11.01 118.91 9.54Q119.94 8.06 120.51 5.31L120.51 5.31L120.90 3.46Q114.62 5.76 114.62 8.90L114.62 8.90Q114.62 9.73 115.20 10.37Q115.78 11.01 116.80 11.01L116.80 11.01ZM168.96 1.15Q164.93 1.15 161.86-0.26Q158.78-1.66 157.12-4.19Q155.46-6.72 155.46-10.05L155.46-10.05Q155.46-12.86 156.64-15.17Q157.82-17.47 159.84-18.82Q161.86-20.16 164.29-20.16L164.29-20.16Q166.53-20.16 168.06-19.04Q169.60-17.92 169.98-15.94L169.98-15.94Q166.66-15.94 164.67-14.18Q162.69-12.42 162.69-9.41L162.69-9.41Q162.69-6.66 164.35-4.99Q166.02-3.33 168.77-3.33L168.77-3.33Q172.16-3.33 174.37-5.60Q176.58-7.87 176.58-11.33L176.58-11.33Q176.58-14.34 174.91-17.02Q173.25-19.71 169.92-23.55L169.92-23.55Q166.46-27.52 164.70-30.37Q162.94-33.22 162.94-36.61L162.94-36.61Q162.94-39.94 164.80-42.59Q166.66-45.25 169.92-46.78Q173.18-48.32 177.28-48.32L177.28-48.32Q182.46-48.32 185.57-45.89Q188.67-43.46 188.67-39.36L188.67-39.36Q188.67-36.67 187.33-35.01Q185.98-33.34 183.81-33.34L183.81-33.34Q181.38-33.34 179.90-35.33L179.90-35.33Q181.12-36.22 181.82-37.70Q182.53-39.17 182.53-40.77L182.53-40.77Q182.53-42.82 181.31-44.03Q180.10-45.25 177.98-45.25L177.98-45.25Q175.42-45.25 173.79-43.42Q172.16-41.60 172.16-38.78L172.16-38.78Q172.16-36.22 173.63-34.02Q175.10-31.81 178.24-28.35L178.24-28.35Q180.80-25.60 182.37-23.62Q183.94-21.63 185.06-19.04Q186.18-16.45 186.18-13.44L186.18-13.44Q186.18-9.34 183.90-6.02Q181.63-2.69 177.70-0.77Q173.76 1.15 168.96 1.15L168.96 1.15ZM197.44 0.38Q193.79 0.38 191.36-2.11Q188.93-4.61 188.93-9.92L188.93-9.92Q188.93-14.66 190.82-19.87Q192.70-25.09 196.45-28.70Q200.19-32.32 205.38-32.32L205.38-32.32Q208-32.32 209.28-31.42Q210.56-30.53 210.56-29.06L210.56-29.06L210.56-28.61L211.26-32L220.48-32L215.87-10.24Q215.62-9.28 215.62-8.19L215.62-8.19Q215.62-5.44 218.24-5.44L218.24-5.44Q220.03-5.44 221.34-7.10Q222.66-8.77 223.42-11.46L223.42-11.46L226.11-11.46Q223.74-4.54 220.26-2.08Q216.77 0.38 213.25 0.38L213.25 0.38Q210.56 0.38 208.93-1.12Q207.30-2.62 206.98-5.50L206.98-5.50Q205.12-2.88 202.85-1.25Q200.58 0.38 197.44 0.38L197.44 0.38ZM201.60-5.82Q203.20-5.82 204.77-7.33Q206.34-8.83 206.91-11.46L206.91-11.46L209.98-25.92Q209.98-26.75 209.34-27.55Q208.70-28.35 207.36-28.35L207.36-28.35Q204.80-28.35 202.75-25.38Q200.70-22.40 199.55-18.21Q198.40-14.02 198.40-10.82L198.40-10.82Q198.40-7.62 199.33-6.72Q200.26-5.82 201.60-5.82L201.60-5.82ZM229.76 0.38Q226.69 0.38 224.80-1.54Q222.91-3.46 222.91-7.30L222.91-7.30Q222.91-8.90 223.42-11.46L223.42-11.46L227.26-29.44L225.15-29.44L225.66-32L227.78-32L229.70-40.83L239.17-42.11L236.99-32L240.83-32L240.32-29.44L236.48-29.44L232.38-10.24Q232.13-9.28 232.13-8.19L232.13-8.19Q232.13-6.91 232.74-6.37Q233.34-5.82 234.75-5.82L234.75-5.82Q236.61-5.82 238.21-7.39Q239.81-8.96 240.51-11.46L240.51-11.46L243.20-11.46Q240.83-4.54 237.12-2.08Q233.41 0.38 229.76 0.38L229.76 0.38ZM247.81 0.38Q244.74 0.38 242.62-0.80Q240.51-1.98 239.49-3.87Q238.46-5.76 238.46-7.81L238.46-7.81Q238.46-9.92 239.46-11.49Q240.45-13.06 241.86-13.76L241.86-13.76Q244.35-18.24 246.21-22.82Q248.06-27.39 249.73-32.70L249.73-32.70L259.20-33.98Q259.52-25.79 260.29-16.26L260.29-16.26Q260.61-12.42 260.61-10.69L260.61-10.69Q260.61-9.22 260.35-8.26L260.35-8.26Q263.36-9.98 264.96-11.46L264.96-11.46L267.65-11.46Q263.55-6.72 257.86-3.46L257.86-3.46Q256.00-1.47 253.28-0.54Q250.56 0.38 247.81 0.38L247.81 0.38ZM245.76-4.67Q248.13-4.67 249.73-6.08Q251.33-7.49 251.33-10.62L251.33-10.62Q251.33-12.54 250.94-16L250.94-16Q250.30-23.30 250.11-25.79L250.11-25.79Q248.58-20.74 244.93-13.70L244.93-13.70Q246.40-12.93 246.40-11.46L246.40-11.46Q246.40-10.24 245.60-9.28Q244.80-8.32 243.58-8.32L243.58-8.32Q242.24-8.32 241.86-9.15L241.86-9.15Q241.86-6.85 242.78-5.76Q243.71-4.67 245.76-4.67L245.76-4.67ZM271.30 0.38Q268.22 0.38 266.34-1.54Q264.45-3.46 264.45-7.30L264.45-7.30Q264.45-8.90 264.96-11.46L264.96-11.46L269.31-32L278.53-32L273.92-10.24Q273.73-9.28 273.73-8.45L273.73-8.45Q273.73-5.82 275.65-5.82L275.65-5.82Q277.44-5.82 278.72-7.33Q280-8.83 280.77-11.46L280.77-11.46L285.12-32L294.34-32L289.73-10.24Q289.47-9.28 289.47-8.19L289.47-8.19Q289.47-6.91 290.08-6.37Q290.69-5.82 292.10-5.82L292.10-5.82Q293.89-5.82 295.20-7.36Q296.51-8.90 297.28-11.46L297.28-11.46L299.97-11.46Q297.60-4.54 294.11-2.08Q290.62 0.38 287.10 0.38L287.10 0.38Q284.35 0.38 282.72-1.15Q281.09-2.69 280.77-5.70L280.77-5.70Q278.59-2.18 276.19-0.90Q273.79 0.38 271.30 0.38L271.30 0.38ZM336.19 0.38Q332.29 0.38 330.46-1.70Q328.64-3.78 328.64-6.85L328.64-6.85Q328.64-8.19 328.96-9.89Q329.28-11.58 329.63-13.18Q329.98-14.78 330.11-15.23L330.11-15.23Q330.62-17.47 331.07-19.65Q331.52-21.82 331.52-23.17L331.52-23.17Q331.52-26.43 329.22-26.43L329.22-26.43Q327.55-26.43 326.27-24.80Q324.99-23.17 324.22-20.54L324.22-20.54L319.87 0L310.66 0L315.33-22.08Q315.52-22.85 315.52-23.68L315.52-23.68Q315.52-26.50 313.60-26.50L313.60-26.50Q311.81-26.50 310.50-24.86Q309.18-23.23 308.42-20.54L308.42-20.54L304.06 0L294.85 0L301.63-32L310.85-32L310.14-28.67Q313.41-32.32 317.95-32.32L317.95-32.32Q323.58-32.32 324.54-26.82L324.54-26.82Q328.06-32.26 333.44-32.26L333.44-32.26Q336.70-32.26 338.62-30.46Q340.54-28.67 340.54-25.02L340.54-25.02Q340.54-23.17 340.10-20.90Q339.65-18.62 338.82-15.36L338.82-15.36Q338.30-13.38 337.89-11.49Q337.47-9.60 337.47-8.51L337.47-8.51Q337.47-7.23 338.05-6.53Q338.62-5.82 340.03-5.82L340.03-5.82Q341.95-5.82 343.10-7.20Q344.26-8.58 345.41-11.46L345.41-11.46L348.10-11.46Q345.73-4.42 342.62-2.02Q339.52 0.38 336.19 0.38L336.19 0.38ZM353.09 0.38Q349.44 0.38 347.01-2.11Q344.58-4.61 344.58-9.92L344.58-9.92Q344.58-14.66 346.46-19.87Q348.35-25.09 352.10-28.70Q355.84-32.32 361.02-32.32L361.02-32.32Q363.65-32.32 364.93-31.42Q366.21-30.53 366.21-29.06L366.21-29.06L366.21-28.61L366.91-32L376.13-32L371.52-10.24Q371.26-9.28 371.26-8.19L371.26-8.19Q371.26-5.44 373.89-5.44L373.89-5.44Q375.68-5.44 376.99-7.10Q378.30-8.77 379.07-11.46L379.07-11.46L381.76-11.46Q379.39-4.54 375.90-2.08Q372.42 0.38 368.90 0.38L368.90 0.38Q366.21 0.38 364.58-1.12Q362.94-2.62 362.62-5.50L362.62-5.50Q360.77-2.88 358.50-1.25Q356.22 0.38 353.09 0.38L353.09 0.38ZM357.25-5.82Q358.85-5.82 360.42-7.33Q361.98-8.83 362.56-11.46L362.56-11.46L365.63-25.92Q365.63-26.75 364.99-27.55Q364.35-28.35 363.01-28.35L363.01-28.35Q360.45-28.35 358.40-25.38Q356.35-22.40 355.20-18.21Q354.05-14.02 354.05-10.82L354.05-10.82Q354.05-7.62 354.98-6.72Q355.90-5.82 357.25-5.82L357.25-5.82Z" fill="#e67e22"/></svg>
