<svg xmlns="http://www.w3.org/2000/svg" viewBox="-3.62 -52.00 187.46 57.09" width="138" height="42"><path d="M27.90 1.09Q22.91 1.09 22.91-3.20L22.91-3.20Q22.91-4.61 23.33-6.43Q23.74-8.26 24.51-11.14L24.51-11.14Q25.41-14.14 25.86-16.26Q26.30-18.37 26.30-20.03L26.30-20.03Q26.30-24.38 22.46-24.38L22.46-24.38Q21.38-24.38 20.35-24.13L20.35-24.13L15.23 0L6.02 0L15.30-43.52Q11.01-41.73 8.67-38.14Q6.34-34.56 6.34-29.50L6.34-29.50Q6.34-27.14 6.78-26.21Q7.23-25.28 7.23-25.15L7.23-25.15Q3.78-25.15 2.08-26.59Q0.38-28.03 0.38-31.36L0.38-31.36Q0.38-35.46 3.74-39.33Q7.10-43.20 12.35-45.60Q17.60-48 22.85-48L22.85-48Q23.74-48 25.41-47.87L25.41-47.87L21.25-28.29L27.84-37.12Q35.71-47.74 35.78-47.68L35.78-47.68L42.50-47.68L24.70-27.20L26.94-27.26Q31.30-27.26 33.09-25.44Q34.88-23.62 34.88-20.42L34.88-20.42Q34.88-18.56 34.43-16.48Q33.98-14.40 33.15-11.33L33.15-11.33Q32.64-9.34 32.19-7.42Q31.74-5.50 31.74-4.22L31.74-4.22Q31.74-2.75 32.42-1.60Q33.09-0.45 34.24 0L34.24 0Q30.34 1.09 27.90 1.09L27.90 1.09ZM44.80 0.38Q41.73 0.38 39.84-1.54Q37.95-3.46 37.95-7.30L37.95-7.30Q37.95-8.90 38.46-11.46L38.46-11.46L42.82-32L52.03-32L47.42-10.24Q47.23-9.28 47.23-8.45L47.23-8.45Q47.23-5.82 49.15-5.82L49.15-5.82Q50.94-5.82 52.22-7.33Q53.50-8.83 54.27-11.46L54.27-11.46L58.62-32L67.84-32L63.23-10.24Q62.98-9.28 62.98-8.19L62.98-8.19Q62.98-6.91 63.58-6.37Q64.19-5.82 65.60-5.82L65.60-5.82Q67.39-5.82 68.70-7.36Q70.02-8.90 70.78-11.46L70.78-11.46L73.47-11.46Q71.10-4.54 67.62-2.08Q64.13 0.38 60.61 0.38L60.61 0.38Q57.86 0.38 56.22-1.15Q54.59-2.69 54.27-5.70L54.27-5.70Q52.10-2.18 49.70-0.90Q47.30 0.38 44.80 0.38L44.80 0.38ZM109.70 0.38Q105.79 0.38 103.97-1.70Q102.14-3.78 102.14-6.85L102.14-6.85Q102.14-8.19 102.46-9.89Q102.78-11.58 103.14-13.18Q103.49-14.78 103.62-15.23L103.62-15.23Q104.13-17.47 104.58-19.65Q105.02-21.82 105.02-23.17L105.02-23.17Q105.02-26.43 102.72-26.43L102.72-26.43Q101.06-26.43 99.78-24.80Q98.50-23.17 97.73-20.54L97.73-20.54L93.38 0L84.16 0L88.83-22.08Q89.02-22.85 89.02-23.68L89.02-23.68Q89.02-26.50 87.10-26.50L87.10-26.50Q85.31-26.50 84-24.86Q82.69-23.23 81.92-20.54L81.92-20.54L77.57 0L68.35 0L75.14-32L84.35-32L83.65-28.67Q86.91-32.32 91.46-32.32L91.46-32.32Q97.09-32.32 98.05-26.82L98.05-26.82Q101.57-32.26 106.94-32.26L106.94-32.26Q110.21-32.26 112.13-30.46Q114.05-28.67 114.05-25.02L114.05-25.02Q114.05-23.17 113.60-20.90Q113.15-18.62 112.32-15.36L112.32-15.36Q111.81-13.38 111.39-11.49Q110.98-9.60 110.98-8.51L110.98-8.51Q110.98-7.23 111.55-6.53Q112.13-5.82 113.54-5.82L113.54-5.82Q115.46-5.82 116.61-7.20Q117.76-8.58 118.91-11.46L118.91-11.46L121.60-11.46Q119.23-4.42 116.13-2.02Q113.02 0.38 109.70 0.38L109.70 0.38ZM129.60-35.46Q127.49-35.46 126.02-36.93Q124.54-38.40 124.54-40.51L124.54-40.51Q124.54-42.62 126.02-44.13Q127.49-45.63 129.60-45.63L129.60-45.63Q131.71-45.63 133.22-44.13Q134.72-42.62 134.72-40.51L134.72-40.51Q134.72-38.40 133.22-36.93Q131.71-35.46 129.60-35.46L129.60-35.46ZM125.25 0.38Q122.18 0.38 120.29-1.54Q118.40-3.46 118.40-7.30L118.40-7.30Q118.40-8.90 118.91-11.46L118.91-11.46L123.26-32L132.48-32L127.87-10.24Q127.62-9.28 127.62-8.19L127.62-8.19Q127.62-6.91 128.22-6.37Q128.83-5.82 130.24-5.82L130.24-5.82Q132.10-5.82 133.70-7.39Q135.30-8.96 136-11.46L136-11.46L138.69-11.46Q136.32-4.54 132.61-2.08Q128.90 0.38 125.25 0.38L125.25 0.38ZM142.34 0.38Q139.26 0.38 137.38-1.54Q135.49-3.46 135.49-7.30L135.49-7.30Q135.49-8.90 136-11.46L136-11.46L139.84-29.44L137.73-29.44L138.24-32L140.35-32L142.27-40.83L151.74-42.11L149.57-32L153.41-32L152.90-29.44L149.06-29.44L144.96-10.24Q144.70-9.28 144.70-8.19L144.70-8.19Q144.70-6.91 145.31-6.37Q145.92-5.82 147.33-5.82L147.33-5.82Q149.18-5.82 150.78-7.39Q152.38-8.96 153.09-11.46L153.09-11.46L155.78-11.46Q153.41-4.54 149.70-2.08Q145.98 0.38 142.34 0.38L142.34 0.38ZM162.24 0.38Q157.50 0.38 154.88-2.08Q152.26-4.54 152.26-9.79L152.26-9.79Q152.26-14.21 153.98-19.52Q155.71-24.83 159.62-28.70Q163.52-32.58 169.54-32.58L169.54-32.58Q176.58-32.58 176.58-26.43L176.58-26.43Q176.58-22.85 174.53-19.84Q172.48-16.83 169.09-15.01Q165.70-13.18 161.86-12.93L161.86-12.93Q161.73-11.01 161.73-10.37L161.73-10.37Q161.73-7.23 162.82-6.11Q163.90-4.99 166.34-4.99L166.34-4.99Q169.79-4.99 172.26-6.59Q174.72-8.19 177.66-11.46L177.66-11.46L179.84-11.46Q172.74 0.38 162.24 0.38L162.24 0.38ZM162.37-16Q164.74-16.13 166.88-17.66Q169.02-19.20 170.34-21.57Q171.65-23.94 171.65-26.56L171.65-26.56Q171.65-29.18 170.05-29.18L170.05-29.18Q167.74-29.18 165.54-25.15Q163.33-21.12 162.37-16L162.37-16Z" fill="#d63031"/></svg>
