<svg xmlns="http://www.w3.org/2000/svg" viewBox="0.29 -52.00 313.15 72.00" width="183" height="42"><path d="M4.29 0L20.54-43.97Q15.68-42.37 13.02-38.69Q10.37-35.01 10.37-29.57L10.37-29.57Q10.37-27.14 10.82-26.24Q11.26-25.34 11.26-25.15L11.26-25.15Q4.42-25.15 4.42-30.98L4.42-30.98Q4.42-34.94 7.46-38.94Q10.50-42.94 15.26-45.47Q20.03-48 24.77-48L24.77-48Q27.14-48 29.63-47.10L29.63-47.10L28.16-13.38L42.24-47.10L51.46-47.10L44.74 0L35.52 0L39.62-28.74L27.58 0L18.82 0L20.10-28.86L9.41 0L4.29 0ZM58.05 0.38Q54.40 0.38 51.97-2.11Q49.54-4.61 49.54-9.92L49.54-9.92Q49.54-14.66 51.42-19.87Q53.31-25.09 57.06-28.70Q60.80-32.32 65.98-32.32L65.98-32.32Q68.61-32.32 69.89-31.42Q71.17-30.53 71.17-29.06L71.17-29.06L71.17-28.61L71.87-32L81.09-32L76.48-10.24Q76.22-9.28 76.22-8.19L76.22-8.19Q76.22-5.44 78.85-5.44L78.85-5.44Q80.64-5.44 81.95-7.10Q83.26-8.77 84.03-11.46L84.03-11.46L86.72-11.46Q84.35-4.54 80.86-2.08Q77.38 0.38 73.86 0.38L73.86 0.38Q71.17 0.38 69.54-1.12Q67.90-2.62 67.58-5.50L67.58-5.50Q65.73-2.88 63.46-1.25Q61.18 0.38 58.05 0.38L58.05 0.38ZM62.21-5.82Q63.81-5.82 65.38-7.33Q66.94-8.83 67.52-11.46L67.52-11.46L70.59-25.92Q70.59-26.75 69.95-27.55Q69.31-28.35 67.97-28.35L67.97-28.35Q65.41-28.35 63.36-25.38Q61.31-22.40 60.16-18.21Q59.01-14.02 59.01-10.82L59.01-10.82Q59.01-7.62 59.94-6.72Q60.86-5.82 62.21-5.82L62.21-5.82ZM81.60 0L88.38-32L97.60-32L96.77-28.03Q98.94-29.95 100.70-30.98Q102.46-32 104.51-32L104.51-32Q106.56-32 107.74-30.59Q108.93-29.18 108.93-27.20L108.93-27.20Q108.93-25.34 107.71-23.94Q106.50-22.53 104.32-22.53L104.32-22.53Q102.91-22.53 102.43-23.20Q101.95-23.87 101.70-25.15L101.70-25.15Q101.50-25.98 101.31-26.37Q101.12-26.75 100.61-26.75L100.61-26.75Q99.26-26.75 98.34-26.21Q97.41-25.66 95.94-24.32L95.94-24.32L90.82 0L81.60 0ZM132.16 0.38Q128.19 0.38 126.14-1.50Q124.10-3.39 124.10-6.91L124.10-6.91Q124.10-8.45 124.48-10.24L124.48-10.24L124.99-12.74Q125.25-13.82 125.25-15.10L125.25-15.10Q125.25-18.18 122.94-18.18L122.94-18.18Q121.92-18.18 120.80-17.60Q119.68-17.02 118.21-15.81L118.21-15.81L114.88 0L105.66 0L114.94-43.52L124.42-44.80L119.62-22.27L131.97-32L138.30-32L125.50-23.10Q126.46-23.36 127.62-23.36L127.62-23.36Q131.07-23.36 132.86-21.25Q134.66-19.14 134.66-15.87L134.66-15.87Q134.66-14.53 134.40-13.44L134.40-13.44L133.70-10.24Q133.38-9.09 133.38-8.19L133.38-8.19Q133.38-5.82 135.87-5.82L135.87-5.82Q137.79-5.82 138.94-7.20Q140.10-8.58 141.25-11.46L141.25-11.46L143.94-11.46Q139.97 0.38 132.16 0.38L132.16 0.38ZM147.58 0.38Q144.51 0.38 142.62-1.54Q140.74-3.46 140.74-7.30L140.74-7.30Q140.74-8.90 141.25-11.46L141.25-11.46L145.60-32L154.82-32L150.21-10.24Q150.02-9.28 150.02-8.45L150.02-8.45Q150.02-5.82 151.94-5.82L151.94-5.82Q153.73-5.82 155.01-7.33Q156.29-8.83 157.06-11.46L157.06-11.46L161.41-32L170.62-32L166.02-10.24Q165.76-9.28 165.76-8.19L165.76-8.19Q165.76-6.91 166.37-6.37Q166.98-5.82 168.38-5.82L168.38-5.82Q170.18-5.82 171.49-7.36Q172.80-8.90 173.57-11.46L173.57-11.46L176.26-11.46Q173.89-4.54 170.40-2.08Q166.91 0.38 163.39 0.38L163.39 0.38Q160.64 0.38 159.01-1.15Q157.38-2.69 157.06-5.70L157.06-5.70Q154.88-2.18 152.48-0.90Q150.08 0.38 147.58 0.38L147.58 0.38ZM167.74 16L178.43-34.37L187.65-34.37L186.62-29.57Q189.82-32.32 194.11-32.32L194.11-32.32Q197.70-32.32 199.81-29.95Q201.92-27.58 201.92-22.21L201.92-22.21Q201.92-17.15 200.45-12Q198.98-6.85 195.46-3.23Q191.94 0.38 186.18 0.38L186.18 0.38Q182.08 0.38 180.74-1.92L180.74-1.92L177.41 13.70L167.74 16ZM184.19-5.18Q187.26-5.18 189.28-8.06Q191.30-10.94 192.22-14.94Q193.15-18.94 193.15-22.40L193.15-22.40Q193.15-27.71 189.95-27.71L189.95-27.71Q188.80-27.71 187.62-26.88Q186.43-26.05 185.54-24.58L185.54-24.58L181.76-6.66Q182.27-5.18 184.19-5.18L184.19-5.18ZM211.20 0.38Q207.55 0.38 205.12-2.11Q202.69-4.61 202.69-9.92L202.69-9.92Q202.69-14.66 204.58-19.87Q206.46-25.09 210.21-28.70Q213.95-32.32 219.14-32.32L219.14-32.32Q221.76-32.32 223.04-31.42Q224.32-30.53 224.32-29.06L224.32-29.06L224.32-28.61L225.02-32L234.24-32L229.63-10.24Q229.38-9.28 229.38-8.19L229.38-8.19Q229.38-5.44 232.00-5.44L232.00-5.44Q233.79-5.44 235.10-7.10Q236.42-8.77 237.18-11.46L237.18-11.46L239.87-11.46Q237.50-4.54 234.02-2.08Q230.53 0.38 227.01 0.38L227.01 0.38Q224.32 0.38 222.69-1.12Q221.06-2.62 220.74-5.50L220.74-5.50Q218.88-2.88 216.61-1.25Q214.34 0.38 211.20 0.38L211.20 0.38ZM215.36-5.82Q216.96-5.82 218.53-7.33Q220.10-8.83 220.67-11.46L220.67-11.46L223.74-25.92Q223.74-26.75 223.10-27.55Q222.46-28.35 221.12-28.35L221.12-28.35Q218.56-28.35 216.51-25.38Q214.46-22.40 213.31-18.21Q212.16-14.02 212.16-10.82L212.16-10.82Q212.16-7.62 213.09-6.72Q214.02-5.82 215.36-5.82L215.36-5.82ZM245.70 0.38Q241.34 0.38 239.04-1.76Q236.74-3.90 236.74-7.81L236.74-7.81Q236.74-9.73 237.18-11.46L237.18-11.46L244.03-43.52L253.50-44.80L250.43-30.40Q252.22-31.49 253.38-31.84Q254.53-32.19 255.68-32.19L255.68-32.19Q263.23-32.19 263.23-21.25L263.23-21.25Q263.23-16.83 261.54-11.81Q259.84-6.78 255.90-3.20Q251.97 0.38 245.70 0.38L245.70 0.38ZM249.28-5.82Q251.26-5.82 252.99-8.29Q254.72-10.75 255.74-14.43Q256.77-18.11 256.77-21.50L256.77-21.50Q256.77-24.06 255.87-25.86Q254.98-27.65 253.38-27.65L253.38-27.65Q252.42-27.65 251.23-27.36Q250.05-27.07 249.60-26.50L249.60-26.50L246.08-10.24Q245.89-9.47 245.89-8.77L245.89-8.77Q245.89-5.82 249.28-5.82L249.28-5.82ZM271.94 0.38Q268.86 0.38 266.98-1.54Q265.09-3.46 265.09-7.30L265.09-7.30Q265.09-8.90 265.60-11.46L265.60-11.46L272.45-43.52L281.92-44.80L274.56-10.24Q274.30-9.28 274.30-8.19L274.30-8.19Q274.30-6.91 274.91-6.37Q275.52-5.82 276.93-5.82L276.93-5.82Q278.78-5.82 280.38-7.39Q281.98-8.96 282.69-11.46L282.69-11.46L285.38-11.46Q283.01-4.54 279.30-2.08Q275.58 0.38 271.94 0.38L271.94 0.38ZM291.84 0.38Q287.10 0.38 284.48-2.08Q281.86-4.54 281.86-9.79L281.86-9.79Q281.86-14.21 283.58-19.52Q285.31-24.83 289.22-28.70Q293.12-32.58 299.14-32.58L299.14-32.58Q306.18-32.58 306.18-26.43L306.18-26.43Q306.18-22.85 304.13-19.84Q302.08-16.83 298.69-15.01Q295.30-13.18 291.46-12.93L291.46-12.93Q291.33-11.01 291.33-10.37L291.33-10.37Q291.33-7.23 292.42-6.11Q293.50-4.99 295.94-4.99L295.94-4.99Q299.39-4.99 301.86-6.59Q304.32-8.19 307.26-11.46L307.26-11.46L309.44-11.46Q302.34 0.38 291.84 0.38L291.84 0.38ZM291.97-16Q294.34-16.13 296.48-17.66Q298.62-19.20 299.94-21.57Q301.25-23.94 301.25-26.56L301.25-26.56Q301.25-29.18 299.65-29.18L299.65-29.18Q297.34-29.18 295.14-25.15Q292.93-21.12 291.97-16L291.97-16Z" fill="#e84393"/></svg>
