<svg xmlns="http://www.w3.org/2000/svg" viewBox="0.29 -52.00 494.91 72.00" width="289" height="42"><path d="M4.29 0L20.54-43.97Q15.68-42.37 13.02-38.69Q10.37-35.01 10.37-29.57L10.37-29.57Q10.37-27.14 10.82-26.24Q11.26-25.34 11.26-25.15L11.26-25.15Q4.42-25.15 4.42-30.98L4.42-30.98Q4.42-34.94 7.46-38.94Q10.50-42.94 15.26-45.47Q20.03-48 24.77-48L24.77-48Q27.14-48 29.63-47.10L29.63-47.10L28.16-13.38L42.24-47.10L51.46-47.10L44.74 0L35.52 0L39.62-28.74L27.58 0L18.82 0L20.10-28.86L9.41 0L4.29 0ZM56.38 0L65.66-43.46Q61.38-41.73 59.04-38.18Q56.70-34.62 56.70-29.50L56.70-29.50Q56.70-27.14 57.15-26.21Q57.60-25.28 57.60-25.15L57.60-25.15Q54.14-25.15 52.45-26.59Q50.75-28.03 50.75-31.36L50.75-31.36Q50.75-35.46 54.11-39.33Q57.47-43.20 62.72-45.60Q67.97-48 73.22-48L73.22-48Q74.11-48 75.78-47.87L75.78-47.87L65.60 0L56.38 0ZM97.92 0.83Q94.08 0.83 90.11-2.56L90.11-2.56L89.60 0L80.38 0L89.09-40.70L98.56-41.98L90.88-6.08Q92.67-4.80 94.53-4.80L94.53-4.80Q98.18-4.80 100.96-9.02Q103.74-13.25 105.28-19.78Q106.82-26.30 106.82-32.96L106.82-32.96Q106.82-39.23 104.35-42.14Q101.89-45.06 97.47-45.06L97.47-45.06Q92.67-45.06 88.86-43.17Q85.06-41.28 82.88-37.76Q80.70-34.24 80.70-29.50L80.70-29.50Q80.70-27.14 81.15-26.21Q81.60-25.28 81.60-25.15L81.60-25.15Q78.27-25.15 76.51-26.56Q74.75-27.97 74.75-31.10L74.75-31.10Q74.75-35.46 78.02-39.36Q81.28-43.26 86.75-45.63Q92.22-48 98.56-48L98.56-48Q107.33-48 111.49-42.82Q115.65-37.63 115.65-29.57L115.65-29.57Q115.65-22.27 113.18-15.20Q110.72-8.13 106.62-3.65Q102.53 0.83 97.92 0.83L97.92 0.83ZM122.82 0L132.10-43.46Q127.81-41.73 125.47-38.18Q123.14-34.62 123.14-29.50L123.14-29.50Q123.14-27.14 123.58-26.21Q124.03-25.28 124.03-25.15L124.03-25.15Q120.58-25.15 118.88-26.59Q117.18-28.03 117.18-31.36L117.18-31.36Q117.18-35.46 120.54-39.33Q123.90-43.20 129.15-45.60Q134.40-48 139.65-48L139.65-48Q140.54-48 142.21-47.87L142.21-47.87L132.03 0L122.82 0ZM178.24 0.83Q174.40 0.83 170.43-2.56L170.43-2.56L169.92 0L160.70 0L169.41-40.70L178.88-41.98L171.20-6.08Q172.99-4.80 174.85-4.80L174.85-4.80Q178.50-4.80 181.28-9.02Q184.06-13.25 185.60-19.78Q187.14-26.30 187.14-32.96L187.14-32.96Q187.14-39.23 184.67-42.14Q182.21-45.06 177.79-45.06L177.79-45.06Q172.99-45.06 169.18-43.17Q165.38-41.28 163.20-37.76Q161.02-34.24 161.02-29.50L161.02-29.50Q161.02-27.14 161.47-26.21Q161.92-25.28 161.92-25.15L161.92-25.15Q158.59-25.15 156.83-26.56Q155.07-27.97 155.07-31.10L155.07-31.10Q155.07-35.46 158.34-39.36Q161.60-43.26 167.07-45.63Q172.54-48 178.88-48L178.88-48Q187.65-48 191.81-42.82Q195.97-37.63 195.97-29.57L195.97-29.57Q195.97-22.27 193.50-15.20Q191.04-8.13 186.94-3.65Q182.85 0.83 178.24 0.83L178.24 0.83ZM206.27 0.38Q201.54 0.38 198.91-2.08Q196.29-4.54 196.29-9.79L196.29-9.79Q196.29-14.21 198.02-19.52Q199.74-24.83 203.65-28.70Q207.55-32.58 213.57-32.58L213.57-32.58Q220.61-32.58 220.61-26.43L220.61-26.43Q220.61-22.85 218.56-19.84Q216.51-16.83 213.12-15.01Q209.73-13.18 205.89-12.93L205.89-12.93Q205.76-11.01 205.76-10.37L205.76-10.37Q205.76-7.23 206.85-6.11Q207.94-4.99 210.37-4.99L210.37-4.99Q213.82-4.99 216.29-6.59Q218.75-8.19 221.70-11.46L221.70-11.46L223.87-11.46Q216.77 0.38 206.27 0.38L206.27 0.38ZM206.40-16Q208.77-16.13 210.91-17.66Q213.06-19.20 214.37-21.57Q215.68-23.94 215.68-26.56L215.68-26.56Q215.68-29.18 214.08-29.18L214.08-29.18Q211.78-29.18 209.57-25.15Q207.36-21.12 206.40-16L206.40-16ZM228.99 0.38Q225.28 0.38 223.20-1.50Q221.12-3.39 221.12-7.17L221.12-7.17Q221.12-8.70 221.44-10.24L221.44-10.24L226.05-32L235.26-32L230.66-10.24Q230.34-8.64 230.34-7.94L230.34-7.94Q230.34-5.82 232.51-5.82L232.51-5.82Q235.46-5.82 237.98-9.54Q240.51-13.25 242.05-18.37Q243.58-23.49 243.58-27.20L243.58-27.20Q243.46-26.88 242.75-26.72Q242.05-26.56 241.54-26.56L241.54-26.56Q240.45-26.56 239.84-27.58Q239.23-28.61 239.23-29.82L239.23-29.82Q239.23-31.36 240.22-32.32Q241.22-33.28 243.20-33.28L243.20-33.28Q245.31-33.28 246.27-31.71Q247.23-30.14 247.23-27.71L247.23-27.71Q247.23-21.95 245.25-15.39Q243.26-8.83 239.17-4.22Q235.07 0.38 228.99 0.38L228.99 0.38ZM258.88-35.46Q256.77-35.46 255.30-36.93Q253.82-38.40 253.82-40.51L253.82-40.51Q253.82-42.62 255.30-44.13Q256.77-45.63 258.88-45.63L258.88-45.63Q260.99-45.63 262.50-44.13Q264-42.62 264-40.51L264-40.51Q264-38.40 262.50-36.93Q260.99-35.46 258.88-35.46L258.88-35.46ZM254.53 0.38Q251.46 0.38 249.57-1.54Q247.68-3.46 247.68-7.30L247.68-7.30Q247.68-8.90 248.19-11.46L248.19-11.46L252.54-32L261.76-32L257.15-10.24Q256.90-9.28 256.90-8.19L256.90-8.19Q256.90-6.91 257.50-6.37Q258.11-5.82 259.52-5.82L259.52-5.82Q261.38-5.82 262.98-7.39Q264.58-8.96 265.28-11.46L265.28-11.46L267.97-11.46Q265.60-4.54 261.89-2.08Q258.18 0.38 254.53 0.38L254.53 0.38ZM274.43 0.38Q269.70 0.38 267.07-2.08Q264.45-4.54 264.45-9.79L264.45-9.79Q264.45-14.21 266.21-19.52Q267.97-24.83 271.84-28.70Q275.71-32.58 281.66-32.58L281.66-32.58Q285.50-32.58 287.14-30.91Q288.77-29.25 288.77-26.69L288.77-26.69Q288.77-24.45 287.81-23.23Q286.85-22.02 285.38-22.02L285.38-22.02Q284.29-22.02 283.14-22.78L283.14-22.78Q283.90-24.90 283.90-26.56L283.90-26.56Q283.90-27.78 283.46-28.48Q283.01-29.18 282.11-29.18L282.11-29.18Q280.19-29.18 278.27-26.05Q276.35-22.91 275.14-18.43Q273.92-13.95 273.92-10.37L273.92-10.37Q273.92-7.23 275.01-6.11Q276.10-4.99 278.53-4.99L278.53-4.99Q281.98-4.99 284.45-6.59Q286.91-8.19 289.86-11.46L289.86-11.46L292.03-11.46Q284.93 0.38 274.43 0.38L274.43 0.38ZM299.01 0.38Q294.27 0.38 291.65-2.08Q289.02-4.54 289.02-9.79L289.02-9.79Q289.02-14.21 290.75-19.52Q292.48-24.83 296.38-28.70Q300.29-32.58 306.30-32.58L306.30-32.58Q313.34-32.58 313.34-26.43L313.34-26.43Q313.34-22.85 311.30-19.84Q309.25-16.83 305.86-15.01Q302.46-13.18 298.62-12.93L298.62-12.93Q298.50-11.01 298.50-10.37L298.50-10.37Q298.50-7.23 299.58-6.11Q300.67-4.99 303.10-4.99L303.10-4.99Q306.56-4.99 309.02-6.59Q311.49-8.19 314.43-11.46L314.43-11.46L316.61-11.46Q309.50 0.38 299.01 0.38L299.01 0.38ZM299.14-16Q301.50-16.13 303.65-17.66Q305.79-19.20 307.10-21.57Q308.42-23.94 308.42-26.56L308.42-26.56Q308.42-29.18 306.82-29.18L306.82-29.18Q304.51-29.18 302.30-25.15Q300.10-21.12 299.14-16L299.14-16ZM351.87 0.83Q348.03 0.83 344.06-2.56L344.06-2.56L343.55 0L334.34 0L343.04-40.70L352.51-41.98L344.83-6.08Q346.62-4.80 348.48-4.80L348.48-4.80Q352.13-4.80 354.91-9.02Q357.70-13.25 359.23-19.78Q360.77-26.30 360.77-32.96L360.77-32.96Q360.77-39.23 358.30-42.14Q355.84-45.06 351.42-45.06L351.42-45.06Q346.62-45.06 342.82-43.17Q339.01-41.28 336.83-37.76Q334.66-34.24 334.66-29.50L334.66-29.50Q334.66-27.14 335.10-26.21Q335.55-25.28 335.55-25.15L335.55-25.15Q332.22-25.15 330.46-26.56Q328.70-27.97 328.70-31.10L328.70-31.10Q328.70-35.46 331.97-39.36Q335.23-43.26 340.70-45.63Q346.18-48 352.51-48L352.51-48Q361.28-48 365.44-42.82Q369.60-37.63 369.60-29.57L369.60-29.57Q369.60-22.27 367.14-15.20Q364.67-8.13 360.58-3.65Q356.48 0.83 351.87 0.83L351.87 0.83ZM379.90 0.38Q375.17 0.38 372.54-2.08Q369.92-4.54 369.92-9.79L369.92-9.79Q369.92-14.21 371.65-19.52Q373.38-24.83 377.28-28.70Q381.18-32.58 387.20-32.58L387.20-32.58Q394.24-32.58 394.24-26.43L394.24-26.43Q394.24-22.85 392.19-19.84Q390.14-16.83 386.75-15.01Q383.36-13.18 379.52-12.93L379.52-12.93Q379.39-11.01 379.39-10.37L379.39-10.37Q379.39-7.23 380.48-6.11Q381.57-4.99 384.00-4.99L384.00-4.99Q387.46-4.99 389.92-6.59Q392.38-8.19 395.33-11.46L395.33-11.46L397.50-11.46Q390.40 0.38 379.90 0.38L379.90 0.38ZM380.03-16Q382.40-16.13 384.54-17.66Q386.69-19.20 388.00-21.57Q389.31-23.94 389.31-26.56L389.31-26.56Q389.31-29.18 387.71-29.18L387.71-29.18Q385.41-29.18 383.20-25.15Q380.99-21.12 380.03-16L380.03-16ZM403.84 0.38Q399.49 0.38 397.18-1.76Q394.88-3.90 394.88-7.81L394.88-7.81Q394.88-9.73 395.33-11.46L395.33-11.46L402.18-43.52L411.65-44.80L408.58-30.40Q410.37-31.49 411.52-31.84Q412.67-32.19 413.82-32.19L413.82-32.19Q421.38-32.19 421.38-21.25L421.38-21.25Q421.38-16.83 419.68-11.81Q417.98-6.78 414.05-3.20Q410.11 0.38 403.84 0.38L403.84 0.38ZM407.42-5.82Q409.41-5.82 411.14-8.29Q412.86-10.75 413.89-14.43Q414.91-18.11 414.91-21.50L414.91-21.50Q414.91-24.06 414.02-25.86Q413.12-27.65 411.52-27.65L411.52-27.65Q410.56-27.65 409.38-27.36Q408.19-27.07 407.74-26.50L407.74-26.50L404.22-10.24Q404.03-9.47 404.03-8.77L404.03-8.77Q404.03-5.82 407.42-5.82L407.42-5.82ZM430.08 0.38Q427.01 0.38 425.12-1.54Q423.23-3.46 423.23-7.30L423.23-7.30Q423.23-8.90 423.74-11.46L423.74-11.46L428.10-32L437.31-32L432.70-10.24Q432.51-9.28 432.51-8.45L432.51-8.45Q432.51-5.82 434.43-5.82L434.43-5.82Q436.22-5.82 437.50-7.33Q438.78-8.83 439.55-11.46L439.55-11.46L443.90-32L453.12-32L448.51-10.24Q448.26-9.28 448.26-8.19L448.26-8.19Q448.26-6.91 448.86-6.37Q449.47-5.82 450.88-5.82L450.88-5.82Q452.67-5.82 453.98-7.36Q455.30-8.90 456.06-11.46L456.06-11.46L458.75-11.46Q456.38-4.54 452.90-2.08Q449.41 0.38 445.89 0.38L445.89 0.38Q443.14 0.38 441.50-1.15Q439.87-2.69 439.55-5.70L439.55-5.70Q437.38-2.18 434.98-0.90Q432.58 0.38 430.08 0.38L430.08 0.38ZM467.39 16Q464.32 16 462.27 14.40Q460.22 12.80 460.22 9.79L460.22 9.79Q460.22 6.14 463.17 3.94Q466.11 1.73 470.66 0.26L470.66 0.26L471.42-3.14Q468.16 0.38 463.74 0.38L463.74 0.38Q460.10 0.38 457.66-2.11Q455.23-4.61 455.23-9.92L455.23-9.92Q455.23-14.66 457.12-19.87Q459.01-25.09 462.75-28.70Q466.50-32.32 471.68-32.32L471.68-32.32Q474.30-32.32 475.58-31.42Q476.86-30.53 476.86-29.06L476.86-29.06L476.86-28.67L477.57-32L486.78-32L480.45-2.30Q483.52-3.33 485.38-5.38Q487.23-7.42 488.51-11.46L488.51-11.46L491.20-11.46Q489.47-5.76 486.53-3.10Q483.58-0.45 479.87 0.51L479.87 0.51L478.91 5.12Q477.63 11.33 474.50 13.66Q471.36 16 467.39 16L467.39 16ZM467.90-5.82Q469.38-5.82 470.91-7.17Q472.45-8.51 473.02-10.82L473.02-10.82L476.29-25.98Q476.29-26.75 475.65-27.55Q475.01-28.35 473.66-28.35L473.66-28.35Q471.10-28.35 469.06-25.38Q467.01-22.40 465.86-18.21Q464.70-14.02 464.70-10.82L464.70-10.82Q464.70-7.62 465.63-6.72Q466.56-5.82 467.90-5.82L467.90-5.82ZM465.92 11.01Q467.01 11.01 468.03 9.54Q469.06 8.06 469.63 5.31L469.63 5.31L470.02 3.46Q463.74 5.76 463.74 8.90L463.74 8.90Q463.74 9.73 464.32 10.37Q464.90 11.01 465.92 11.01L465.92 11.01Z" fill="#8e44ad"/></svg>
