<svg xmlns="http://www.w3.org/2000/svg" viewBox="0.29 -52.00 259.01 72.00" width="151" height="42"><path d="M4.29 0L20.54-43.97Q15.68-42.37 13.02-38.69Q10.37-35.01 10.37-29.57L10.37-29.57Q10.37-27.14 10.82-26.24Q11.26-25.34 11.26-25.15L11.26-25.15Q4.42-25.15 4.42-30.98L4.42-30.98Q4.42-34.94 7.46-38.94Q10.50-42.94 15.26-45.47Q20.03-48 24.77-48L24.77-48Q27.14-48 29.63-47.10L29.63-47.10L28.16-13.38L42.24-47.10L51.46-47.10L44.74 0L35.52 0L39.62-28.74L27.58 0L18.82 0L20.10-28.86L9.41 0L4.29 0ZM56.70 0.38Q53.63 0.38 51.74-1.54Q49.86-3.46 49.86-7.30L49.86-7.30Q49.86-8.90 50.37-11.46L50.37-11.46L54.72-32L63.94-32L59.33-10.24Q59.14-9.28 59.14-8.45L59.14-8.45Q59.14-5.82 61.06-5.82L61.06-5.82Q62.85-5.82 64.13-7.33Q65.41-8.83 66.18-11.46L66.18-11.46L70.53-32L79.74-32L75.14-10.24Q74.88-9.28 74.88-8.19L74.88-8.19Q74.88-6.91 75.49-6.37Q76.10-5.82 77.50-5.82L77.50-5.82Q79.30-5.82 80.61-7.36Q81.92-8.90 82.69-11.46L82.69-11.46L85.38-11.46Q83.01-4.54 79.52-2.08Q76.03 0.38 72.51 0.38L72.51 0.38Q69.76 0.38 68.13-1.15Q66.50-2.69 66.18-5.70L66.18-5.70Q64-2.18 61.60-0.90Q59.20 0.38 56.70 0.38L56.70 0.38ZM105.79 0.38Q101.89 0.38 100.06-1.70Q98.24-3.78 98.24-6.85L98.24-6.85Q98.24-8.19 98.56-9.89Q98.88-11.58 99.23-13.18Q99.58-14.78 99.71-15.23L99.71-15.23Q100.22-17.47 100.67-19.65Q101.12-21.82 101.12-23.17L101.12-23.17Q101.12-26.43 98.82-26.43L98.82-26.43Q97.15-26.43 95.87-24.80Q94.59-23.17 93.82-20.54L93.82-20.54L89.47 0L80.26 0L87.04-32L96.26-32L95.55-28.67Q98.75-32.26 103.04-32.26L103.04-32.26Q106.30-32.26 108.22-30.46Q110.14-28.67 110.14-25.02L110.14-25.02Q110.14-23.17 109.70-20.90Q109.25-18.62 108.42-15.36L108.42-15.36Q107.90-13.38 107.49-11.49Q107.07-9.60 107.07-8.51L107.07-8.51Q107.07-7.23 107.65-6.53Q108.22-5.82 109.63-5.82L109.63-5.82Q111.55-5.82 112.70-7.20Q113.86-8.58 115.01-11.46L115.01-11.46L117.70-11.46Q115.33-4.42 112.22-2.02Q109.12 0.38 105.79 0.38L105.79 0.38ZM144.13 1.02Q136.90 1.02 133.50-2.62Q130.11-6.27 130.11-14.72L130.11-14.72Q130.11-21.44 132.38-29.18Q134.66-36.93 139.68-42.46Q144.70-48 152.45-48L152.45-48Q157.25-48 160.19-45.89Q163.14-43.78 163.14-39.42L163.14-39.42Q163.14-36.67 162.05-35.10Q160.96-33.54 158.66-33.54L158.66-33.54Q156.35-33.54 155.01-35.20L155.01-35.20Q156.16-35.78 157.06-37.50Q157.95-39.23 157.95-41.09L157.95-41.09Q157.95-42.82 157.02-43.90Q156.10-44.99 154.05-44.99L154.05-44.99Q150.66-44.99 147.58-40.35Q144.51-35.71 142.62-28.67Q140.74-21.63 140.74-15.10L140.74-15.10Q140.74-10.24 142.40-7.68Q144.06-5.12 148.42-5.12L148.42-5.12Q152.19-5.12 155.39-6.78Q158.59-8.45 160.90-11.52L160.90-11.52L162.37-10.88Q160.77-6.85 157.63-4.16Q154.50-1.47 150.91-0.22Q147.33 1.02 144.13 1.02L144.13 1.02ZM158.27 0L165.06-32L174.27-32L173.44-28.03Q175.62-29.95 177.38-30.98Q179.14-32 181.18-32L181.18-32Q183.23-32 184.42-30.59Q185.60-29.18 185.60-27.20L185.60-27.20Q185.60-25.34 184.38-23.94Q183.17-22.53 180.99-22.53L180.99-22.53Q179.58-22.53 179.10-23.20Q178.62-23.87 178.37-25.15L178.37-25.15Q178.18-25.98 177.98-26.37Q177.79-26.75 177.28-26.75L177.28-26.75Q175.94-26.75 175.01-26.21Q174.08-25.66 172.61-24.32L172.61-24.32L167.49 0L158.27 0ZM192.45 0.38Q188.80 0.38 186.37-2.11Q183.94-4.61 183.94-9.92L183.94-9.92Q183.94-14.66 185.82-19.87Q187.71-25.09 191.46-28.70Q195.20-32.32 200.38-32.32L200.38-32.32Q203.01-32.32 204.29-31.42Q205.57-30.53 205.57-29.06L205.57-29.06L205.57-28.61L206.27-32L215.49-32L210.88-10.24Q210.62-9.28 210.62-8.19L210.62-8.19Q210.62-5.44 213.25-5.44L213.25-5.44Q215.04-5.44 216.35-7.10Q217.66-8.77 218.43-11.46L218.43-11.46L221.12-11.46Q218.75-4.54 215.26-2.08Q211.78 0.38 208.26 0.38L208.26 0.38Q205.57 0.38 203.94-1.12Q202.30-2.62 201.98-5.50L201.98-5.50Q200.13-2.88 197.86-1.25Q195.58 0.38 192.45 0.38L192.45 0.38ZM196.61-5.82Q198.21-5.82 199.78-7.33Q201.34-8.83 201.92-11.46L201.92-11.46L204.99-25.92Q204.99-26.75 204.35-27.55Q203.71-28.35 202.37-28.35L202.37-28.35Q199.81-28.35 197.76-25.38Q195.71-22.40 194.56-18.21Q193.41-14.02 193.41-10.82L193.41-10.82Q193.41-7.62 194.34-6.72Q195.26-5.82 196.61-5.82L196.61-5.82ZM212.67 16Q209.66 16 207.39 14.05Q205.12 12.10 205.12 9.09L205.12 9.09Q205.12 6.34 206.53 4.54Q207.94 2.75 210.18 1.70Q212.42 0.64 216.13-0.51L216.13-0.51L223.87-37.06Q225.15-43.20 228.38-45.57Q231.62-47.94 235.52-47.94L235.52-47.94Q238.53-47.94 240.80-45.98Q243.07-44.03 243.07-41.02L243.07-41.02Q243.07-39.55 242.88-38.40L242.88-38.40L239.87-38.40Q240.00-39.81 240.00-40.13L240.00-40.13Q240.00-41.15 239.30-41.73Q238.59-42.30 237.57-42.30L237.57-42.30Q236.22-42.30 234.94-41.12Q233.66-39.94 233.09-37.06L233.09-37.06L232.00-32L236.67-32L236.22-29.44L231.49-29.44L224.13 5.12Q222.85 11.33 219.71 13.66Q216.58 16 212.67 16L212.67 16ZM211.20 10.30Q213.76 10.30 214.85 5.31L214.85 5.31L215.68 1.60Q212.29 2.75 210.46 4.26Q208.64 5.76 208.64 8.19L208.64 8.19Q208.64 8.96 209.41 9.63Q210.18 10.30 211.20 10.30L211.20 10.30ZM241.86 0.38Q238.78 0.38 236.90-1.54Q235.01-3.46 235.01-7.30L235.01-7.30Q235.01-8.90 235.52-11.46L235.52-11.46L239.36-29.44L237.25-29.44L237.76-32L239.87-32L241.79-40.83L251.26-42.11L249.09-32L252.93-32L252.42-29.44L248.58-29.44L244.48-10.24Q244.22-9.28 244.22-8.19L244.22-8.19Q244.22-6.91 244.83-6.37Q245.44-5.82 246.85-5.82L246.85-5.82Q248.70-5.82 250.30-7.39Q251.90-8.96 252.61-11.46L252.61-11.46L255.30-11.46Q252.93-4.54 249.22-2.08Q245.50 0.38 241.86 0.38L241.86 0.38Z" fill="#a29bfe"/></svg>
