<svg xmlns="http://www.w3.org/2000/svg" viewBox="-3.62 -52.45 369.79 69.70" width="223" height="42"><path d="M5.89 0L15.55-43.84Q11.20-42.30 8.93-39.01Q6.66-35.71 6.66-31.04L6.66-31.04Q6.66-28.99 7.10-27.30Q7.55-25.60 8.38-24.51L8.38-24.51Q4.29-24.51 2.34-26.21Q0.38-27.90 0.38-31.42L0.38-31.42Q0.38-35.90 3.01-39.78Q5.63-43.65 10.11-45.95Q14.59-48.26 19.84-48.26L19.84-48.26Q21.31-48.26 22.40-48.06Q23.49-47.87 24.90-47.36L24.90-47.36L32.58-13.12L39.74-47.87L45.95-47.87L35.52 0L26.69 0L19.26-31.74L11.97 0L5.89 0ZM52.10 0.26Q47.36 0.26 44.61-2.18Q41.86-4.61 41.86-9.86L41.86-9.86Q41.86-14.21 43.65-19.52Q45.44-24.83 49.41-28.70Q53.38-32.58 59.39-32.58L59.39-32.58Q67.58-32.58 67.58-22.34L67.58-22.34L67.58-22.27Q67.78-22.21 68.29-22.21L68.29-22.21Q70.40-22.21 73.15-23.33Q75.90-24.45 78.14-26.05L78.14-26.05L78.72-24.32Q76.86-22.34 73.89-20.96Q70.91-19.58 67.39-19.01L67.39-19.01Q66.88-13.18 64.77-8.83Q62.66-4.48 59.33-2.11Q56 0.26 52.10 0.26L52.10 0.26ZM54.66-5.50Q56.19-5.50 57.73-7.26Q59.26-9.02 60.42-12.06Q61.57-15.10 62.08-18.82L62.08-18.82Q60.35-19.20 60.35-21.50L60.35-21.50Q60.35-24.13 62.34-24.96L62.34-24.96Q62.21-27.07 61.70-27.87Q61.18-28.67 59.90-28.67L59.90-28.67Q57.79-28.67 55.81-25.60Q53.82-22.53 52.61-18.24Q51.39-13.95 51.39-10.69L51.39-10.69Q51.39-7.62 52.10-6.56Q52.80-5.50 54.66-5.50L54.66-5.50ZM94.91 0.38Q90.94 0.38 88.90-1.50Q86.85-3.39 86.85-6.91L86.85-6.91Q86.85-8.45 87.23-10.24L87.23-10.24L87.74-12.74Q88-13.82 88-15.10L88-15.10Q88-18.18 85.70-18.18L85.70-18.18Q84.67-18.18 83.55-17.60Q82.43-17.02 80.96-15.81L80.96-15.81L77.63 0L68.42 0L77.70-43.52L87.17-44.80L82.37-22.27L94.72-32L101.06-32L88.26-23.10Q89.22-23.36 90.37-23.36L90.37-23.36Q93.82-23.36 95.62-21.25Q97.41-19.14 97.41-15.87L97.41-15.87Q97.41-14.53 97.15-13.44L97.15-13.44L96.45-10.24Q96.13-9.09 96.13-8.19L96.13-8.19Q96.13-5.82 98.62-5.82L98.62-5.82Q100.54-5.82 101.70-7.20Q102.85-8.58 104-11.46L104-11.46L106.69-11.46Q102.72 0.38 94.91 0.38L94.91 0.38ZM114.69-35.46Q112.58-35.46 111.10-36.93Q109.63-38.40 109.63-40.51L109.63-40.51Q109.63-42.62 111.10-44.13Q112.58-45.63 114.69-45.63L114.69-45.63Q116.80-45.63 118.30-44.13Q119.81-42.62 119.81-40.51L119.81-40.51Q119.81-38.40 118.30-36.93Q116.80-35.46 114.69-35.46L114.69-35.46ZM110.34 0.38Q107.26 0.38 105.38-1.54Q103.49-3.46 103.49-7.30L103.49-7.30Q103.49-8.90 104-11.46L104-11.46L108.35-32L117.57-32L112.96-10.24Q112.70-9.28 112.70-8.19L112.70-8.19Q112.70-6.91 113.31-6.37Q113.92-5.82 115.33-5.82L115.33-5.82Q117.18-5.82 118.78-7.39Q120.38-8.96 121.09-11.46L121.09-11.46L123.78-11.46Q121.41-4.54 117.70-2.08Q113.98 0.38 110.34 0.38L110.34 0.38ZM128.77 0.38Q125.12 0.38 122.69-2.11Q120.26-4.61 120.26-9.92L120.26-9.92Q120.26-14.66 122.14-19.87Q124.03-25.09 127.78-28.70Q131.52-32.32 136.70-32.32L136.70-32.32Q139.33-32.32 140.61-31.42Q141.89-30.53 141.89-29.06L141.89-29.06L141.89-28.61L142.59-32L151.81-32L147.20-10.24Q146.94-9.28 146.94-8.19L146.94-8.19Q146.94-5.44 149.57-5.44L149.57-5.44Q151.36-5.44 152.67-7.10Q153.98-8.77 154.75-11.46L154.75-11.46L157.44-11.46Q155.07-4.54 151.58-2.08Q148.10 0.38 144.58 0.38L144.58 0.38Q141.89 0.38 140.26-1.12Q138.62-2.62 138.30-5.50L138.30-5.50Q136.45-2.88 134.18-1.25Q131.90 0.38 128.77 0.38L128.77 0.38ZM132.93-5.82Q134.53-5.82 136.10-7.33Q137.66-8.83 138.24-11.46L138.24-11.46L141.31-25.92Q141.31-26.75 140.67-27.55Q140.03-28.35 138.69-28.35L138.69-28.35Q136.13-28.35 134.08-25.38Q132.03-22.40 130.88-18.21Q129.73-14.02 129.73-10.82L129.73-10.82Q129.73-7.62 130.66-6.72Q131.58-5.82 132.93-5.82L132.93-5.82ZM183.42 13.25Q178.75 13.25 175.90 10.85Q173.06 8.45 173.06 4.54L173.06 4.54Q173.06 2.11 174.21 0.06Q175.36-1.98 177.34-3.17Q179.33-4.35 181.70-4.35L181.70-4.35Q184.13-4.35 185.63-3.14Q187.14-1.92 187.14 0.06L187.14 0.06Q187.14 1.60 186.43 2.50L186.43 2.50Q185.86 1.73 184.86 1.28Q183.87 0.83 182.78 0.83L182.78 0.83Q180.86 0.83 179.65 2.11Q178.43 3.39 178.43 5.44L178.43 5.44Q178.43 7.49 179.62 8.77Q180.80 10.05 182.59 10.05L182.59 10.05Q184.83 10.05 186.43 8.06Q188.03 6.08 188.86 2.18L188.86 2.18L192.06-11.97L191.81-11.97Q190.08-9.54 187.62-8.26Q185.15-6.98 182.21-6.98L182.21-6.98Q178.50-6.98 175.68-8.96Q172.86-10.94 171.36-14.62Q169.86-18.30 169.86-23.17L169.86-23.17Q169.86-30.21 172.93-36Q176.00-41.79 181.38-45.12Q186.75-48.45 193.22-48.45L193.22-48.45Q198.66-48.45 201.82-46.08Q204.99-43.71 204.99-39.62L204.99-39.62Q204.99-36.86 203.65-35.20Q202.30-33.54 200.13-33.54L200.13-33.54Q198.91-33.54 197.86-34.05Q196.80-34.56 196.10-35.52L196.10-35.52Q197.25-36.29 198.05-37.98Q198.85-39.68 198.85-41.41L198.85-41.41Q198.85-43.33 197.73-44.38Q196.61-45.44 194.56-45.44L194.56-45.44Q190.85-45.44 187.39-42.14Q183.94-38.85 181.82-33.54Q179.71-28.22 179.71-22.40L179.71-22.40Q179.71-17.60 181.25-15.07Q182.78-12.54 185.66-12.54L185.66-12.54Q189.12-12.54 191.78-16.19Q194.43-19.84 196.03-26.82L196.03-26.82L203.58-26.75L198.91-5.25Q196.86 4.29 193.12 8.77Q189.38 13.25 183.42 13.25L183.42 13.25ZM203.20 0L209.98-32L219.20-32L218.37-28.03Q220.54-29.95 222.30-30.98Q224.06-32 226.11-32L226.11-32Q228.16-32 229.34-30.59Q230.53-29.18 230.53-27.20L230.53-27.20Q230.53-25.34 229.31-23.94Q228.10-22.53 225.92-22.53L225.92-22.53Q224.51-22.53 224.03-23.20Q223.55-23.87 223.30-25.15L223.30-25.15Q223.10-25.98 222.91-26.37Q222.72-26.75 222.21-26.75L222.21-26.75Q220.86-26.75 219.94-26.21Q219.01-25.66 217.54-24.32L217.54-24.32L212.42 0L203.20 0ZM240.38-35.46Q238.27-35.46 236.80-36.93Q235.33-38.40 235.33-40.51L235.33-40.51Q235.33-42.62 236.80-44.13Q238.27-45.63 240.38-45.63L240.38-45.63Q242.50-45.63 244-44.13Q245.50-42.62 245.50-40.51L245.50-40.51Q245.50-38.40 244-36.93Q242.50-35.46 240.38-35.46L240.38-35.46ZM236.03 0.38Q232.96 0.38 231.07-1.54Q229.18-3.46 229.18-7.30L229.18-7.30Q229.18-8.90 229.70-11.46L229.70-11.46L234.05-32L243.26-32L238.66-10.24Q238.40-9.28 238.40-8.19L238.40-8.19Q238.40-6.91 239.01-6.37Q239.62-5.82 241.02-5.82L241.02-5.82Q242.88-5.82 244.48-7.39Q246.08-8.96 246.78-11.46L246.78-11.46L249.47-11.46Q247.10-4.54 243.39-2.08Q239.68 0.38 236.03 0.38L236.03 0.38ZM269.89 0.38Q265.98 0.38 264.16-1.70Q262.34-3.78 262.34-6.85L262.34-6.85Q262.34-8.19 262.66-9.89Q262.98-11.58 263.33-13.18Q263.68-14.78 263.81-15.23L263.81-15.23Q264.32-17.47 264.77-19.65Q265.22-21.82 265.22-23.17L265.22-23.17Q265.22-26.43 262.91-26.43L262.91-26.43Q261.25-26.43 259.97-24.80Q258.69-23.17 257.92-20.54L257.92-20.54L253.57 0L244.35 0L251.14-32L260.35-32L259.65-28.67Q262.85-32.26 267.14-32.26L267.14-32.26Q270.40-32.26 272.32-30.46Q274.24-28.67 274.24-25.02L274.24-25.02Q274.24-23.17 273.79-20.90Q273.34-18.62 272.51-15.36L272.51-15.36Q272-13.38 271.58-11.49Q271.17-9.60 271.17-8.51L271.17-8.51Q271.17-7.23 271.74-6.53Q272.32-5.82 273.73-5.82L273.73-5.82Q275.65-5.82 276.80-7.20Q277.95-8.58 279.10-11.46L279.10-11.46L281.79-11.46Q279.42-4.42 276.32-2.02Q273.22 0.38 269.89 0.38L269.89 0.38ZM286.78 0.38Q283.14 0.38 280.70-2.11Q278.27-4.61 278.27-9.92L278.27-9.92Q278.27-14.66 280.16-19.87Q282.05-25.09 285.79-28.70Q289.54-32.32 294.72-32.32L294.72-32.32Q297.34-32.32 298.62-31.42Q299.90-30.53 299.90-29.06L299.90-29.06L299.90-28.80L303.04-43.52L312.51-44.80L305.15-10.24Q304.90-9.28 304.90-8.19L304.90-8.19Q304.90-6.91 305.50-6.37Q306.11-5.82 307.52-5.82L307.52-5.82Q309.31-5.82 310.62-7.36Q311.94-8.90 312.70-11.46L312.70-11.46L315.39-11.46Q311.49 0 302.53 0L302.53 0Q299.90 0 298.27-1.41Q296.64-2.82 296.26-5.50L296.26-5.50Q294.59-2.94 292.26-1.28Q289.92 0.38 286.78 0.38L286.78 0.38ZM290.94-5.82Q292.48-5.82 294.05-7.23Q295.62-8.64 296.19-11.14L296.19-11.14L296.19-11.46L299.33-26.11Q298.75-28.35 296.70-28.35L296.70-28.35Q294.14-28.35 292.10-25.38Q290.05-22.40 288.90-18.21Q287.74-14.02 287.74-10.82L287.74-10.82Q287.74-7.62 288.67-6.72Q289.60-5.82 290.94-5.82L290.94-5.82ZM321.86 0.38Q317.12 0.38 314.50-2.08Q311.87-4.54 311.87-9.79L311.87-9.79Q311.87-14.21 313.60-19.52Q315.33-24.83 319.23-28.70Q323.14-32.58 329.15-32.58L329.15-32.58Q336.19-32.58 336.19-26.43L336.19-26.43Q336.19-22.85 334.14-19.84Q332.10-16.83 328.70-15.01Q325.31-13.18 321.47-12.93L321.47-12.93Q321.34-11.01 321.34-10.37L321.34-10.37Q321.34-7.23 322.43-6.11Q323.52-4.99 325.95-4.99L325.95-4.99Q329.41-4.99 331.87-6.59Q334.34-8.19 337.28-11.46L337.28-11.46L339.46-11.46Q332.35 0.38 321.86 0.38L321.86 0.38ZM321.98-16Q324.35-16.13 326.50-17.66Q328.64-19.20 329.95-21.57Q331.26-23.94 331.26-26.56L331.26-26.56Q331.26-29.18 329.66-29.18L329.66-29.18Q327.36-29.18 325.15-25.15Q322.94-21.12 321.98-16L321.98-16ZM334.85 0L341.63-32L350.85-32L350.02-28.03Q352.19-29.95 353.95-30.98Q355.71-32 357.76-32L357.76-32Q359.81-32 360.99-30.59Q362.18-29.18 362.18-27.20L362.18-27.20Q362.18-25.34 360.96-23.94Q359.74-22.53 357.57-22.53L357.57-22.53Q356.16-22.53 355.68-23.20Q355.20-23.87 354.94-25.15L354.94-25.15Q354.75-25.98 354.56-26.37Q354.37-26.75 353.86-26.75L353.86-26.75Q352.51-26.75 351.58-26.21Q350.66-25.66 349.18-24.32L349.18-24.32L344.06 0L334.85 0Z" fill="#43d551"/></svg>
