<svg xmlns="http://www.w3.org/2000/svg" viewBox="-3.62 -52.45 272.77 69.70" width="164" height="42"><path d="M6.02 0L14.72-40.70L24.19-41.98L19.65-20.61Q22.72-20.86 25.31-23.30Q27.90-25.73 29.38-29.31Q30.85-32.90 30.85-36.35L30.85-36.35Q30.85-40.19 28.86-42.62Q26.88-45.06 22.91-45.06L22.91-45.06Q15.10-45.06 10.72-40.96Q6.34-36.86 6.34-29.50L6.34-29.50Q6.34-27.14 6.78-26.21Q7.23-25.28 7.23-25.15L7.23-25.15Q3.78-25.15 2.08-26.59Q0.38-28.03 0.38-31.36L0.38-31.36Q0.38-35.46 3.74-39.33Q7.10-43.20 12.35-45.60Q17.60-48 22.85-48L22.85-48Q27.90-48 31.30-46.27Q34.69-44.54 36.32-41.70Q37.95-38.85 37.95-35.39L37.95-35.39Q37.95-31.23 35.68-27.26Q33.41-23.30 29.18-20.77Q24.96-18.24 19.46-18.24L19.46-18.24L19.14-18.24L15.23 0L6.02 0ZM43.01 0.38Q39.94 0.38 38.05-1.54Q36.16-3.46 36.16-7.30L36.16-7.30Q36.16-8.90 36.67-11.46L36.67-11.46L43.52-43.52L52.99-44.80L45.63-10.24Q45.38-9.28 45.38-8.19L45.38-8.19Q45.38-6.91 45.98-6.37Q46.59-5.82 48-5.82L48-5.82Q49.86-5.82 51.46-7.39Q53.06-8.96 53.76-11.46L53.76-11.46L56.45-11.46Q54.08-4.54 50.37-2.08Q46.66 0.38 43.01 0.38L43.01 0.38ZM61.44 0.38Q57.79 0.38 55.36-2.11Q52.93-4.61 52.93-9.92L52.93-9.92Q52.93-14.66 54.82-19.87Q56.70-25.09 60.45-28.70Q64.19-32.32 69.38-32.32L69.38-32.32Q72-32.32 73.28-31.42Q74.56-30.53 74.56-29.06L74.56-29.06L74.56-28.61L75.26-32L84.48-32L79.87-10.24Q79.62-9.28 79.62-8.19L79.62-8.19Q79.62-5.44 82.24-5.44L82.24-5.44Q84.03-5.44 85.34-7.10Q86.66-8.77 87.42-11.46L87.42-11.46L90.11-11.46Q87.74-4.54 84.26-2.08Q80.77 0.38 77.25 0.38L77.25 0.38Q74.56 0.38 72.93-1.12Q71.30-2.62 70.98-5.50L70.98-5.50Q69.12-2.88 66.85-1.25Q64.58 0.38 61.44 0.38L61.44 0.38ZM65.60-5.82Q67.20-5.82 68.77-7.33Q70.34-8.83 70.91-11.46L70.91-11.46L73.98-25.92Q73.98-26.75 73.34-27.55Q72.70-28.35 71.36-28.35L71.36-28.35Q68.80-28.35 66.75-25.38Q64.70-22.40 63.55-18.21Q62.40-14.02 62.40-10.82L62.40-10.82Q62.40-7.62 63.33-6.72Q64.26-5.82 65.60-5.82L65.60-5.82ZM110.53 0.38Q106.62 0.38 104.80-1.70Q102.98-3.78 102.98-6.85L102.98-6.85Q102.98-8.19 103.30-9.89Q103.62-11.58 103.97-13.18Q104.32-14.78 104.45-15.23L104.45-15.23Q104.96-17.47 105.41-19.65Q105.86-21.82 105.86-23.17L105.86-23.17Q105.86-26.43 103.55-26.43L103.55-26.43Q101.89-26.43 100.61-24.80Q99.33-23.17 98.56-20.54L98.56-20.54L94.21 0L84.99 0L91.78-32L100.99-32L100.29-28.67Q103.49-32.26 107.78-32.26L107.78-32.26Q111.04-32.26 112.96-30.46Q114.88-28.67 114.88-25.02L114.88-25.02Q114.88-23.17 114.43-20.90Q113.98-18.62 113.15-15.36L113.15-15.36Q112.64-13.38 112.22-11.49Q111.81-9.60 111.81-8.51L111.81-8.51Q111.81-7.23 112.38-6.53Q112.96-5.82 114.37-5.82L114.37-5.82Q116.29-5.82 117.44-7.20Q118.59-8.58 119.74-11.46L119.74-11.46L122.43-11.46Q120.06-4.42 116.96-2.02Q113.86 0.38 110.53 0.38L110.53 0.38ZM126.08 0.38Q123.01 0.38 121.12-1.54Q119.23-3.46 119.23-7.30L119.23-7.30Q119.23-8.90 119.74-11.46L119.74-11.46L123.58-29.44L121.47-29.44L121.98-32L124.10-32L126.02-40.83L135.49-42.11L133.31-32L137.15-32L136.64-29.44L132.80-29.44L128.70-10.24Q128.45-9.28 128.45-8.19L128.45-8.19Q128.45-6.91 129.06-6.37Q129.66-5.82 131.07-5.82L131.07-5.82Q132.93-5.82 134.53-7.39Q136.13-8.96 136.83-11.46L136.83-11.46L139.52-11.46Q137.15-4.54 133.44-2.08Q129.73 0.38 126.08 0.38L126.08 0.38ZM165.50 13.25Q160.83 13.25 157.98 10.85Q155.14 8.45 155.14 4.54L155.14 4.54Q155.14 2.11 156.29 0.06Q157.44-1.98 159.42-3.17Q161.41-4.35 163.78-4.35L163.78-4.35Q166.21-4.35 167.71-3.14Q169.22-1.92 169.22 0.06L169.22 0.06Q169.22 1.60 168.51 2.50L168.51 2.50Q167.94 1.73 166.94 1.28Q165.95 0.83 164.86 0.83L164.86 0.83Q162.94 0.83 161.73 2.11Q160.51 3.39 160.51 5.44L160.51 5.44Q160.51 7.49 161.70 8.77Q162.88 10.05 164.67 10.05L164.67 10.05Q166.91 10.05 168.51 8.06Q170.11 6.08 170.94 2.18L170.94 2.18L174.14-11.97L173.89-11.97Q172.16-9.54 169.70-8.26Q167.23-6.98 164.29-6.98L164.29-6.98Q160.58-6.98 157.76-8.96Q154.94-10.94 153.44-14.62Q151.94-18.30 151.94-23.17L151.94-23.17Q151.94-30.21 155.01-36Q158.08-41.79 163.46-45.12Q168.83-48.45 175.30-48.45L175.30-48.45Q180.74-48.45 183.90-46.08Q187.07-43.71 187.07-39.62L187.07-39.62Q187.07-36.86 185.73-35.20Q184.38-33.54 182.21-33.54L182.21-33.54Q180.99-33.54 179.94-34.05Q178.88-34.56 178.18-35.52L178.18-35.52Q179.33-36.29 180.13-37.98Q180.93-39.68 180.93-41.41L180.93-41.41Q180.93-43.33 179.81-44.38Q178.69-45.44 176.64-45.44L176.64-45.44Q172.93-45.44 169.47-42.14Q166.02-38.85 163.90-33.54Q161.79-28.22 161.79-22.40L161.79-22.40Q161.79-17.60 163.33-15.07Q164.86-12.54 167.74-12.54L167.74-12.54Q171.20-12.54 173.86-16.19Q176.51-19.84 178.11-26.82L178.11-26.82L185.66-26.75L180.99-5.25Q178.94 4.29 175.20 8.77Q171.46 13.25 165.50 13.25L165.50 13.25ZM185.28 0L192.06-32L201.28-32L200.45-28.03Q202.62-29.95 204.38-30.98Q206.14-32 208.19-32L208.19-32Q210.24-32 211.42-30.59Q212.61-29.18 212.61-27.20L212.61-27.20Q212.61-25.34 211.39-23.94Q210.18-22.53 208-22.53L208-22.53Q206.59-22.53 206.11-23.20Q205.63-23.87 205.38-25.15L205.38-25.15Q205.18-25.98 204.99-26.37Q204.80-26.75 204.29-26.75L204.29-26.75Q202.94-26.75 202.02-26.21Q201.09-25.66 199.62-24.32L199.62-24.32L194.50 0L185.28 0ZM222.46-35.46Q220.35-35.46 218.88-36.93Q217.41-38.40 217.41-40.51L217.41-40.51Q217.41-42.62 218.88-44.13Q220.35-45.63 222.46-45.63L222.46-45.63Q224.58-45.63 226.08-44.13Q227.58-42.62 227.58-40.51L227.58-40.51Q227.58-38.40 226.08-36.93Q224.58-35.46 222.46-35.46L222.46-35.46ZM218.11 0.38Q215.04 0.38 213.15-1.54Q211.26-3.46 211.26-7.30L211.26-7.30Q211.26-8.90 211.78-11.46L211.78-11.46L216.13-32L225.34-32L220.74-10.24Q220.48-9.28 220.48-8.19L220.48-8.19Q220.48-6.91 221.09-6.37Q221.70-5.82 223.10-5.82L223.10-5.82Q224.96-5.82 226.56-7.39Q228.16-8.96 228.86-11.46L228.86-11.46L231.55-11.46Q229.18-4.54 225.47-2.08Q221.76 0.38 218.11 0.38L218.11 0.38ZM236.54 0.38Q232.90 0.38 230.46-2.11Q228.03-4.61 228.03-9.92L228.03-9.92Q228.03-14.66 229.92-19.87Q231.81-25.09 235.55-28.70Q239.30-32.32 244.48-32.32L244.48-32.32Q247.10-32.32 248.38-31.42Q249.66-30.53 249.66-29.06L249.66-29.06L249.66-28.80L252.80-43.52L262.27-44.80L254.91-10.24Q254.66-9.28 254.66-8.19L254.66-8.19Q254.66-6.91 255.26-6.37Q255.87-5.82 257.28-5.82L257.28-5.82Q259.07-5.82 260.38-7.36Q261.70-8.90 262.46-11.46L262.46-11.46L265.15-11.46Q261.25 0 252.29 0L252.29 0Q249.66 0 248.03-1.41Q246.40-2.82 246.02-5.50L246.02-5.50Q244.35-2.94 242.02-1.28Q239.68 0.38 236.54 0.38L236.54 0.38ZM240.70-5.82Q242.24-5.82 243.81-7.23Q245.38-8.64 245.95-11.14L245.95-11.14L245.95-11.46L249.09-26.11Q248.51-28.35 246.46-28.35L246.46-28.35Q243.90-28.35 241.86-25.38Q239.81-22.40 238.66-18.21Q237.50-14.02 237.50-10.82L237.50-10.82Q237.50-7.62 238.43-6.72Q239.36-5.82 240.70-5.82L240.70-5.82Z" fill="#00b894"/></svg>
