<svg xmlns="http://www.w3.org/2000/svg" viewBox="-4.83 -52.00 316.03 72.00" width="184" height="42"><path d="M11.26 16L15.30-3.14Q12.03 0.38 7.68 0.38L7.68 0.38Q4.03 0.38 1.60-2.11Q-0.83-4.61-0.83-9.92L-0.83-9.92Q-0.83-14.66 1.06-19.87Q2.94-25.09 6.69-28.70Q10.43-32.32 15.62-32.32L15.62-32.32Q18.24-32.32 19.52-31.42Q20.80-30.53 20.80-29.06L20.80-29.06L20.80-28.93L21.44-32L30.66-32L20.93 13.70L11.26 16ZM11.84-5.82Q13.25-5.82 14.69-7.04Q16.13-8.26 16.83-10.37L16.83-10.37L20.22-26.18Q19.71-28.35 17.60-28.35L17.60-28.35Q15.04-28.35 12.99-25.38Q10.94-22.40 9.79-18.21Q8.64-14.02 8.64-10.82L8.64-10.82Q8.64-7.62 9.57-6.72Q10.50-5.82 11.84-5.82L11.84-5.82ZM37.44 0.38Q34.37 0.38 32.48-1.54Q30.59-3.46 30.59-7.30L30.59-7.30Q30.59-8.90 31.10-11.46L31.10-11.46L35.46-32L44.67-32L40.06-10.24Q39.87-9.28 39.87-8.45L39.87-8.45Q39.87-5.82 41.79-5.82L41.79-5.82Q43.58-5.82 44.86-7.33Q46.14-8.83 46.91-11.46L46.91-11.46L51.26-32L60.48-32L55.87-10.24Q55.62-9.28 55.62-8.19L55.62-8.19Q55.62-6.91 56.22-6.37Q56.83-5.82 58.24-5.82L58.24-5.82Q60.03-5.82 61.34-7.36Q62.66-8.90 63.42-11.46L63.42-11.46L66.11-11.46Q63.74-4.54 60.26-2.08Q56.77 0.38 53.25 0.38L53.25 0.38Q50.50 0.38 48.86-1.15Q47.23-2.69 46.91-5.70L46.91-5.70Q44.74-2.18 42.34-0.90Q39.94 0.38 37.44 0.38L37.44 0.38ZM71.10 0.38Q67.46 0.38 65.02-2.11Q62.59-4.61 62.59-9.92L62.59-9.92Q62.59-14.66 64.48-19.87Q66.37-25.09 70.11-28.70Q73.86-32.32 79.04-32.32L79.04-32.32Q81.66-32.32 82.94-31.42Q84.22-30.53 84.22-29.06L84.22-29.06L84.22-28.61L84.93-32L94.14-32L89.54-10.24Q89.28-9.28 89.28-8.19L89.28-8.19Q89.28-5.44 91.90-5.44L91.90-5.44Q93.70-5.44 95.01-7.10Q96.32-8.77 97.09-11.46L97.09-11.46L99.78-11.46Q97.41-4.54 93.92-2.08Q90.43 0.38 86.91 0.38L86.91 0.38Q84.22 0.38 82.59-1.12Q80.96-2.62 80.64-5.50L80.64-5.50Q78.78-2.88 76.51-1.25Q74.24 0.38 71.10 0.38L71.10 0.38ZM75.26-5.82Q76.86-5.82 78.43-7.33Q80-8.83 80.58-11.46L80.58-11.46L83.65-25.92Q83.65-26.75 83.01-27.55Q82.37-28.35 81.02-28.35L81.02-28.35Q78.46-28.35 76.42-25.38Q74.37-22.40 73.22-18.21Q72.06-14.02 72.06-10.82L72.06-10.82Q72.06-7.62 72.99-6.72Q73.92-5.82 75.26-5.82L75.26-5.82ZM120.19 0.38Q116.29 0.38 114.46-1.70Q112.64-3.78 112.64-6.85L112.64-6.85Q112.64-8.19 112.96-9.89Q113.28-11.58 113.63-13.18Q113.98-14.78 114.11-15.23L114.11-15.23Q114.62-17.47 115.07-19.65Q115.52-21.82 115.52-23.17L115.52-23.17Q115.52-26.43 113.22-26.43L113.22-26.43Q111.55-26.43 110.27-24.80Q108.99-23.17 108.22-20.54L108.22-20.54L103.87 0L94.66 0L101.44-32L110.66-32L109.95-28.67Q113.15-32.26 117.44-32.26L117.44-32.26Q120.70-32.26 122.62-30.46Q124.54-28.67 124.54-25.02L124.54-25.02Q124.54-23.17 124.10-20.90Q123.65-18.62 122.82-15.36L122.82-15.36Q122.30-13.38 121.89-11.49Q121.47-9.60 121.47-8.51L121.47-8.51Q121.47-7.23 122.05-6.53Q122.62-5.82 124.03-5.82L124.03-5.82Q125.95-5.82 127.10-7.20Q128.26-8.58 129.41-11.46L129.41-11.46L132.10-11.46Q129.73-4.42 126.62-2.02Q123.52 0.38 120.19 0.38L120.19 0.38ZM135.74 0.38Q132.67 0.38 130.78-1.54Q128.90-3.46 128.90-7.30L128.90-7.30Q128.90-8.90 129.41-11.46L129.41-11.46L133.25-29.44L131.14-29.44L131.65-32L133.76-32L135.68-40.83L145.15-42.11L142.98-32L146.82-32L146.30-29.44L142.46-29.44L138.37-10.24Q138.11-9.28 138.11-8.19L138.11-8.19Q138.11-6.91 138.72-6.37Q139.33-5.82 140.74-5.82L140.74-5.82Q142.59-5.82 144.19-7.39Q145.79-8.96 146.50-11.46L146.50-11.46L149.18-11.46Q146.82-4.54 143.10-2.08Q139.39 0.38 135.74 0.38L135.74 0.38ZM157.18-35.46Q155.07-35.46 153.60-36.93Q152.13-38.40 152.13-40.51L152.13-40.51Q152.13-42.62 153.60-44.13Q155.07-45.63 157.18-45.63L157.18-45.63Q159.30-45.63 160.80-44.13Q162.30-42.62 162.30-40.51L162.30-40.51Q162.30-38.40 160.80-36.93Q159.30-35.46 157.18-35.46L157.18-35.46ZM152.83 0.38Q149.76 0.38 147.87-1.54Q145.98-3.46 145.98-7.30L145.98-7.30Q145.98-8.90 146.50-11.46L146.50-11.46L150.85-32L160.06-32L155.46-10.24Q155.20-9.28 155.20-8.19L155.20-8.19Q155.20-6.91 155.81-6.37Q156.42-5.82 157.82-5.82L157.82-5.82Q159.68-5.82 161.28-7.39Q162.88-8.96 163.58-11.46L163.58-11.46L166.27-11.46Q163.90-4.54 160.19-2.08Q156.48 0.38 152.83 0.38L152.83 0.38ZM163.58 0L179.90-28.54L176.32-28.54Q174.53-28.54 173.66-28.35Q172.80-28.16 172.80-27.52L172.80-27.52Q172.80-27.39 173.15-27.23Q173.50-27.07 173.50-26.11L173.50-26.11Q173.50-24.45 172.48-23.58Q171.46-22.72 170.05-22.72L170.05-22.72Q168.83-22.72 167.97-23.46Q167.10-24.19 167.10-25.54L167.10-25.54Q167.10-26.88 168.03-28.42Q168.96-29.95 170.66-30.98Q172.35-32 174.53-32L174.53-32L190.98-32L175.30-4.93Q175.68-4.93 176.70-4.80L176.70-4.80Q178.88-4.54 180.16-4.54L180.16-4.54Q182.91-4.54 183.17-5.82L183.17-5.82Q182.59-5.89 182.27-6.24Q181.95-6.59 181.95-7.17L181.95-7.17Q181.95-8.19 182.91-9.06Q183.87-9.92 185.54-9.92L185.54-9.92Q186.94-9.92 187.65-9.09Q188.35-8.26 188.35-6.85L188.35-6.85Q188.35-5.31 187.39-3.71Q186.43-2.11 184.64-1.06Q182.85 0 180.54 0L180.54 0L163.58 0ZM200.13 0.38Q195.39 0.38 192.77-2.08Q190.14-4.54 190.14-9.79L190.14-9.79Q190.14-14.21 191.87-19.52Q193.60-24.83 197.50-28.70Q201.41-32.58 207.42-32.58L207.42-32.58Q214.46-32.58 214.46-26.43L214.46-26.43Q214.46-22.85 212.42-19.84Q210.37-16.83 206.98-15.01Q203.58-13.18 199.74-12.93L199.74-12.93Q199.62-11.01 199.62-10.37L199.62-10.37Q199.62-7.23 200.70-6.11Q201.79-4.99 204.22-4.99L204.22-4.99Q207.68-4.99 210.14-6.59Q212.61-8.19 215.55-11.46L215.55-11.46L217.73-11.46Q210.62 0.38 200.13 0.38L200.13 0.38ZM200.26-16Q202.62-16.13 204.77-17.66Q206.91-19.20 208.22-21.57Q209.54-23.94 209.54-26.56L209.54-26.56Q209.54-29.18 207.94-29.18L207.94-29.18Q205.63-29.18 203.42-25.15Q201.22-21.12 200.26-16L200.26-16ZM219.84 0L236.10-43.97Q231.23-42.37 228.58-38.69Q225.92-35.01 225.92-29.57L225.92-29.57Q225.92-27.14 226.37-26.24Q226.82-25.34 226.82-25.15L226.82-25.15Q219.97-25.15 219.97-30.98L219.97-30.98Q219.97-34.94 223.01-38.94Q226.05-42.94 230.82-45.47Q235.58-48 240.32-48L240.32-48Q242.69-48 245.18-47.10L245.18-47.10L243.71-13.38L257.79-47.10L267.01-47.10L260.29 0L251.07 0L255.17-28.74L243.14 0L234.37 0L235.65-28.86L224.96 0L219.84 0ZM289.47 0.83Q285.63 0.83 281.66-2.56L281.66-2.56L281.15 0L271.94 0L280.64-40.70L290.11-41.98L282.43-6.08Q284.22-4.80 286.08-4.80L286.08-4.80Q289.73-4.80 292.51-9.02Q295.30-13.25 296.83-19.78Q298.37-26.30 298.37-32.96L298.37-32.96Q298.37-39.23 295.90-42.14Q293.44-45.06 289.02-45.06L289.02-45.06Q284.22-45.06 280.42-43.17Q276.61-41.28 274.43-37.76Q272.26-34.24 272.26-29.50L272.26-29.50Q272.26-27.14 272.70-26.21Q273.15-25.28 273.15-25.15L273.15-25.15Q269.82-25.15 268.06-26.56Q266.30-27.97 266.30-31.10L266.30-31.10Q266.30-35.46 269.57-39.36Q272.83-43.26 278.30-45.63Q283.78-48 290.11-48L290.11-48Q298.88-48 303.04-42.82Q307.20-37.63 307.20-29.57L307.20-29.57Q307.20-22.27 304.74-15.20Q302.27-8.13 298.18-3.65Q294.08 0.83 289.47 0.83L289.47 0.83Z" fill="#fd79a8"/></svg>
