<svg xmlns="http://www.w3.org/2000/svg" viewBox="-1.82 -52.32 286.21 72.32" width="166" height="42"><path d="M15.68 1.15Q11.65 1.15 8.58-0.26Q5.50-1.66 3.84-4.19Q2.18-6.72 2.18-10.05L2.18-10.05Q2.18-12.86 3.36-15.17Q4.54-17.47 6.56-18.82Q8.58-20.16 11.01-20.16L11.01-20.16Q13.25-20.16 14.78-19.04Q16.32-17.92 16.70-15.94L16.70-15.94Q13.38-15.94 11.39-14.18Q9.41-12.42 9.41-9.41L9.41-9.41Q9.41-6.66 11.07-4.99Q12.74-3.33 15.49-3.33L15.49-3.33Q18.88-3.33 21.09-5.60Q23.30-7.87 23.30-11.33L23.30-11.33Q23.30-14.34 21.63-17.02Q19.97-19.71 16.64-23.55L16.64-23.55Q13.18-27.52 11.42-30.37Q9.66-33.22 9.66-36.61L9.66-36.61Q9.66-39.94 11.52-42.59Q13.38-45.25 16.64-46.78Q19.90-48.32 24-48.32L24-48.32Q29.18-48.32 32.29-45.89Q35.39-43.46 35.39-39.36L35.39-39.36Q35.39-36.67 34.05-35.01Q32.70-33.34 30.53-33.34L30.53-33.34Q28.10-33.34 26.62-35.33L26.62-35.33Q27.84-36.22 28.54-37.70Q29.25-39.17 29.25-40.77L29.25-40.77Q29.25-42.82 28.03-44.03Q26.82-45.25 24.70-45.25L24.70-45.25Q22.14-45.25 20.51-43.42Q18.88-41.60 18.88-38.78L18.88-38.78Q18.88-36.22 20.35-34.02Q21.82-31.81 24.96-28.35L24.96-28.35Q27.52-25.60 29.09-23.62Q30.66-21.63 31.78-19.04Q32.90-16.45 32.90-13.44L32.90-13.44Q32.90-9.34 30.62-6.02Q28.35-2.69 24.42-0.77Q20.48 1.15 15.68 1.15L15.68 1.15ZM45.63 0.38Q40.90 0.38 38.27-2.08Q35.65-4.54 35.65-9.79L35.65-9.79Q35.65-14.21 37.38-19.52Q39.10-24.83 43.01-28.70Q46.91-32.58 52.93-32.58L52.93-32.58Q59.97-32.58 59.97-26.43L59.97-26.43Q59.97-22.85 57.92-19.84Q55.87-16.83 52.48-15.01Q49.09-13.18 45.25-12.93L45.25-12.93Q45.12-11.01 45.12-10.37L45.12-10.37Q45.12-7.23 46.21-6.11Q47.30-4.99 49.73-4.99L49.73-4.99Q53.18-4.99 55.65-6.59Q58.11-8.19 61.06-11.46L61.06-11.46L63.23-11.46Q56.13 0.38 45.63 0.38L45.63 0.38ZM45.76-16Q48.13-16.13 50.27-17.66Q52.42-19.20 53.73-21.57Q55.04-23.94 55.04-26.56L55.04-26.56Q55.04-29.18 53.44-29.18L53.44-29.18Q51.14-29.18 48.93-25.15Q46.72-21.12 45.76-16L45.76-16ZM67.39 0.38Q64.32 0.38 62.43-1.54Q60.54-3.46 60.54-7.30L60.54-7.30Q60.54-8.90 61.06-11.46L61.06-11.46L67.90-43.52L77.38-44.80L70.02-10.24Q69.76-9.28 69.76-8.19L69.76-8.19Q69.76-6.91 70.37-6.37Q70.98-5.82 72.38-5.82L72.38-5.82Q74.24-5.82 75.84-7.39Q77.44-8.96 78.14-11.46L78.14-11.46L80.83-11.46Q78.46-4.54 74.75-2.08Q71.04 0.38 67.39 0.38L67.39 0.38ZM72.38 16Q69.38 16 67.10 14.05Q64.83 12.10 64.83 9.09L64.83 9.09Q64.83 6.34 66.24 4.54Q67.65 2.75 69.89 1.70Q72.13 0.64 75.84-0.51L75.84-0.51L83.58-37.06Q84.86-43.20 88.10-45.57Q91.33-47.94 95.23-47.94L95.23-47.94Q98.24-47.94 100.51-45.98Q102.78-44.03 102.78-41.02L102.78-41.02Q102.78-39.55 102.59-38.40L102.59-38.40L99.58-38.40Q99.71-39.81 99.71-40.13L99.71-40.13Q99.71-41.15 99.01-41.73Q98.30-42.30 97.28-42.30L97.28-42.30Q95.94-42.30 94.66-41.12Q93.38-39.94 92.80-37.06L92.80-37.06L91.71-32L96.38-32L95.94-29.44L91.20-29.44L83.84 5.12Q82.56 11.33 79.42 13.66Q76.29 16 72.38 16L72.38 16ZM70.91 10.30Q73.47 10.30 74.56 5.31L74.56 5.31L75.39 1.60Q72 2.75 70.18 4.26Q68.35 5.76 68.35 8.19L68.35 8.19Q68.35 8.96 69.12 9.63Q69.89 10.30 70.91 10.30L70.91 10.30ZM96.45-14.21L97.60-19.26L110.40-19.26L109.31-14.21L96.45-14.21ZM123.84 0L132.93-42.37L132.16-42.37Q126.46-42.37 123.30-39.52Q120.13-36.67 120.13-29.44L120.13-29.44Q120.13-27.07 120.58-26.14Q121.02-25.22 121.02-25.09L121.02-25.09Q117.57-25.09 115.87-26.53Q114.18-27.97 114.18-31.30L114.18-31.30Q114.18-35.84 116.42-39.58Q118.66-43.33 123.55-45.63Q128.45-47.94 136-47.94L136-47.94Q140.22-47.94 145.09-47.17L145.09-47.17Q149.18-46.46 152.38-46.46L152.38-46.46Q156.48-46.46 159.81-47.81L159.81-47.81Q159.68-43.65 157.70-41.66Q155.71-39.68 151.81-39.68L151.81-39.68Q149.76-39.68 147.71-40Q145.66-40.32 141.89-41.09L141.89-41.09L133.06 0L123.84 0ZM155.26-35.46Q153.15-35.46 151.68-36.93Q150.21-38.40 150.21-40.51L150.21-40.51Q150.21-42.62 151.68-44.13Q153.15-45.63 155.26-45.63L155.26-45.63Q157.38-45.63 158.88-44.13Q160.38-42.62 160.38-40.51L160.38-40.51Q160.38-38.40 158.88-36.93Q157.38-35.46 155.26-35.46L155.26-35.46ZM150.91 0.38Q147.84 0.38 145.95-1.54Q144.06-3.46 144.06-7.30L144.06-7.30Q144.06-8.90 144.58-11.46L144.58-11.46L148.93-32L158.14-32L153.54-10.24Q153.28-9.28 153.28-8.19L153.28-8.19Q153.28-6.91 153.89-6.37Q154.50-5.82 155.90-5.82L155.90-5.82Q157.76-5.82 159.36-7.39Q160.96-8.96 161.66-11.46L161.66-11.46L164.35-11.46Q161.98-4.54 158.27-2.08Q154.56 0.38 150.91 0.38L150.91 0.38ZM168 0.38Q164.93 0.38 163.04-1.54Q161.15-3.46 161.15-7.30L161.15-7.30Q161.15-8.90 161.66-11.46L161.66-11.46L165.50-29.44L163.39-29.44L163.90-32L166.02-32L167.94-40.83L177.41-42.11L175.23-32L179.07-32L178.56-29.44L174.72-29.44L170.62-10.24Q170.37-9.28 170.37-8.19L170.37-8.19Q170.37-6.91 170.98-6.37Q171.58-5.82 172.99-5.82L172.99-5.82Q174.85-5.82 176.45-7.39Q178.05-8.96 178.75-11.46L178.75-11.46L181.44-11.46Q179.07-4.54 175.36-2.08Q171.65 0.38 168 0.38L168 0.38ZM185.09 0.38Q182.02 0.38 180.13-1.54Q178.24-3.46 178.24-7.30L178.24-7.30Q178.24-8.90 178.75-11.46L178.75-11.46L185.60-43.52L195.07-44.80L187.71-10.24Q187.46-9.28 187.46-8.19L187.46-8.19Q187.46-6.91 188.06-6.37Q188.67-5.82 190.08-5.82L190.08-5.82Q191.94-5.82 193.54-7.39Q195.14-8.96 195.84-11.46L195.84-11.46L198.53-11.46Q196.16-4.54 192.45-2.08Q188.74 0.38 185.09 0.38L185.09 0.38ZM206.53-35.46Q204.42-35.46 202.94-36.93Q201.47-38.40 201.47-40.51L201.47-40.51Q201.47-42.62 202.94-44.13Q204.42-45.63 206.53-45.63L206.53-45.63Q208.64-45.63 210.14-44.13Q211.65-42.62 211.65-40.51L211.65-40.51Q211.65-38.40 210.14-36.93Q208.64-35.46 206.53-35.46L206.53-35.46ZM202.18 0.38Q199.10 0.38 197.22-1.54Q195.33-3.46 195.33-7.30L195.33-7.30Q195.33-8.90 195.84-11.46L195.84-11.46L200.19-32L209.41-32L204.80-10.24Q204.54-9.28 204.54-8.19L204.54-8.19Q204.54-6.91 205.15-6.37Q205.76-5.82 207.17-5.82L207.17-5.82Q209.02-5.82 210.62-7.39Q212.22-8.96 212.93-11.46L212.93-11.46L215.62-11.46Q213.25-4.54 209.54-2.08Q205.82 0.38 202.18 0.38L202.18 0.38ZM236.03 0.38Q232.13 0.38 230.30-1.70Q228.48-3.78 228.48-6.85L228.48-6.85Q228.48-8.19 228.80-9.89Q229.12-11.58 229.47-13.18Q229.82-14.78 229.95-15.23L229.95-15.23Q230.46-17.47 230.91-19.65Q231.36-21.82 231.36-23.17L231.36-23.17Q231.36-26.43 229.06-26.43L229.06-26.43Q227.39-26.43 226.11-24.80Q224.83-23.17 224.06-20.54L224.06-20.54L219.71 0L210.50 0L217.28-32L226.50-32L225.79-28.67Q228.99-32.26 233.28-32.26L233.28-32.26Q236.54-32.26 238.46-30.46Q240.38-28.67 240.38-25.02L240.38-25.02Q240.38-23.17 239.94-20.90Q239.49-18.62 238.66-15.36L238.66-15.36Q238.14-13.38 237.73-11.49Q237.31-9.60 237.31-8.51L237.31-8.51Q237.31-7.23 237.89-6.53Q238.46-5.82 239.87-5.82L239.87-5.82Q241.79-5.82 242.94-7.20Q244.10-8.58 245.25-11.46L245.25-11.46L247.94-11.46Q245.57-4.42 242.46-2.02Q239.36 0.38 236.03 0.38L236.03 0.38ZM256.58 16Q253.50 16 251.46 14.40Q249.41 12.80 249.41 9.79L249.41 9.79Q249.41 6.14 252.35 3.94Q255.30 1.73 259.84 0.26L259.84 0.26L260.61-3.14Q257.34 0.38 252.93 0.38L252.93 0.38Q249.28 0.38 246.85-2.11Q244.42-4.61 244.42-9.92L244.42-9.92Q244.42-14.66 246.30-19.87Q248.19-25.09 251.94-28.70Q255.68-32.32 260.86-32.32L260.86-32.32Q263.49-32.32 264.77-31.42Q266.05-30.53 266.05-29.06L266.05-29.06L266.05-28.67L266.75-32L275.97-32L269.63-2.30Q272.70-3.33 274.56-5.38Q276.42-7.42 277.70-11.46L277.70-11.46L280.38-11.46Q278.66-5.76 275.71-3.10Q272.77-0.45 269.06 0.51L269.06 0.51L268.10 5.12Q266.82 11.33 263.68 13.66Q260.54 16 256.58 16L256.58 16ZM257.09-5.82Q258.56-5.82 260.10-7.17Q261.63-8.51 262.21-10.82L262.21-10.82L265.47-25.98Q265.47-26.75 264.83-27.55Q264.19-28.35 262.85-28.35L262.85-28.35Q260.29-28.35 258.24-25.38Q256.19-22.40 255.04-18.21Q253.89-14.02 253.89-10.82L253.89-10.82Q253.89-7.62 254.82-6.72Q255.74-5.82 257.09-5.82L257.09-5.82ZM255.10 11.01Q256.19 11.01 257.22 9.54Q258.24 8.06 258.82 5.31L258.82 5.31L259.20 3.46Q252.93 5.76 252.93 8.90L252.93 8.90Q252.93 9.73 253.50 10.37Q254.08 11.01 255.10 11.01L255.10 11.01Z" fill="#5d4037"/></svg>
