<svg xmlns="http://www.w3.org/2000/svg" viewBox="-1.82 -52.32 330.82 72.32" width="192" height="42"><path d="M15.68 1.15Q11.65 1.15 8.58-0.26Q5.50-1.66 3.84-4.19Q2.18-6.72 2.18-10.05L2.18-10.05Q2.18-12.86 3.36-15.17Q4.54-17.47 6.56-18.82Q8.58-20.16 11.01-20.16L11.01-20.16Q13.25-20.16 14.78-19.04Q16.32-17.92 16.70-15.94L16.70-15.94Q13.38-15.94 11.39-14.18Q9.41-12.42 9.41-9.41L9.41-9.41Q9.41-6.66 11.07-4.99Q12.74-3.33 15.49-3.33L15.49-3.33Q18.88-3.33 21.09-5.60Q23.30-7.87 23.30-11.33L23.30-11.33Q23.30-14.34 21.63-17.02Q19.97-19.71 16.64-23.55L16.64-23.55Q13.18-27.52 11.42-30.37Q9.66-33.22 9.66-36.61L9.66-36.61Q9.66-39.94 11.52-42.59Q13.38-45.25 16.64-46.78Q19.90-48.32 24-48.32L24-48.32Q29.18-48.32 32.29-45.89Q35.39-43.46 35.39-39.36L35.39-39.36Q35.39-36.67 34.05-35.01Q32.70-33.34 30.53-33.34L30.53-33.34Q28.10-33.34 26.62-35.33L26.62-35.33Q27.84-36.22 28.54-37.70Q29.25-39.17 29.25-40.77L29.25-40.77Q29.25-42.82 28.03-44.03Q26.82-45.25 24.70-45.25L24.70-45.25Q22.14-45.25 20.51-43.42Q18.88-41.60 18.88-38.78L18.88-38.78Q18.88-36.22 20.35-34.02Q21.82-31.81 24.96-28.35L24.96-28.35Q27.52-25.60 29.09-23.62Q30.66-21.63 31.78-19.04Q32.90-16.45 32.90-13.44L32.90-13.44Q32.90-9.34 30.62-6.02Q28.35-2.69 24.42-0.77Q20.48 1.15 15.68 1.15L15.68 1.15ZM30.66 16L41.34-34.37L50.56-34.37L49.54-29.57Q52.74-32.32 57.02-32.32L57.02-32.32Q60.61-32.32 62.72-29.95Q64.83-27.58 64.83-22.21L64.83-22.21Q64.83-17.15 63.36-12Q61.89-6.85 58.37-3.23Q54.85 0.38 49.09 0.38L49.09 0.38Q44.99 0.38 43.65-1.92L43.65-1.92L40.32 13.70L30.66 16ZM47.10-5.18Q50.18-5.18 52.19-8.06Q54.21-10.94 55.14-14.94Q56.06-18.94 56.06-22.40L56.06-22.40Q56.06-27.71 52.86-27.71L52.86-27.71Q51.71-27.71 50.53-26.88Q49.34-26.05 48.45-24.58L48.45-24.58L44.67-6.66Q45.18-5.18 47.10-5.18L47.10-5.18ZM74.11 0.38Q70.46 0.38 68.03-2.11Q65.60-4.61 65.60-9.92L65.60-9.92Q65.60-14.66 67.49-19.87Q69.38-25.09 73.12-28.70Q76.86-32.32 82.05-32.32L82.05-32.32Q84.67-32.32 85.95-31.42Q87.23-30.53 87.23-29.06L87.23-29.06L87.23-28.61L87.94-32L97.15-32L92.54-10.24Q92.29-9.28 92.29-8.19L92.29-8.19Q92.29-5.44 94.91-5.44L94.91-5.44Q96.70-5.44 98.02-7.10Q99.33-8.77 100.10-11.46L100.10-11.46L102.78-11.46Q100.42-4.54 96.93-2.08Q93.44 0.38 89.92 0.38L89.92 0.38Q87.23 0.38 85.60-1.12Q83.97-2.62 83.65-5.50L83.65-5.50Q81.79-2.88 79.52-1.25Q77.25 0.38 74.11 0.38L74.11 0.38ZM78.27-5.82Q79.87-5.82 81.44-7.33Q83.01-8.83 83.58-11.46L83.58-11.46L86.66-25.92Q86.66-26.75 86.02-27.55Q85.38-28.35 84.03-28.35L84.03-28.35Q81.47-28.35 79.42-25.38Q77.38-22.40 76.22-18.21Q75.07-14.02 75.07-10.82L75.07-10.82Q75.07-7.62 76-6.72Q76.93-5.82 78.27-5.82L78.27-5.82ZM109.25 0.38Q104.51 0.38 101.89-2.08Q99.26-4.54 99.26-9.79L99.26-9.79Q99.26-14.21 101.02-19.52Q102.78-24.83 106.66-28.70Q110.53-32.58 116.48-32.58L116.48-32.58Q120.32-32.58 121.95-30.91Q123.58-29.25 123.58-26.69L123.58-26.69Q123.58-24.45 122.62-23.23Q121.66-22.02 120.19-22.02L120.19-22.02Q119.10-22.02 117.95-22.78L117.95-22.78Q118.72-24.90 118.72-26.56L118.72-26.56Q118.72-27.78 118.27-28.48Q117.82-29.18 116.93-29.18L116.93-29.18Q115.01-29.18 113.09-26.05Q111.17-22.91 109.95-18.43Q108.74-13.95 108.74-10.37L108.74-10.37Q108.74-7.23 109.82-6.11Q110.91-4.99 113.34-4.99L113.34-4.99Q116.80-4.99 119.26-6.59Q121.73-8.19 124.67-11.46L124.67-11.46L126.85-11.46Q119.74 0.38 109.25 0.38L109.25 0.38ZM133.82 0.38Q129.09 0.38 126.46-2.08Q123.84-4.54 123.84-9.79L123.84-9.79Q123.84-14.21 125.57-19.52Q127.30-24.83 131.20-28.70Q135.10-32.58 141.12-32.58L141.12-32.58Q148.16-32.58 148.16-26.43L148.16-26.43Q148.16-22.85 146.11-19.84Q144.06-16.83 140.67-15.01Q137.28-13.18 133.44-12.93L133.44-12.93Q133.31-11.01 133.31-10.37L133.31-10.37Q133.31-7.23 134.40-6.11Q135.49-4.99 137.92-4.99L137.92-4.99Q141.38-4.99 143.84-6.59Q146.30-8.19 149.25-11.46L149.25-11.46L151.42-11.46Q144.32 0.38 133.82 0.38L133.82 0.38ZM133.95-16Q136.32-16.13 138.46-17.66Q140.61-19.20 141.92-21.57Q143.23-23.94 143.23-26.56L143.23-26.56Q143.23-29.18 141.63-29.18L141.63-29.18Q139.33-29.18 137.12-25.15Q134.91-21.12 133.95-16L133.95-16ZM168.77 0L177.98-42.75Q173.95-42.62 171.81-39.68Q169.66-36.74 169.66-29.50L169.66-29.50Q169.66-27.14 170.11-26.21Q170.56-25.28 170.56-25.15L170.56-25.15Q167.10-25.15 165.41-26.59Q163.71-28.03 163.71-31.36L163.71-31.36Q163.71-35.90 165.95-39.65Q168.19-43.39 173.09-45.70Q177.98-48 185.54-48L185.54-48Q187.07-48 189.63-47.68L189.63-47.68Q194.24-47.23 196.16-47.23L196.16-47.23Q199.55-47.23 201.92-48L201.92-48Q201.73-47.42 201.22-45.47Q200.70-43.52 199.39-42.14Q198.08-40.77 195.84-40.32L195.84-40.32Q192.06-40.32 186.88-41.54L186.88-41.54L184.19-28.80L193.54-28.80L192.51-24.06L183.17-24.06L177.98 0L168.77 0ZM203.20-35.46Q201.09-35.46 199.62-36.93Q198.14-38.40 198.14-40.51L198.14-40.51Q198.14-42.62 199.62-44.13Q201.09-45.63 203.20-45.63L203.20-45.63Q205.31-45.63 206.82-44.13Q208.32-42.62 208.32-40.51L208.32-40.51Q208.32-38.40 206.82-36.93Q205.31-35.46 203.20-35.46L203.20-35.46ZM198.85 0.38Q195.78 0.38 193.89-1.54Q192-3.46 192-7.30L192-7.30Q192-8.90 192.51-11.46L192.51-11.46L196.86-32L206.08-32L201.47-10.24Q201.22-9.28 201.22-8.19L201.22-8.19Q201.22-6.91 201.82-6.37Q202.43-5.82 203.84-5.82L203.84-5.82Q205.70-5.82 207.30-7.39Q208.90-8.96 209.60-11.46L209.60-11.46L212.29-11.46Q209.92-4.54 206.21-2.08Q202.50 0.38 198.85 0.38L198.85 0.38ZM232.70 0.38Q228.80 0.38 226.98-1.70Q225.15-3.78 225.15-6.85L225.15-6.85Q225.15-8.19 225.47-9.89Q225.79-11.58 226.14-13.18Q226.50-14.78 226.62-15.23L226.62-15.23Q227.14-17.47 227.58-19.65Q228.03-21.82 228.03-23.17L228.03-23.17Q228.03-26.43 225.73-26.43L225.73-26.43Q224.06-26.43 222.78-24.80Q221.50-23.17 220.74-20.54L220.74-20.54L216.38 0L207.17 0L213.95-32L223.17-32L222.46-28.67Q225.66-32.26 229.95-32.26L229.95-32.26Q233.22-32.26 235.14-30.46Q237.06-28.67 237.06-25.02L237.06-25.02Q237.06-23.17 236.61-20.90Q236.16-18.62 235.33-15.36L235.33-15.36Q234.82-13.38 234.40-11.49Q233.98-9.60 233.98-8.51L233.98-8.51Q233.98-7.23 234.56-6.53Q235.14-5.82 236.54-5.82L236.54-5.82Q238.46-5.82 239.62-7.20Q240.77-8.58 241.92-11.46L241.92-11.46L244.61-11.46Q242.24-4.42 239.14-2.02Q236.03 0.38 232.70 0.38L232.70 0.38ZM249.60 0.38Q245.95 0.38 243.52-2.11Q241.09-4.61 241.09-9.92L241.09-9.92Q241.09-14.66 242.98-19.87Q244.86-25.09 248.61-28.70Q252.35-32.32 257.54-32.32L257.54-32.32Q260.16-32.32 261.44-31.42Q262.72-30.53 262.72-29.06L262.72-29.06L262.72-28.80L265.86-43.52L275.33-44.80L267.97-10.24Q267.71-9.28 267.71-8.19L267.71-8.19Q267.71-6.91 268.32-6.37Q268.93-5.82 270.34-5.82L270.34-5.82Q272.13-5.82 273.44-7.36Q274.75-8.90 275.52-11.46L275.52-11.46L278.21-11.46Q274.30 0 265.34 0L265.34 0Q262.72 0 261.09-1.41Q259.46-2.82 259.07-5.50L259.07-5.50Q257.41-2.94 255.07-1.28Q252.74 0.38 249.60 0.38L249.60 0.38ZM253.76-5.82Q255.30-5.82 256.86-7.23Q258.43-8.64 259.01-11.14L259.01-11.14L259.01-11.46L262.14-26.11Q261.57-28.35 259.52-28.35L259.52-28.35Q256.96-28.35 254.91-25.38Q252.86-22.40 251.71-18.21Q250.56-14.02 250.56-10.82L250.56-10.82Q250.56-7.62 251.49-6.72Q252.42-5.82 253.76-5.82L253.76-5.82ZM284.67 0.38Q279.94 0.38 277.31-2.08Q274.69-4.54 274.69-9.79L274.69-9.79Q274.69-14.21 276.42-19.52Q278.14-24.83 282.05-28.70Q285.95-32.58 291.97-32.58L291.97-32.58Q299.01-32.58 299.01-26.43L299.01-26.43Q299.01-22.85 296.96-19.84Q294.91-16.83 291.52-15.01Q288.13-13.18 284.29-12.93L284.29-12.93Q284.16-11.01 284.16-10.37L284.16-10.37Q284.16-7.23 285.25-6.11Q286.34-4.99 288.77-4.99L288.77-4.99Q292.22-4.99 294.69-6.59Q297.15-8.19 300.10-11.46L300.10-11.46L302.27-11.46Q295.17 0.38 284.67 0.38L284.67 0.38ZM284.80-16Q287.17-16.13 289.31-17.66Q291.46-19.20 292.77-21.57Q294.08-23.94 294.08-26.56L294.08-26.56Q294.08-29.18 292.48-29.18L292.48-29.18Q290.18-29.18 287.97-25.15Q285.76-21.12 284.80-16L284.80-16ZM297.66 0L304.45-32L313.66-32L312.83-28.03Q315.01-29.95 316.77-30.98Q318.53-32 320.58-32L320.58-32Q322.62-32 323.81-30.59Q324.99-29.18 324.99-27.20L324.99-27.20Q324.99-25.34 323.78-23.94Q322.56-22.53 320.38-22.53L320.38-22.53Q318.98-22.53 318.50-23.20Q318.02-23.87 317.76-25.15L317.76-25.15Q317.57-25.98 317.38-26.37Q317.18-26.75 316.67-26.75L316.67-26.75Q315.33-26.75 314.40-26.21Q313.47-25.66 312-24.32L312-24.32L306.88 0L297.66 0Z" fill="#fdcb6e"/></svg>
